<?xml version="1.0" encoding="utf-8" standalone="no"?>
<!DOCTYPE svg PUBLIC "-//W3C//DTD SVG 1.1//EN"
  "http://www.w3.org/Graphics/SVG/1.1/DTD/svg11.dtd">
<!-- Created with matplotlib (https://matplotlib.org/) -->
<svg height="428.539875pt" version="1.1" viewBox="0 0 1175.279375 428.539875" width="1175.279375pt" xmlns="http://www.w3.org/2000/svg" xmlns:xlink="http://www.w3.org/1999/xlink">
 <metadata>
  <rdf:RDF xmlns:cc="http://creativecommons.org/ns#" xmlns:dc="http://purl.org/dc/elements/1.1/" xmlns:rdf="http://www.w3.org/1999/02/22-rdf-syntax-ns#">
   <cc:Work>
    <dc:type rdf:resource="http://purl.org/dc/dcmitype/StillImage"/>
    <dc:date>2020-11-24T20:33:58.120559</dc:date>
    <dc:format>image/svg+xml</dc:format>
    <dc:creator>
     <cc:Agent>
      <dc:title>Matplotlib v3.3.3, https://matplotlib.org/</dc:title>
     </cc:Agent>
    </dc:creator>
   </cc:Work>
  </rdf:RDF>
 </metadata>
 <defs>
  <style type="text/css">*{stroke-linecap:butt;stroke-linejoin:round;}</style>
 </defs>
 <g id="figure_1">
  <g id="patch_1">
   <path d="M 0 428.539875 
L 1175.279375 428.539875 
L 1175.279375 0 
L 0 0 
z
" style="fill:#ffffff;"/>
  </g>
  <g id="axes_1">
   <g id="patch_2">
    <path d="M 52.079375 404.66175 
L 1168.079375 404.66175 
L 1168.079375 24.14175 
L 52.079375 24.14175 
z
" style="fill:#e5e5e5;"/>
   </g>
   <g id="matplotlib.axis_1">
    <g id="xtick_1">
     <g id="line2d_1">
      <path clip-path="url(#p3ea2758802)" d="M 102.806648 404.66175 
L 102.806648 24.14175 
" style="fill:none;stroke:#ffffff;stroke-linecap:square;stroke-width:0.8;"/>
     </g>
     <g id="line2d_2">
      <defs>
       <path d="M 0 0 
L 0 3.5 
" id="m26b3da6ab0" style="stroke:#555555;stroke-width:0.8;"/>
      </defs>
      <g>
       <use style="fill:#555555;stroke:#555555;stroke-width:0.8;" x="102.806648" xlink:href="#m26b3da6ab0" y="404.66175"/>
      </g>
     </g>
     <g id="text_1">
      <!-- Q1 2011 -->
      <g style="fill:#555555;" transform="translate(81.375398 419.260187)scale(0.1 -0.1)">
       <defs>
        <path d="M 39.40625 66.21875 
Q 28.65625 66.21875 22.328125 58.203125 
Q 16.015625 50.203125 16.015625 36.375 
Q 16.015625 22.609375 22.328125 14.59375 
Q 28.65625 6.59375 39.40625 6.59375 
Q 50.140625 6.59375 56.421875 14.59375 
Q 62.703125 22.609375 62.703125 36.375 
Q 62.703125 50.203125 56.421875 58.203125 
Q 50.140625 66.21875 39.40625 66.21875 
z
M 53.21875 1.3125 
L 66.21875 -12.890625 
L 54.296875 -12.890625 
L 43.5 -1.21875 
Q 41.890625 -1.3125 41.03125 -1.359375 
Q 40.1875 -1.421875 39.40625 -1.421875 
Q 24.03125 -1.421875 14.8125 8.859375 
Q 5.609375 19.140625 5.609375 36.375 
Q 5.609375 53.65625 14.8125 63.9375 
Q 24.03125 74.21875 39.40625 74.21875 
Q 54.734375 74.21875 63.90625 63.9375 
Q 73.09375 53.65625 73.09375 36.375 
Q 73.09375 23.6875 67.984375 14.640625 
Q 62.890625 5.609375 53.21875 1.3125 
z
" id="DejaVuSans-81"/>
        <path d="M 12.40625 8.296875 
L 28.515625 8.296875 
L 28.515625 63.921875 
L 10.984375 60.40625 
L 10.984375 69.390625 
L 28.421875 72.90625 
L 38.28125 72.90625 
L 38.28125 8.296875 
L 54.390625 8.296875 
L 54.390625 0 
L 12.40625 0 
z
" id="DejaVuSans-49"/>
        <path id="DejaVuSans-32"/>
        <path d="M 19.1875 8.296875 
L 53.609375 8.296875 
L 53.609375 0 
L 7.328125 0 
L 7.328125 8.296875 
Q 12.9375 14.109375 22.625 23.890625 
Q 32.328125 33.6875 34.8125 36.53125 
Q 39.546875 41.84375 41.421875 45.53125 
Q 43.3125 49.21875 43.3125 52.78125 
Q 43.3125 58.59375 39.234375 62.25 
Q 35.15625 65.921875 28.609375 65.921875 
Q 23.96875 65.921875 18.8125 64.3125 
Q 13.671875 62.703125 7.8125 59.421875 
L 7.8125 69.390625 
Q 13.765625 71.78125 18.9375 73 
Q 24.125 74.21875 28.421875 74.21875 
Q 39.75 74.21875 46.484375 68.546875 
Q 53.21875 62.890625 53.21875 53.421875 
Q 53.21875 48.921875 51.53125 44.890625 
Q 49.859375 40.875 45.40625 35.40625 
Q 44.1875 33.984375 37.640625 27.21875 
Q 31.109375 20.453125 19.1875 8.296875 
z
" id="DejaVuSans-50"/>
        <path d="M 31.78125 66.40625 
Q 24.171875 66.40625 20.328125 58.90625 
Q 16.5 51.421875 16.5 36.375 
Q 16.5 21.390625 20.328125 13.890625 
Q 24.171875 6.390625 31.78125 6.390625 
Q 39.453125 6.390625 43.28125 13.890625 
Q 47.125 21.390625 47.125 36.375 
Q 47.125 51.421875 43.28125 58.90625 
Q 39.453125 66.40625 31.78125 66.40625 
z
M 31.78125 74.21875 
Q 44.046875 74.21875 50.515625 64.515625 
Q 56.984375 54.828125 56.984375 36.375 
Q 56.984375 17.96875 50.515625 8.265625 
Q 44.046875 -1.421875 31.78125 -1.421875 
Q 19.53125 -1.421875 13.0625 8.265625 
Q 6.59375 17.96875 6.59375 36.375 
Q 6.59375 54.828125 13.0625 64.515625 
Q 19.53125 74.21875 31.78125 74.21875 
z
" id="DejaVuSans-48"/>
       </defs>
       <use xlink:href="#DejaVuSans-81"/>
       <use x="78.710938" xlink:href="#DejaVuSans-49"/>
       <use x="142.333984" xlink:href="#DejaVuSans-32"/>
       <use x="174.121094" xlink:href="#DejaVuSans-50"/>
       <use x="237.744141" xlink:href="#DejaVuSans-48"/>
       <use x="301.367188" xlink:href="#DejaVuSans-49"/>
       <use x="364.990234" xlink:href="#DejaVuSans-49"/>
      </g>
     </g>
    </g>
    <g id="xtick_2">
     <g id="line2d_3">
      <path clip-path="url(#p3ea2758802)" d="M 159.170284 404.66175 
L 159.170284 24.14175 
" style="fill:none;stroke:#ffffff;stroke-linecap:square;stroke-width:0.8;"/>
     </g>
     <g id="line2d_4">
      <g>
       <use style="fill:#555555;stroke:#555555;stroke-width:0.8;" x="159.170284" xlink:href="#m26b3da6ab0" y="404.66175"/>
      </g>
     </g>
     <g id="text_2">
      <!-- Q3 2011 -->
      <g style="fill:#555555;" transform="translate(137.739034 419.260187)scale(0.1 -0.1)">
       <defs>
        <path d="M 40.578125 39.3125 
Q 47.65625 37.796875 51.625 33 
Q 55.609375 28.21875 55.609375 21.1875 
Q 55.609375 10.40625 48.1875 4.484375 
Q 40.765625 -1.421875 27.09375 -1.421875 
Q 22.515625 -1.421875 17.65625 -0.515625 
Q 12.796875 0.390625 7.625 2.203125 
L 7.625 11.71875 
Q 11.71875 9.328125 16.59375 8.109375 
Q 21.484375 6.890625 26.8125 6.890625 
Q 36.078125 6.890625 40.9375 10.546875 
Q 45.796875 14.203125 45.796875 21.1875 
Q 45.796875 27.640625 41.28125 31.265625 
Q 36.765625 34.90625 28.71875 34.90625 
L 20.21875 34.90625 
L 20.21875 43.015625 
L 29.109375 43.015625 
Q 36.375 43.015625 40.234375 45.921875 
Q 44.09375 48.828125 44.09375 54.296875 
Q 44.09375 59.90625 40.109375 62.90625 
Q 36.140625 65.921875 28.71875 65.921875 
Q 24.65625 65.921875 20.015625 65.03125 
Q 15.375 64.15625 9.8125 62.3125 
L 9.8125 71.09375 
Q 15.4375 72.65625 20.34375 73.4375 
Q 25.25 74.21875 29.59375 74.21875 
Q 40.828125 74.21875 47.359375 69.109375 
Q 53.90625 64.015625 53.90625 55.328125 
Q 53.90625 49.265625 50.4375 45.09375 
Q 46.96875 40.921875 40.578125 39.3125 
z
" id="DejaVuSans-51"/>
       </defs>
       <use xlink:href="#DejaVuSans-81"/>
       <use x="78.710938" xlink:href="#DejaVuSans-51"/>
       <use x="142.333984" xlink:href="#DejaVuSans-32"/>
       <use x="174.121094" xlink:href="#DejaVuSans-50"/>
       <use x="237.744141" xlink:href="#DejaVuSans-48"/>
       <use x="301.367188" xlink:href="#DejaVuSans-49"/>
       <use x="364.990234" xlink:href="#DejaVuSans-49"/>
      </g>
     </g>
    </g>
    <g id="xtick_3">
     <g id="line2d_5">
      <path clip-path="url(#p3ea2758802)" d="M 215.53392 404.66175 
L 215.53392 24.14175 
" style="fill:none;stroke:#ffffff;stroke-linecap:square;stroke-width:0.8;"/>
     </g>
     <g id="line2d_6">
      <g>
       <use style="fill:#555555;stroke:#555555;stroke-width:0.8;" x="215.53392" xlink:href="#m26b3da6ab0" y="404.66175"/>
      </g>
     </g>
     <g id="text_3">
      <!-- Q1 2012 -->
      <g style="fill:#555555;" transform="translate(194.10267 419.260187)scale(0.1 -0.1)">
       <use xlink:href="#DejaVuSans-81"/>
       <use x="78.710938" xlink:href="#DejaVuSans-49"/>
       <use x="142.333984" xlink:href="#DejaVuSans-32"/>
       <use x="174.121094" xlink:href="#DejaVuSans-50"/>
       <use x="237.744141" xlink:href="#DejaVuSans-48"/>
       <use x="301.367188" xlink:href="#DejaVuSans-49"/>
       <use x="364.990234" xlink:href="#DejaVuSans-50"/>
      </g>
     </g>
    </g>
    <g id="xtick_4">
     <g id="line2d_7">
      <path clip-path="url(#p3ea2758802)" d="M 271.897557 404.66175 
L 271.897557 24.14175 
" style="fill:none;stroke:#ffffff;stroke-linecap:square;stroke-width:0.8;"/>
     </g>
     <g id="line2d_8">
      <g>
       <use style="fill:#555555;stroke:#555555;stroke-width:0.8;" x="271.897557" xlink:href="#m26b3da6ab0" y="404.66175"/>
      </g>
     </g>
     <g id="text_4">
      <!-- Q3 2012 -->
      <g style="fill:#555555;" transform="translate(250.466307 419.260187)scale(0.1 -0.1)">
       <use xlink:href="#DejaVuSans-81"/>
       <use x="78.710938" xlink:href="#DejaVuSans-51"/>
       <use x="142.333984" xlink:href="#DejaVuSans-32"/>
       <use x="174.121094" xlink:href="#DejaVuSans-50"/>
       <use x="237.744141" xlink:href="#DejaVuSans-48"/>
       <use x="301.367188" xlink:href="#DejaVuSans-49"/>
       <use x="364.990234" xlink:href="#DejaVuSans-50"/>
      </g>
     </g>
    </g>
    <g id="xtick_5">
     <g id="line2d_9">
      <path clip-path="url(#p3ea2758802)" d="M 328.261193 404.66175 
L 328.261193 24.14175 
" style="fill:none;stroke:#ffffff;stroke-linecap:square;stroke-width:0.8;"/>
     </g>
     <g id="line2d_10">
      <g>
       <use style="fill:#555555;stroke:#555555;stroke-width:0.8;" x="328.261193" xlink:href="#m26b3da6ab0" y="404.66175"/>
      </g>
     </g>
     <g id="text_5">
      <!-- Q1 2013 -->
      <g style="fill:#555555;" transform="translate(306.829943 419.260187)scale(0.1 -0.1)">
       <use xlink:href="#DejaVuSans-81"/>
       <use x="78.710938" xlink:href="#DejaVuSans-49"/>
       <use x="142.333984" xlink:href="#DejaVuSans-32"/>
       <use x="174.121094" xlink:href="#DejaVuSans-50"/>
       <use x="237.744141" xlink:href="#DejaVuSans-48"/>
       <use x="301.367188" xlink:href="#DejaVuSans-49"/>
       <use x="364.990234" xlink:href="#DejaVuSans-51"/>
      </g>
     </g>
    </g>
    <g id="xtick_6">
     <g id="line2d_11">
      <path clip-path="url(#p3ea2758802)" d="M 384.62483 404.66175 
L 384.62483 24.14175 
" style="fill:none;stroke:#ffffff;stroke-linecap:square;stroke-width:0.8;"/>
     </g>
     <g id="line2d_12">
      <g>
       <use style="fill:#555555;stroke:#555555;stroke-width:0.8;" x="384.62483" xlink:href="#m26b3da6ab0" y="404.66175"/>
      </g>
     </g>
     <g id="text_6">
      <!-- Q3 2013 -->
      <g style="fill:#555555;" transform="translate(363.19358 419.260187)scale(0.1 -0.1)">
       <use xlink:href="#DejaVuSans-81"/>
       <use x="78.710938" xlink:href="#DejaVuSans-51"/>
       <use x="142.333984" xlink:href="#DejaVuSans-32"/>
       <use x="174.121094" xlink:href="#DejaVuSans-50"/>
       <use x="237.744141" xlink:href="#DejaVuSans-48"/>
       <use x="301.367188" xlink:href="#DejaVuSans-49"/>
       <use x="364.990234" xlink:href="#DejaVuSans-51"/>
      </g>
     </g>
    </g>
    <g id="xtick_7">
     <g id="line2d_13">
      <path clip-path="url(#p3ea2758802)" d="M 440.988466 404.66175 
L 440.988466 24.14175 
" style="fill:none;stroke:#ffffff;stroke-linecap:square;stroke-width:0.8;"/>
     </g>
     <g id="line2d_14">
      <g>
       <use style="fill:#555555;stroke:#555555;stroke-width:0.8;" x="440.988466" xlink:href="#m26b3da6ab0" y="404.66175"/>
      </g>
     </g>
     <g id="text_7">
      <!-- Q1 2014 -->
      <g style="fill:#555555;" transform="translate(419.557216 419.260187)scale(0.1 -0.1)">
       <defs>
        <path d="M 37.796875 64.3125 
L 12.890625 25.390625 
L 37.796875 25.390625 
z
M 35.203125 72.90625 
L 47.609375 72.90625 
L 47.609375 25.390625 
L 58.015625 25.390625 
L 58.015625 17.1875 
L 47.609375 17.1875 
L 47.609375 0 
L 37.796875 0 
L 37.796875 17.1875 
L 4.890625 17.1875 
L 4.890625 26.703125 
z
" id="DejaVuSans-52"/>
       </defs>
       <use xlink:href="#DejaVuSans-81"/>
       <use x="78.710938" xlink:href="#DejaVuSans-49"/>
       <use x="142.333984" xlink:href="#DejaVuSans-32"/>
       <use x="174.121094" xlink:href="#DejaVuSans-50"/>
       <use x="237.744141" xlink:href="#DejaVuSans-48"/>
       <use x="301.367188" xlink:href="#DejaVuSans-49"/>
       <use x="364.990234" xlink:href="#DejaVuSans-52"/>
      </g>
     </g>
    </g>
    <g id="xtick_8">
     <g id="line2d_15">
      <path clip-path="url(#p3ea2758802)" d="M 497.352102 404.66175 
L 497.352102 24.14175 
" style="fill:none;stroke:#ffffff;stroke-linecap:square;stroke-width:0.8;"/>
     </g>
     <g id="line2d_16">
      <g>
       <use style="fill:#555555;stroke:#555555;stroke-width:0.8;" x="497.352102" xlink:href="#m26b3da6ab0" y="404.66175"/>
      </g>
     </g>
     <g id="text_8">
      <!-- Q3 2014 -->
      <g style="fill:#555555;" transform="translate(475.920852 419.260187)scale(0.1 -0.1)">
       <use xlink:href="#DejaVuSans-81"/>
       <use x="78.710938" xlink:href="#DejaVuSans-51"/>
       <use x="142.333984" xlink:href="#DejaVuSans-32"/>
       <use x="174.121094" xlink:href="#DejaVuSans-50"/>
       <use x="237.744141" xlink:href="#DejaVuSans-48"/>
       <use x="301.367188" xlink:href="#DejaVuSans-49"/>
       <use x="364.990234" xlink:href="#DejaVuSans-52"/>
      </g>
     </g>
    </g>
    <g id="xtick_9">
     <g id="line2d_17">
      <path clip-path="url(#p3ea2758802)" d="M 553.715739 404.66175 
L 553.715739 24.14175 
" style="fill:none;stroke:#ffffff;stroke-linecap:square;stroke-width:0.8;"/>
     </g>
     <g id="line2d_18">
      <g>
       <use style="fill:#555555;stroke:#555555;stroke-width:0.8;" x="553.715739" xlink:href="#m26b3da6ab0" y="404.66175"/>
      </g>
     </g>
     <g id="text_9">
      <!-- Q1 2015 -->
      <g style="fill:#555555;" transform="translate(532.284489 419.260187)scale(0.1 -0.1)">
       <defs>
        <path d="M 10.796875 72.90625 
L 49.515625 72.90625 
L 49.515625 64.59375 
L 19.828125 64.59375 
L 19.828125 46.734375 
Q 21.96875 47.46875 24.109375 47.828125 
Q 26.265625 48.1875 28.421875 48.1875 
Q 40.625 48.1875 47.75 41.5 
Q 54.890625 34.8125 54.890625 23.390625 
Q 54.890625 11.625 47.5625 5.09375 
Q 40.234375 -1.421875 26.90625 -1.421875 
Q 22.3125 -1.421875 17.546875 -0.640625 
Q 12.796875 0.140625 7.71875 1.703125 
L 7.71875 11.625 
Q 12.109375 9.234375 16.796875 8.0625 
Q 21.484375 6.890625 26.703125 6.890625 
Q 35.15625 6.890625 40.078125 11.328125 
Q 45.015625 15.765625 45.015625 23.390625 
Q 45.015625 31 40.078125 35.4375 
Q 35.15625 39.890625 26.703125 39.890625 
Q 22.75 39.890625 18.8125 39.015625 
Q 14.890625 38.140625 10.796875 36.28125 
z
" id="DejaVuSans-53"/>
       </defs>
       <use xlink:href="#DejaVuSans-81"/>
       <use x="78.710938" xlink:href="#DejaVuSans-49"/>
       <use x="142.333984" xlink:href="#DejaVuSans-32"/>
       <use x="174.121094" xlink:href="#DejaVuSans-50"/>
       <use x="237.744141" xlink:href="#DejaVuSans-48"/>
       <use x="301.367188" xlink:href="#DejaVuSans-49"/>
       <use x="364.990234" xlink:href="#DejaVuSans-53"/>
      </g>
     </g>
    </g>
    <g id="xtick_10">
     <g id="line2d_19">
      <path clip-path="url(#p3ea2758802)" d="M 610.079375 404.66175 
L 610.079375 24.14175 
" style="fill:none;stroke:#ffffff;stroke-linecap:square;stroke-width:0.8;"/>
     </g>
     <g id="line2d_20">
      <g>
       <use style="fill:#555555;stroke:#555555;stroke-width:0.8;" x="610.079375" xlink:href="#m26b3da6ab0" y="404.66175"/>
      </g>
     </g>
     <g id="text_10">
      <!-- Q3 2015 -->
      <g style="fill:#555555;" transform="translate(588.648125 419.260187)scale(0.1 -0.1)">
       <use xlink:href="#DejaVuSans-81"/>
       <use x="78.710938" xlink:href="#DejaVuSans-51"/>
       <use x="142.333984" xlink:href="#DejaVuSans-32"/>
       <use x="174.121094" xlink:href="#DejaVuSans-50"/>
       <use x="237.744141" xlink:href="#DejaVuSans-48"/>
       <use x="301.367188" xlink:href="#DejaVuSans-49"/>
       <use x="364.990234" xlink:href="#DejaVuSans-53"/>
      </g>
     </g>
    </g>
    <g id="xtick_11">
     <g id="line2d_21">
      <path clip-path="url(#p3ea2758802)" d="M 666.443011 404.66175 
L 666.443011 24.14175 
" style="fill:none;stroke:#ffffff;stroke-linecap:square;stroke-width:0.8;"/>
     </g>
     <g id="line2d_22">
      <g>
       <use style="fill:#555555;stroke:#555555;stroke-width:0.8;" x="666.443011" xlink:href="#m26b3da6ab0" y="404.66175"/>
      </g>
     </g>
     <g id="text_11">
      <!-- Q1 2016 -->
      <g style="fill:#555555;" transform="translate(645.011761 419.260187)scale(0.1 -0.1)">
       <defs>
        <path d="M 33.015625 40.375 
Q 26.375 40.375 22.484375 35.828125 
Q 18.609375 31.296875 18.609375 23.390625 
Q 18.609375 15.53125 22.484375 10.953125 
Q 26.375 6.390625 33.015625 6.390625 
Q 39.65625 6.390625 43.53125 10.953125 
Q 47.40625 15.53125 47.40625 23.390625 
Q 47.40625 31.296875 43.53125 35.828125 
Q 39.65625 40.375 33.015625 40.375 
z
M 52.59375 71.296875 
L 52.59375 62.3125 
Q 48.875 64.0625 45.09375 64.984375 
Q 41.3125 65.921875 37.59375 65.921875 
Q 27.828125 65.921875 22.671875 59.328125 
Q 17.53125 52.734375 16.796875 39.40625 
Q 19.671875 43.65625 24.015625 45.921875 
Q 28.375 48.1875 33.59375 48.1875 
Q 44.578125 48.1875 50.953125 41.515625 
Q 57.328125 34.859375 57.328125 23.390625 
Q 57.328125 12.15625 50.6875 5.359375 
Q 44.046875 -1.421875 33.015625 -1.421875 
Q 20.359375 -1.421875 13.671875 8.265625 
Q 6.984375 17.96875 6.984375 36.375 
Q 6.984375 53.65625 15.1875 63.9375 
Q 23.390625 74.21875 37.203125 74.21875 
Q 40.921875 74.21875 44.703125 73.484375 
Q 48.484375 72.75 52.59375 71.296875 
z
" id="DejaVuSans-54"/>
       </defs>
       <use xlink:href="#DejaVuSans-81"/>
       <use x="78.710938" xlink:href="#DejaVuSans-49"/>
       <use x="142.333984" xlink:href="#DejaVuSans-32"/>
       <use x="174.121094" xlink:href="#DejaVuSans-50"/>
       <use x="237.744141" xlink:href="#DejaVuSans-48"/>
       <use x="301.367188" xlink:href="#DejaVuSans-49"/>
       <use x="364.990234" xlink:href="#DejaVuSans-54"/>
      </g>
     </g>
    </g>
    <g id="xtick_12">
     <g id="line2d_23">
      <path clip-path="url(#p3ea2758802)" d="M 722.806648 404.66175 
L 722.806648 24.14175 
" style="fill:none;stroke:#ffffff;stroke-linecap:square;stroke-width:0.8;"/>
     </g>
     <g id="line2d_24">
      <g>
       <use style="fill:#555555;stroke:#555555;stroke-width:0.8;" x="722.806648" xlink:href="#m26b3da6ab0" y="404.66175"/>
      </g>
     </g>
     <g id="text_12">
      <!-- Q3 2016 -->
      <g style="fill:#555555;" transform="translate(701.375398 419.260187)scale(0.1 -0.1)">
       <use xlink:href="#DejaVuSans-81"/>
       <use x="78.710938" xlink:href="#DejaVuSans-51"/>
       <use x="142.333984" xlink:href="#DejaVuSans-32"/>
       <use x="174.121094" xlink:href="#DejaVuSans-50"/>
       <use x="237.744141" xlink:href="#DejaVuSans-48"/>
       <use x="301.367188" xlink:href="#DejaVuSans-49"/>
       <use x="364.990234" xlink:href="#DejaVuSans-54"/>
      </g>
     </g>
    </g>
    <g id="xtick_13">
     <g id="line2d_25">
      <path clip-path="url(#p3ea2758802)" d="M 779.170284 404.66175 
L 779.170284 24.14175 
" style="fill:none;stroke:#ffffff;stroke-linecap:square;stroke-width:0.8;"/>
     </g>
     <g id="line2d_26">
      <g>
       <use style="fill:#555555;stroke:#555555;stroke-width:0.8;" x="779.170284" xlink:href="#m26b3da6ab0" y="404.66175"/>
      </g>
     </g>
     <g id="text_13">
      <!-- Q1 2017 -->
      <g style="fill:#555555;" transform="translate(757.739034 419.260187)scale(0.1 -0.1)">
       <defs>
        <path d="M 8.203125 72.90625 
L 55.078125 72.90625 
L 55.078125 68.703125 
L 28.609375 0 
L 18.3125 0 
L 43.21875 64.59375 
L 8.203125 64.59375 
z
" id="DejaVuSans-55"/>
       </defs>
       <use xlink:href="#DejaVuSans-81"/>
       <use x="78.710938" xlink:href="#DejaVuSans-49"/>
       <use x="142.333984" xlink:href="#DejaVuSans-32"/>
       <use x="174.121094" xlink:href="#DejaVuSans-50"/>
       <use x="237.744141" xlink:href="#DejaVuSans-48"/>
       <use x="301.367188" xlink:href="#DejaVuSans-49"/>
       <use x="364.990234" xlink:href="#DejaVuSans-55"/>
      </g>
     </g>
    </g>
    <g id="xtick_14">
     <g id="line2d_27">
      <path clip-path="url(#p3ea2758802)" d="M 835.53392 404.66175 
L 835.53392 24.14175 
" style="fill:none;stroke:#ffffff;stroke-linecap:square;stroke-width:0.8;"/>
     </g>
     <g id="line2d_28">
      <g>
       <use style="fill:#555555;stroke:#555555;stroke-width:0.8;" x="835.53392" xlink:href="#m26b3da6ab0" y="404.66175"/>
      </g>
     </g>
     <g id="text_14">
      <!-- Q3 2017 -->
      <g style="fill:#555555;" transform="translate(814.10267 419.260187)scale(0.1 -0.1)">
       <use xlink:href="#DejaVuSans-81"/>
       <use x="78.710938" xlink:href="#DejaVuSans-51"/>
       <use x="142.333984" xlink:href="#DejaVuSans-32"/>
       <use x="174.121094" xlink:href="#DejaVuSans-50"/>
       <use x="237.744141" xlink:href="#DejaVuSans-48"/>
       <use x="301.367188" xlink:href="#DejaVuSans-49"/>
       <use x="364.990234" xlink:href="#DejaVuSans-55"/>
      </g>
     </g>
    </g>
    <g id="xtick_15">
     <g id="line2d_29">
      <path clip-path="url(#p3ea2758802)" d="M 891.897557 404.66175 
L 891.897557 24.14175 
" style="fill:none;stroke:#ffffff;stroke-linecap:square;stroke-width:0.8;"/>
     </g>
     <g id="line2d_30">
      <g>
       <use style="fill:#555555;stroke:#555555;stroke-width:0.8;" x="891.897557" xlink:href="#m26b3da6ab0" y="404.66175"/>
      </g>
     </g>
     <g id="text_15">
      <!-- Q1 2018 -->
      <g style="fill:#555555;" transform="translate(870.466307 419.260187)scale(0.1 -0.1)">
       <defs>
        <path d="M 31.78125 34.625 
Q 24.75 34.625 20.71875 30.859375 
Q 16.703125 27.09375 16.703125 20.515625 
Q 16.703125 13.921875 20.71875 10.15625 
Q 24.75 6.390625 31.78125 6.390625 
Q 38.8125 6.390625 42.859375 10.171875 
Q 46.921875 13.96875 46.921875 20.515625 
Q 46.921875 27.09375 42.890625 30.859375 
Q 38.875 34.625 31.78125 34.625 
z
M 21.921875 38.8125 
Q 15.578125 40.375 12.03125 44.71875 
Q 8.5 49.078125 8.5 55.328125 
Q 8.5 64.0625 14.71875 69.140625 
Q 20.953125 74.21875 31.78125 74.21875 
Q 42.671875 74.21875 48.875 69.140625 
Q 55.078125 64.0625 55.078125 55.328125 
Q 55.078125 49.078125 51.53125 44.71875 
Q 48 40.375 41.703125 38.8125 
Q 48.828125 37.15625 52.796875 32.3125 
Q 56.78125 27.484375 56.78125 20.515625 
Q 56.78125 9.90625 50.3125 4.234375 
Q 43.84375 -1.421875 31.78125 -1.421875 
Q 19.734375 -1.421875 13.25 4.234375 
Q 6.78125 9.90625 6.78125 20.515625 
Q 6.78125 27.484375 10.78125 32.3125 
Q 14.796875 37.15625 21.921875 38.8125 
z
M 18.3125 54.390625 
Q 18.3125 48.734375 21.84375 45.5625 
Q 25.390625 42.390625 31.78125 42.390625 
Q 38.140625 42.390625 41.71875 45.5625 
Q 45.3125 48.734375 45.3125 54.390625 
Q 45.3125 60.0625 41.71875 63.234375 
Q 38.140625 66.40625 31.78125 66.40625 
Q 25.390625 66.40625 21.84375 63.234375 
Q 18.3125 60.0625 18.3125 54.390625 
z
" id="DejaVuSans-56"/>
       </defs>
       <use xlink:href="#DejaVuSans-81"/>
       <use x="78.710938" xlink:href="#DejaVuSans-49"/>
       <use x="142.333984" xlink:href="#DejaVuSans-32"/>
       <use x="174.121094" xlink:href="#DejaVuSans-50"/>
       <use x="237.744141" xlink:href="#DejaVuSans-48"/>
       <use x="301.367188" xlink:href="#DejaVuSans-49"/>
       <use x="364.990234" xlink:href="#DejaVuSans-56"/>
      </g>
     </g>
    </g>
    <g id="xtick_16">
     <g id="line2d_31">
      <path clip-path="url(#p3ea2758802)" d="M 948.261193 404.66175 
L 948.261193 24.14175 
" style="fill:none;stroke:#ffffff;stroke-linecap:square;stroke-width:0.8;"/>
     </g>
     <g id="line2d_32">
      <g>
       <use style="fill:#555555;stroke:#555555;stroke-width:0.8;" x="948.261193" xlink:href="#m26b3da6ab0" y="404.66175"/>
      </g>
     </g>
     <g id="text_16">
      <!-- Q3 2018 -->
      <g style="fill:#555555;" transform="translate(926.829943 419.260187)scale(0.1 -0.1)">
       <use xlink:href="#DejaVuSans-81"/>
       <use x="78.710938" xlink:href="#DejaVuSans-51"/>
       <use x="142.333984" xlink:href="#DejaVuSans-32"/>
       <use x="174.121094" xlink:href="#DejaVuSans-50"/>
       <use x="237.744141" xlink:href="#DejaVuSans-48"/>
       <use x="301.367188" xlink:href="#DejaVuSans-49"/>
       <use x="364.990234" xlink:href="#DejaVuSans-56"/>
      </g>
     </g>
    </g>
    <g id="xtick_17">
     <g id="line2d_33">
      <path clip-path="url(#p3ea2758802)" d="M 1004.62483 404.66175 
L 1004.62483 24.14175 
" style="fill:none;stroke:#ffffff;stroke-linecap:square;stroke-width:0.8;"/>
     </g>
     <g id="line2d_34">
      <g>
       <use style="fill:#555555;stroke:#555555;stroke-width:0.8;" x="1004.62483" xlink:href="#m26b3da6ab0" y="404.66175"/>
      </g>
     </g>
     <g id="text_17">
      <!-- Q1 2019 -->
      <g style="fill:#555555;" transform="translate(983.19358 419.260187)scale(0.1 -0.1)">
       <defs>
        <path d="M 10.984375 1.515625 
L 10.984375 10.5 
Q 14.703125 8.734375 18.5 7.8125 
Q 22.3125 6.890625 25.984375 6.890625 
Q 35.75 6.890625 40.890625 13.453125 
Q 46.046875 20.015625 46.78125 33.40625 
Q 43.953125 29.203125 39.59375 26.953125 
Q 35.25 24.703125 29.984375 24.703125 
Q 19.046875 24.703125 12.671875 31.3125 
Q 6.296875 37.9375 6.296875 49.421875 
Q 6.296875 60.640625 12.9375 67.421875 
Q 19.578125 74.21875 30.609375 74.21875 
Q 43.265625 74.21875 49.921875 64.515625 
Q 56.59375 54.828125 56.59375 36.375 
Q 56.59375 19.140625 48.40625 8.859375 
Q 40.234375 -1.421875 26.421875 -1.421875 
Q 22.703125 -1.421875 18.890625 -0.6875 
Q 15.09375 0.046875 10.984375 1.515625 
z
M 30.609375 32.421875 
Q 37.25 32.421875 41.125 36.953125 
Q 45.015625 41.5 45.015625 49.421875 
Q 45.015625 57.28125 41.125 61.84375 
Q 37.25 66.40625 30.609375 66.40625 
Q 23.96875 66.40625 20.09375 61.84375 
Q 16.21875 57.28125 16.21875 49.421875 
Q 16.21875 41.5 20.09375 36.953125 
Q 23.96875 32.421875 30.609375 32.421875 
z
" id="DejaVuSans-57"/>
       </defs>
       <use xlink:href="#DejaVuSans-81"/>
       <use x="78.710938" xlink:href="#DejaVuSans-49"/>
       <use x="142.333984" xlink:href="#DejaVuSans-32"/>
       <use x="174.121094" xlink:href="#DejaVuSans-50"/>
       <use x="237.744141" xlink:href="#DejaVuSans-48"/>
       <use x="301.367188" xlink:href="#DejaVuSans-49"/>
       <use x="364.990234" xlink:href="#DejaVuSans-57"/>
      </g>
     </g>
    </g>
    <g id="xtick_18">
     <g id="line2d_35">
      <path clip-path="url(#p3ea2758802)" d="M 1060.988466 404.66175 
L 1060.988466 24.14175 
" style="fill:none;stroke:#ffffff;stroke-linecap:square;stroke-width:0.8;"/>
     </g>
     <g id="line2d_36">
      <g>
       <use style="fill:#555555;stroke:#555555;stroke-width:0.8;" x="1060.988466" xlink:href="#m26b3da6ab0" y="404.66175"/>
      </g>
     </g>
     <g id="text_18">
      <!-- Q3 2019 -->
      <g style="fill:#555555;" transform="translate(1039.557216 419.260187)scale(0.1 -0.1)">
       <use xlink:href="#DejaVuSans-81"/>
       <use x="78.710938" xlink:href="#DejaVuSans-51"/>
       <use x="142.333984" xlink:href="#DejaVuSans-32"/>
       <use x="174.121094" xlink:href="#DejaVuSans-50"/>
       <use x="237.744141" xlink:href="#DejaVuSans-48"/>
       <use x="301.367188" xlink:href="#DejaVuSans-49"/>
       <use x="364.990234" xlink:href="#DejaVuSans-57"/>
      </g>
     </g>
    </g>
    <g id="xtick_19">
     <g id="line2d_37">
      <path clip-path="url(#p3ea2758802)" d="M 1117.352102 404.66175 
L 1117.352102 24.14175 
" style="fill:none;stroke:#ffffff;stroke-linecap:square;stroke-width:0.8;"/>
     </g>
     <g id="line2d_38">
      <g>
       <use style="fill:#555555;stroke:#555555;stroke-width:0.8;" x="1117.352102" xlink:href="#m26b3da6ab0" y="404.66175"/>
      </g>
     </g>
     <g id="text_19">
      <!-- Q1 2020 -->
      <g style="fill:#555555;" transform="translate(1095.920852 419.260187)scale(0.1 -0.1)">
       <use xlink:href="#DejaVuSans-81"/>
       <use x="78.710938" xlink:href="#DejaVuSans-49"/>
       <use x="142.333984" xlink:href="#DejaVuSans-32"/>
       <use x="174.121094" xlink:href="#DejaVuSans-50"/>
       <use x="237.744141" xlink:href="#DejaVuSans-48"/>
       <use x="301.367188" xlink:href="#DejaVuSans-50"/>
       <use x="364.990234" xlink:href="#DejaVuSans-48"/>
      </g>
     </g>
    </g>
   </g>
   <g id="matplotlib.axis_2">
    <g id="ytick_1">
     <g id="line2d_39">
      <path clip-path="url(#p3ea2758802)" d="M 52.079375 384.963114 
L 1168.079375 384.963114 
" style="fill:none;stroke:#ffffff;stroke-linecap:square;stroke-width:0.8;"/>
     </g>
     <g id="line2d_40">
      <defs>
       <path d="M 0 0 
L -3.5 0 
" id="me3161d38da" style="stroke:#555555;stroke-width:0.8;"/>
      </defs>
      <g>
       <use style="fill:#555555;stroke:#555555;stroke-width:0.8;" x="52.079375" xlink:href="#me3161d38da" y="384.963114"/>
      </g>
     </g>
     <g id="text_20">
      <!-- 10.0 -->
      <g style="fill:#555555;" transform="translate(22.81375 388.762332)scale(0.1 -0.1)">
       <defs>
        <path d="M 10.6875 12.40625 
L 21 12.40625 
L 21 0 
L 10.6875 0 
z
" id="DejaVuSans-46"/>
       </defs>
       <use xlink:href="#DejaVuSans-49"/>
       <use x="63.623047" xlink:href="#DejaVuSans-48"/>
       <use x="127.246094" xlink:href="#DejaVuSans-46"/>
       <use x="159.033203" xlink:href="#DejaVuSans-48"/>
      </g>
     </g>
    </g>
    <g id="ytick_2">
     <g id="line2d_41">
      <path clip-path="url(#p3ea2758802)" d="M 52.079375 342.065386 
L 1168.079375 342.065386 
" style="fill:none;stroke:#ffffff;stroke-linecap:square;stroke-width:0.8;"/>
     </g>
     <g id="line2d_42">
      <g>
       <use style="fill:#555555;stroke:#555555;stroke-width:0.8;" x="52.079375" xlink:href="#me3161d38da" y="342.065386"/>
      </g>
     </g>
     <g id="text_21">
      <!-- 12.5 -->
      <g style="fill:#555555;" transform="translate(22.81375 345.864605)scale(0.1 -0.1)">
       <use xlink:href="#DejaVuSans-49"/>
       <use x="63.623047" xlink:href="#DejaVuSans-50"/>
       <use x="127.246094" xlink:href="#DejaVuSans-46"/>
       <use x="159.033203" xlink:href="#DejaVuSans-53"/>
      </g>
     </g>
    </g>
    <g id="ytick_3">
     <g id="line2d_43">
      <path clip-path="url(#p3ea2758802)" d="M 52.079375 299.167659 
L 1168.079375 299.167659 
" style="fill:none;stroke:#ffffff;stroke-linecap:square;stroke-width:0.8;"/>
     </g>
     <g id="line2d_44">
      <g>
       <use style="fill:#555555;stroke:#555555;stroke-width:0.8;" x="52.079375" xlink:href="#me3161d38da" y="299.167659"/>
      </g>
     </g>
     <g id="text_22">
      <!-- 15.0 -->
      <g style="fill:#555555;" transform="translate(22.81375 302.966878)scale(0.1 -0.1)">
       <use xlink:href="#DejaVuSans-49"/>
       <use x="63.623047" xlink:href="#DejaVuSans-53"/>
       <use x="127.246094" xlink:href="#DejaVuSans-46"/>
       <use x="159.033203" xlink:href="#DejaVuSans-48"/>
      </g>
     </g>
    </g>
    <g id="ytick_4">
     <g id="line2d_45">
      <path clip-path="url(#p3ea2758802)" d="M 52.079375 256.269932 
L 1168.079375 256.269932 
" style="fill:none;stroke:#ffffff;stroke-linecap:square;stroke-width:0.8;"/>
     </g>
     <g id="line2d_46">
      <g>
       <use style="fill:#555555;stroke:#555555;stroke-width:0.8;" x="52.079375" xlink:href="#me3161d38da" y="256.269932"/>
      </g>
     </g>
     <g id="text_23">
      <!-- 17.5 -->
      <g style="fill:#555555;" transform="translate(22.81375 260.069151)scale(0.1 -0.1)">
       <use xlink:href="#DejaVuSans-49"/>
       <use x="63.623047" xlink:href="#DejaVuSans-55"/>
       <use x="127.246094" xlink:href="#DejaVuSans-46"/>
       <use x="159.033203" xlink:href="#DejaVuSans-53"/>
      </g>
     </g>
    </g>
    <g id="ytick_5">
     <g id="line2d_47">
      <path clip-path="url(#p3ea2758802)" d="M 52.079375 213.372205 
L 1168.079375 213.372205 
" style="fill:none;stroke:#ffffff;stroke-linecap:square;stroke-width:0.8;"/>
     </g>
     <g id="line2d_48">
      <g>
       <use style="fill:#555555;stroke:#555555;stroke-width:0.8;" x="52.079375" xlink:href="#me3161d38da" y="213.372205"/>
      </g>
     </g>
     <g id="text_24">
      <!-- 20.0 -->
      <g style="fill:#555555;" transform="translate(22.81375 217.171423)scale(0.1 -0.1)">
       <use xlink:href="#DejaVuSans-50"/>
       <use x="63.623047" xlink:href="#DejaVuSans-48"/>
       <use x="127.246094" xlink:href="#DejaVuSans-46"/>
       <use x="159.033203" xlink:href="#DejaVuSans-48"/>
      </g>
     </g>
    </g>
    <g id="ytick_6">
     <g id="line2d_49">
      <path clip-path="url(#p3ea2758802)" d="M 52.079375 170.474477 
L 1168.079375 170.474477 
" style="fill:none;stroke:#ffffff;stroke-linecap:square;stroke-width:0.8;"/>
     </g>
     <g id="line2d_50">
      <g>
       <use style="fill:#555555;stroke:#555555;stroke-width:0.8;" x="52.079375" xlink:href="#me3161d38da" y="170.474477"/>
      </g>
     </g>
     <g id="text_25">
      <!-- 22.5 -->
      <g style="fill:#555555;" transform="translate(22.81375 174.273696)scale(0.1 -0.1)">
       <use xlink:href="#DejaVuSans-50"/>
       <use x="63.623047" xlink:href="#DejaVuSans-50"/>
       <use x="127.246094" xlink:href="#DejaVuSans-46"/>
       <use x="159.033203" xlink:href="#DejaVuSans-53"/>
      </g>
     </g>
    </g>
    <g id="ytick_7">
     <g id="line2d_51">
      <path clip-path="url(#p3ea2758802)" d="M 52.079375 127.57675 
L 1168.079375 127.57675 
" style="fill:none;stroke:#ffffff;stroke-linecap:square;stroke-width:0.8;"/>
     </g>
     <g id="line2d_52">
      <g>
       <use style="fill:#555555;stroke:#555555;stroke-width:0.8;" x="52.079375" xlink:href="#me3161d38da" y="127.57675"/>
      </g>
     </g>
     <g id="text_26">
      <!-- 25.0 -->
      <g style="fill:#555555;" transform="translate(22.81375 131.375969)scale(0.1 -0.1)">
       <use xlink:href="#DejaVuSans-50"/>
       <use x="63.623047" xlink:href="#DejaVuSans-53"/>
       <use x="127.246094" xlink:href="#DejaVuSans-46"/>
       <use x="159.033203" xlink:href="#DejaVuSans-48"/>
      </g>
     </g>
    </g>
    <g id="ytick_8">
     <g id="line2d_53">
      <path clip-path="url(#p3ea2758802)" d="M 52.079375 84.679023 
L 1168.079375 84.679023 
" style="fill:none;stroke:#ffffff;stroke-linecap:square;stroke-width:0.8;"/>
     </g>
     <g id="line2d_54">
      <g>
       <use style="fill:#555555;stroke:#555555;stroke-width:0.8;" x="52.079375" xlink:href="#me3161d38da" y="84.679023"/>
      </g>
     </g>
     <g id="text_27">
      <!-- 27.5 -->
      <g style="fill:#555555;" transform="translate(22.81375 88.478241)scale(0.1 -0.1)">
       <use xlink:href="#DejaVuSans-50"/>
       <use x="63.623047" xlink:href="#DejaVuSans-55"/>
       <use x="127.246094" xlink:href="#DejaVuSans-46"/>
       <use x="159.033203" xlink:href="#DejaVuSans-53"/>
      </g>
     </g>
    </g>
    <g id="ytick_9">
     <g id="line2d_55">
      <path clip-path="url(#p3ea2758802)" d="M 52.079375 41.781295 
L 1168.079375 41.781295 
" style="fill:none;stroke:#ffffff;stroke-linecap:square;stroke-width:0.8;"/>
     </g>
     <g id="line2d_56">
      <g>
       <use style="fill:#555555;stroke:#555555;stroke-width:0.8;" x="52.079375" xlink:href="#me3161d38da" y="41.781295"/>
      </g>
     </g>
     <g id="text_28">
      <!-- 30.0 -->
      <g style="fill:#555555;" transform="translate(22.81375 45.580514)scale(0.1 -0.1)">
       <use xlink:href="#DejaVuSans-51"/>
       <use x="63.623047" xlink:href="#DejaVuSans-48"/>
       <use x="127.246094" xlink:href="#DejaVuSans-46"/>
       <use x="159.033203" xlink:href="#DejaVuSans-48"/>
      </g>
     </g>
    </g>
    <g id="text_29">
     <!-- Total Population Living in Poverty (in million) -->
     <g style="fill:#555555;" transform="translate(16.318125 347.505187)rotate(-90)scale(0.12 -0.12)">
      <defs>
       <path d="M -0.296875 72.90625 
L 61.375 72.90625 
L 61.375 64.59375 
L 35.5 64.59375 
L 35.5 0 
L 25.59375 0 
L 25.59375 64.59375 
L -0.296875 64.59375 
z
" id="DejaVuSans-84"/>
       <path d="M 30.609375 48.390625 
Q 23.390625 48.390625 19.1875 42.75 
Q 14.984375 37.109375 14.984375 27.296875 
Q 14.984375 17.484375 19.15625 11.84375 
Q 23.34375 6.203125 30.609375 6.203125 
Q 37.796875 6.203125 41.984375 11.859375 
Q 46.1875 17.53125 46.1875 27.296875 
Q 46.1875 37.015625 41.984375 42.703125 
Q 37.796875 48.390625 30.609375 48.390625 
z
M 30.609375 56 
Q 42.328125 56 49.015625 48.375 
Q 55.71875 40.765625 55.71875 27.296875 
Q 55.71875 13.875 49.015625 6.21875 
Q 42.328125 -1.421875 30.609375 -1.421875 
Q 18.84375 -1.421875 12.171875 6.21875 
Q 5.515625 13.875 5.515625 27.296875 
Q 5.515625 40.765625 12.171875 48.375 
Q 18.84375 56 30.609375 56 
z
" id="DejaVuSans-111"/>
       <path d="M 18.3125 70.21875 
L 18.3125 54.6875 
L 36.8125 54.6875 
L 36.8125 47.703125 
L 18.3125 47.703125 
L 18.3125 18.015625 
Q 18.3125 11.328125 20.140625 9.421875 
Q 21.96875 7.515625 27.59375 7.515625 
L 36.8125 7.515625 
L 36.8125 0 
L 27.59375 0 
Q 17.1875 0 13.234375 3.875 
Q 9.28125 7.765625 9.28125 18.015625 
L 9.28125 47.703125 
L 2.6875 47.703125 
L 2.6875 54.6875 
L 9.28125 54.6875 
L 9.28125 70.21875 
z
" id="DejaVuSans-116"/>
       <path d="M 34.28125 27.484375 
Q 23.390625 27.484375 19.1875 25 
Q 14.984375 22.515625 14.984375 16.5 
Q 14.984375 11.71875 18.140625 8.90625 
Q 21.296875 6.109375 26.703125 6.109375 
Q 34.1875 6.109375 38.703125 11.40625 
Q 43.21875 16.703125 43.21875 25.484375 
L 43.21875 27.484375 
z
M 52.203125 31.203125 
L 52.203125 0 
L 43.21875 0 
L 43.21875 8.296875 
Q 40.140625 3.328125 35.546875 0.953125 
Q 30.953125 -1.421875 24.3125 -1.421875 
Q 15.921875 -1.421875 10.953125 3.296875 
Q 6 8.015625 6 15.921875 
Q 6 25.140625 12.171875 29.828125 
Q 18.359375 34.515625 30.609375 34.515625 
L 43.21875 34.515625 
L 43.21875 35.40625 
Q 43.21875 41.609375 39.140625 45 
Q 35.0625 48.390625 27.6875 48.390625 
Q 23 48.390625 18.546875 47.265625 
Q 14.109375 46.140625 10.015625 43.890625 
L 10.015625 52.203125 
Q 14.9375 54.109375 19.578125 55.046875 
Q 24.21875 56 28.609375 56 
Q 40.484375 56 46.34375 49.84375 
Q 52.203125 43.703125 52.203125 31.203125 
z
" id="DejaVuSans-97"/>
       <path d="M 9.421875 75.984375 
L 18.40625 75.984375 
L 18.40625 0 
L 9.421875 0 
z
" id="DejaVuSans-108"/>
       <path d="M 19.671875 64.796875 
L 19.671875 37.40625 
L 32.078125 37.40625 
Q 38.96875 37.40625 42.71875 40.96875 
Q 46.484375 44.53125 46.484375 51.125 
Q 46.484375 57.671875 42.71875 61.234375 
Q 38.96875 64.796875 32.078125 64.796875 
z
M 9.8125 72.90625 
L 32.078125 72.90625 
Q 44.34375 72.90625 50.609375 67.359375 
Q 56.890625 61.8125 56.890625 51.125 
Q 56.890625 40.328125 50.609375 34.8125 
Q 44.34375 29.296875 32.078125 29.296875 
L 19.671875 29.296875 
L 19.671875 0 
L 9.8125 0 
z
" id="DejaVuSans-80"/>
       <path d="M 18.109375 8.203125 
L 18.109375 -20.796875 
L 9.078125 -20.796875 
L 9.078125 54.6875 
L 18.109375 54.6875 
L 18.109375 46.390625 
Q 20.953125 51.265625 25.265625 53.625 
Q 29.59375 56 35.59375 56 
Q 45.5625 56 51.78125 48.09375 
Q 58.015625 40.1875 58.015625 27.296875 
Q 58.015625 14.40625 51.78125 6.484375 
Q 45.5625 -1.421875 35.59375 -1.421875 
Q 29.59375 -1.421875 25.265625 0.953125 
Q 20.953125 3.328125 18.109375 8.203125 
z
M 48.6875 27.296875 
Q 48.6875 37.203125 44.609375 42.84375 
Q 40.53125 48.484375 33.40625 48.484375 
Q 26.265625 48.484375 22.1875 42.84375 
Q 18.109375 37.203125 18.109375 27.296875 
Q 18.109375 17.390625 22.1875 11.75 
Q 26.265625 6.109375 33.40625 6.109375 
Q 40.53125 6.109375 44.609375 11.75 
Q 48.6875 17.390625 48.6875 27.296875 
z
" id="DejaVuSans-112"/>
       <path d="M 8.5 21.578125 
L 8.5 54.6875 
L 17.484375 54.6875 
L 17.484375 21.921875 
Q 17.484375 14.15625 20.5 10.265625 
Q 23.53125 6.390625 29.59375 6.390625 
Q 36.859375 6.390625 41.078125 11.03125 
Q 45.3125 15.671875 45.3125 23.6875 
L 45.3125 54.6875 
L 54.296875 54.6875 
L 54.296875 0 
L 45.3125 0 
L 45.3125 8.40625 
Q 42.046875 3.421875 37.71875 1 
Q 33.40625 -1.421875 27.6875 -1.421875 
Q 18.265625 -1.421875 13.375 4.4375 
Q 8.5 10.296875 8.5 21.578125 
z
M 31.109375 56 
z
" id="DejaVuSans-117"/>
       <path d="M 9.421875 54.6875 
L 18.40625 54.6875 
L 18.40625 0 
L 9.421875 0 
z
M 9.421875 75.984375 
L 18.40625 75.984375 
L 18.40625 64.59375 
L 9.421875 64.59375 
z
" id="DejaVuSans-105"/>
       <path d="M 54.890625 33.015625 
L 54.890625 0 
L 45.90625 0 
L 45.90625 32.71875 
Q 45.90625 40.484375 42.875 44.328125 
Q 39.84375 48.1875 33.796875 48.1875 
Q 26.515625 48.1875 22.3125 43.546875 
Q 18.109375 38.921875 18.109375 30.90625 
L 18.109375 0 
L 9.078125 0 
L 9.078125 54.6875 
L 18.109375 54.6875 
L 18.109375 46.1875 
Q 21.34375 51.125 25.703125 53.5625 
Q 30.078125 56 35.796875 56 
Q 45.21875 56 50.046875 50.171875 
Q 54.890625 44.34375 54.890625 33.015625 
z
" id="DejaVuSans-110"/>
       <path d="M 9.8125 72.90625 
L 19.671875 72.90625 
L 19.671875 8.296875 
L 55.171875 8.296875 
L 55.171875 0 
L 9.8125 0 
z
" id="DejaVuSans-76"/>
       <path d="M 2.984375 54.6875 
L 12.5 54.6875 
L 29.59375 8.796875 
L 46.6875 54.6875 
L 56.203125 54.6875 
L 35.6875 0 
L 23.484375 0 
z
" id="DejaVuSans-118"/>
       <path d="M 45.40625 27.984375 
Q 45.40625 37.75 41.375 43.109375 
Q 37.359375 48.484375 30.078125 48.484375 
Q 22.859375 48.484375 18.828125 43.109375 
Q 14.796875 37.75 14.796875 27.984375 
Q 14.796875 18.265625 18.828125 12.890625 
Q 22.859375 7.515625 30.078125 7.515625 
Q 37.359375 7.515625 41.375 12.890625 
Q 45.40625 18.265625 45.40625 27.984375 
z
M 54.390625 6.78125 
Q 54.390625 -7.171875 48.1875 -13.984375 
Q 42 -20.796875 29.203125 -20.796875 
Q 24.46875 -20.796875 20.265625 -20.09375 
Q 16.0625 -19.390625 12.109375 -17.921875 
L 12.109375 -9.1875 
Q 16.0625 -11.328125 19.921875 -12.34375 
Q 23.78125 -13.375 27.78125 -13.375 
Q 36.625 -13.375 41.015625 -8.765625 
Q 45.40625 -4.15625 45.40625 5.171875 
L 45.40625 9.625 
Q 42.625 4.78125 38.28125 2.390625 
Q 33.9375 0 27.875 0 
Q 17.828125 0 11.671875 7.65625 
Q 5.515625 15.328125 5.515625 27.984375 
Q 5.515625 40.671875 11.671875 48.328125 
Q 17.828125 56 27.875 56 
Q 33.9375 56 38.28125 53.609375 
Q 42.625 51.21875 45.40625 46.390625 
L 45.40625 54.6875 
L 54.390625 54.6875 
z
" id="DejaVuSans-103"/>
       <path d="M 56.203125 29.59375 
L 56.203125 25.203125 
L 14.890625 25.203125 
Q 15.484375 15.921875 20.484375 11.0625 
Q 25.484375 6.203125 34.421875 6.203125 
Q 39.59375 6.203125 44.453125 7.46875 
Q 49.3125 8.734375 54.109375 11.28125 
L 54.109375 2.78125 
Q 49.265625 0.734375 44.1875 -0.34375 
Q 39.109375 -1.421875 33.890625 -1.421875 
Q 20.796875 -1.421875 13.15625 6.1875 
Q 5.515625 13.8125 5.515625 26.8125 
Q 5.515625 40.234375 12.765625 48.109375 
Q 20.015625 56 32.328125 56 
Q 43.359375 56 49.78125 48.890625 
Q 56.203125 41.796875 56.203125 29.59375 
z
M 47.21875 32.234375 
Q 47.125 39.59375 43.09375 43.984375 
Q 39.0625 48.390625 32.421875 48.390625 
Q 24.90625 48.390625 20.390625 44.140625 
Q 15.875 39.890625 15.1875 32.171875 
z
" id="DejaVuSans-101"/>
       <path d="M 41.109375 46.296875 
Q 39.59375 47.171875 37.8125 47.578125 
Q 36.03125 48 33.890625 48 
Q 26.265625 48 22.1875 43.046875 
Q 18.109375 38.09375 18.109375 28.8125 
L 18.109375 0 
L 9.078125 0 
L 9.078125 54.6875 
L 18.109375 54.6875 
L 18.109375 46.1875 
Q 20.953125 51.171875 25.484375 53.578125 
Q 30.03125 56 36.53125 56 
Q 37.453125 56 38.578125 55.875 
Q 39.703125 55.765625 41.0625 55.515625 
z
" id="DejaVuSans-114"/>
       <path d="M 32.171875 -5.078125 
Q 28.375 -14.84375 24.75 -17.8125 
Q 21.140625 -20.796875 15.09375 -20.796875 
L 7.90625 -20.796875 
L 7.90625 -13.28125 
L 13.1875 -13.28125 
Q 16.890625 -13.28125 18.9375 -11.515625 
Q 21 -9.765625 23.484375 -3.21875 
L 25.09375 0.875 
L 2.984375 54.6875 
L 12.5 54.6875 
L 29.59375 11.921875 
L 46.6875 54.6875 
L 56.203125 54.6875 
z
" id="DejaVuSans-121"/>
       <path d="M 31 75.875 
Q 24.46875 64.65625 21.28125 53.65625 
Q 18.109375 42.671875 18.109375 31.390625 
Q 18.109375 20.125 21.3125 9.0625 
Q 24.515625 -2 31 -13.1875 
L 23.1875 -13.1875 
Q 15.875 -1.703125 12.234375 9.375 
Q 8.59375 20.453125 8.59375 31.390625 
Q 8.59375 42.28125 12.203125 53.3125 
Q 15.828125 64.359375 23.1875 75.875 
z
" id="DejaVuSans-40"/>
       <path d="M 52 44.1875 
Q 55.375 50.25 60.0625 53.125 
Q 64.75 56 71.09375 56 
Q 79.640625 56 84.28125 50.015625 
Q 88.921875 44.046875 88.921875 33.015625 
L 88.921875 0 
L 79.890625 0 
L 79.890625 32.71875 
Q 79.890625 40.578125 77.09375 44.375 
Q 74.3125 48.1875 68.609375 48.1875 
Q 61.625 48.1875 57.5625 43.546875 
Q 53.515625 38.921875 53.515625 30.90625 
L 53.515625 0 
L 44.484375 0 
L 44.484375 32.71875 
Q 44.484375 40.625 41.703125 44.40625 
Q 38.921875 48.1875 33.109375 48.1875 
Q 26.21875 48.1875 22.15625 43.53125 
Q 18.109375 38.875 18.109375 30.90625 
L 18.109375 0 
L 9.078125 0 
L 9.078125 54.6875 
L 18.109375 54.6875 
L 18.109375 46.1875 
Q 21.1875 51.21875 25.484375 53.609375 
Q 29.78125 56 35.6875 56 
Q 41.65625 56 45.828125 52.96875 
Q 50 49.953125 52 44.1875 
z
" id="DejaVuSans-109"/>
       <path d="M 8.015625 75.875 
L 15.828125 75.875 
Q 23.140625 64.359375 26.78125 53.3125 
Q 30.421875 42.28125 30.421875 31.390625 
Q 30.421875 20.453125 26.78125 9.375 
Q 23.140625 -1.703125 15.828125 -13.1875 
L 8.015625 -13.1875 
Q 14.5 -2 17.703125 9.0625 
Q 20.90625 20.125 20.90625 31.390625 
Q 20.90625 42.671875 17.703125 53.65625 
Q 14.5 64.65625 8.015625 75.875 
z
" id="DejaVuSans-41"/>
      </defs>
      <use xlink:href="#DejaVuSans-84"/>
      <use x="44.083984" xlink:href="#DejaVuSans-111"/>
      <use x="105.265625" xlink:href="#DejaVuSans-116"/>
      <use x="144.474609" xlink:href="#DejaVuSans-97"/>
      <use x="205.753906" xlink:href="#DejaVuSans-108"/>
      <use x="233.537109" xlink:href="#DejaVuSans-32"/>
      <use x="265.324219" xlink:href="#DejaVuSans-80"/>
      <use x="322.001953" xlink:href="#DejaVuSans-111"/>
      <use x="383.183594" xlink:href="#DejaVuSans-112"/>
      <use x="446.660156" xlink:href="#DejaVuSans-117"/>
      <use x="510.039062" xlink:href="#DejaVuSans-108"/>
      <use x="537.822266" xlink:href="#DejaVuSans-97"/>
      <use x="599.101562" xlink:href="#DejaVuSans-116"/>
      <use x="638.310547" xlink:href="#DejaVuSans-105"/>
      <use x="666.09375" xlink:href="#DejaVuSans-111"/>
      <use x="727.275391" xlink:href="#DejaVuSans-110"/>
      <use x="790.654297" xlink:href="#DejaVuSans-32"/>
      <use x="822.441406" xlink:href="#DejaVuSans-76"/>
      <use x="878.154297" xlink:href="#DejaVuSans-105"/>
      <use x="905.9375" xlink:href="#DejaVuSans-118"/>
      <use x="965.117188" xlink:href="#DejaVuSans-105"/>
      <use x="992.900391" xlink:href="#DejaVuSans-110"/>
      <use x="1056.279297" xlink:href="#DejaVuSans-103"/>
      <use x="1119.755859" xlink:href="#DejaVuSans-32"/>
      <use x="1151.542969" xlink:href="#DejaVuSans-105"/>
      <use x="1179.326172" xlink:href="#DejaVuSans-110"/>
      <use x="1242.705078" xlink:href="#DejaVuSans-32"/>
      <use x="1274.492188" xlink:href="#DejaVuSans-80"/>
      <use x="1331.169922" xlink:href="#DejaVuSans-111"/>
      <use x="1392.351562" xlink:href="#DejaVuSans-118"/>
      <use x="1451.53125" xlink:href="#DejaVuSans-101"/>
      <use x="1513.054688" xlink:href="#DejaVuSans-114"/>
      <use x="1554.167969" xlink:href="#DejaVuSans-116"/>
      <use x="1593.376953" xlink:href="#DejaVuSans-121"/>
      <use x="1652.556641" xlink:href="#DejaVuSans-32"/>
      <use x="1684.34375" xlink:href="#DejaVuSans-40"/>
      <use x="1723.357422" xlink:href="#DejaVuSans-105"/>
      <use x="1751.140625" xlink:href="#DejaVuSans-110"/>
      <use x="1814.519531" xlink:href="#DejaVuSans-32"/>
      <use x="1846.306641" xlink:href="#DejaVuSans-109"/>
      <use x="1943.71875" xlink:href="#DejaVuSans-105"/>
      <use x="1971.501953" xlink:href="#DejaVuSans-108"/>
      <use x="1999.285156" xlink:href="#DejaVuSans-108"/>
      <use x="2027.068359" xlink:href="#DejaVuSans-105"/>
      <use x="2054.851562" xlink:href="#DejaVuSans-111"/>
      <use x="2116.033203" xlink:href="#DejaVuSans-110"/>
      <use x="2179.412109" xlink:href="#DejaVuSans-41"/>
     </g>
    </g>
   </g>
   <g id="line2d_57">
    <path clip-path="url(#p3ea2758802)" d="M 102.806648 366.946068 
L 159.170284 368.661977 
L 215.53392 373.809705 
L 271.897557 376.211977 
L 328.261193 379.300614 
L 384.62483 374.152886 
L 440.988466 376.211977 
L 497.352102 378.785841 
L 553.715739 373.809705 
L 610.079375 374.324477 
L 666.443011 379.129023 
L 722.806648 376.555159 
L 779.170284 373.466523 
L 835.53392 380.330159 
L 891.897557 382.560841 
L 948.261193 382.732432 
L 1004.62483 385.134705 
L 1060.988466 387.365386 
L 1117.352102 365.058568 
" style="fill:none;stroke:#e24a33;stroke-dasharray:5.55,2.4;stroke-dashoffset:0;stroke-width:1.5;"/>
    <defs>
     <path d="M 0 6 
C 1.591219 6 3.117479 5.367802 4.242641 4.242641 
C 5.367802 3.117479 6 1.591219 6 0 
C 6 -1.591219 5.367802 -3.117479 4.242641 -4.242641 
C 3.117479 -5.367802 1.591219 -6 0 -6 
C -1.591219 -6 -3.117479 -5.367802 -4.242641 -4.242641 
C -5.367802 -3.117479 -6 -1.591219 -6 0 
C -6 1.591219 -5.367802 3.117479 -4.242641 4.242641 
C -3.117479 5.367802 -1.591219 6 0 6 
z
" id="mb67b8bd11e" style="stroke:#e24a33;"/>
    </defs>
    <g clip-path="url(#p3ea2758802)">
     <use style="fill:#e24a33;stroke:#e24a33;" x="102.806648" xlink:href="#mb67b8bd11e" y="366.946068"/>
     <use style="fill:#e24a33;stroke:#e24a33;" x="159.170284" xlink:href="#mb67b8bd11e" y="368.661977"/>
     <use style="fill:#e24a33;stroke:#e24a33;" x="215.53392" xlink:href="#mb67b8bd11e" y="373.809705"/>
     <use style="fill:#e24a33;stroke:#e24a33;" x="271.897557" xlink:href="#mb67b8bd11e" y="376.211977"/>
     <use style="fill:#e24a33;stroke:#e24a33;" x="328.261193" xlink:href="#mb67b8bd11e" y="379.300614"/>
     <use style="fill:#e24a33;stroke:#e24a33;" x="384.62483" xlink:href="#mb67b8bd11e" y="374.152886"/>
     <use style="fill:#e24a33;stroke:#e24a33;" x="440.988466" xlink:href="#mb67b8bd11e" y="376.211977"/>
     <use style="fill:#e24a33;stroke:#e24a33;" x="497.352102" xlink:href="#mb67b8bd11e" y="378.785841"/>
     <use style="fill:#e24a33;stroke:#e24a33;" x="553.715739" xlink:href="#mb67b8bd11e" y="373.809705"/>
     <use style="fill:#e24a33;stroke:#e24a33;" x="610.079375" xlink:href="#mb67b8bd11e" y="374.324477"/>
     <use style="fill:#e24a33;stroke:#e24a33;" x="666.443011" xlink:href="#mb67b8bd11e" y="379.129023"/>
     <use style="fill:#e24a33;stroke:#e24a33;" x="722.806648" xlink:href="#mb67b8bd11e" y="376.555159"/>
     <use style="fill:#e24a33;stroke:#e24a33;" x="779.170284" xlink:href="#mb67b8bd11e" y="373.466523"/>
     <use style="fill:#e24a33;stroke:#e24a33;" x="835.53392" xlink:href="#mb67b8bd11e" y="380.330159"/>
     <use style="fill:#e24a33;stroke:#e24a33;" x="891.897557" xlink:href="#mb67b8bd11e" y="382.560841"/>
     <use style="fill:#e24a33;stroke:#e24a33;" x="948.261193" xlink:href="#mb67b8bd11e" y="382.732432"/>
     <use style="fill:#e24a33;stroke:#e24a33;" x="1004.62483" xlink:href="#mb67b8bd11e" y="385.134705"/>
     <use style="fill:#e24a33;stroke:#e24a33;" x="1060.988466" xlink:href="#mb67b8bd11e" y="387.365386"/>
     <use style="fill:#e24a33;stroke:#e24a33;" x="1117.352102" xlink:href="#mb67b8bd11e" y="365.058568"/>
    </g>
   </g>
   <g id="line2d_58">
    <path clip-path="url(#p3ea2758802)" d="M 102.806648 231.046068 
L 159.170284 231.560841 
L 215.53392 239.282432 
L 271.897557 246.146068 
L 328.261193 252.15175 
L 384.62483 249.063114 
L 440.988466 251.636977 
L 497.352102 258.500614 
L 553.715739 248.719932 
L 610.079375 249.577886 
L 666.443011 253.352886 
L 722.806648 260.044932 
L 779.170284 263.133568 
L 835.53392 276.68925 
L 891.897557 285.268795 
L 948.261193 289.90175 
L 1004.62483 296.593795 
L 1060.988466 300.368795 
L 1117.352102 294.706295 
" style="fill:none;stroke:#348abd;stroke-dasharray:5.55,2.4;stroke-dashoffset:0;stroke-width:1.5;"/>
    <defs>
     <path d="M 0 6 
C 1.591219 6 3.117479 5.367802 4.242641 4.242641 
C 5.367802 3.117479 6 1.591219 6 0 
C 6 -1.591219 5.367802 -3.117479 4.242641 -4.242641 
C 3.117479 -5.367802 1.591219 -6 0 -6 
C -1.591219 -6 -3.117479 -5.367802 -4.242641 -4.242641 
C -5.367802 -3.117479 -6 -1.591219 -6 0 
C -6 1.591219 -5.367802 3.117479 -4.242641 4.242641 
C -3.117479 5.367802 -1.591219 6 0 6 
z
" id="mf3839947e9" style="stroke:#348abd;"/>
    </defs>
    <g clip-path="url(#p3ea2758802)">
     <use style="fill:#348abd;stroke:#348abd;" x="102.806648" xlink:href="#mf3839947e9" y="231.046068"/>
     <use style="fill:#348abd;stroke:#348abd;" x="159.170284" xlink:href="#mf3839947e9" y="231.560841"/>
     <use style="fill:#348abd;stroke:#348abd;" x="215.53392" xlink:href="#mf3839947e9" y="239.282432"/>
     <use style="fill:#348abd;stroke:#348abd;" x="271.897557" xlink:href="#mf3839947e9" y="246.146068"/>
     <use style="fill:#348abd;stroke:#348abd;" x="328.261193" xlink:href="#mf3839947e9" y="252.15175"/>
     <use style="fill:#348abd;stroke:#348abd;" x="384.62483" xlink:href="#mf3839947e9" y="249.063114"/>
     <use style="fill:#348abd;stroke:#348abd;" x="440.988466" xlink:href="#mf3839947e9" y="251.636977"/>
     <use style="fill:#348abd;stroke:#348abd;" x="497.352102" xlink:href="#mf3839947e9" y="258.500614"/>
     <use style="fill:#348abd;stroke:#348abd;" x="553.715739" xlink:href="#mf3839947e9" y="248.719932"/>
     <use style="fill:#348abd;stroke:#348abd;" x="610.079375" xlink:href="#mf3839947e9" y="249.577886"/>
     <use style="fill:#348abd;stroke:#348abd;" x="666.443011" xlink:href="#mf3839947e9" y="253.352886"/>
     <use style="fill:#348abd;stroke:#348abd;" x="722.806648" xlink:href="#mf3839947e9" y="260.044932"/>
     <use style="fill:#348abd;stroke:#348abd;" x="779.170284" xlink:href="#mf3839947e9" y="263.133568"/>
     <use style="fill:#348abd;stroke:#348abd;" x="835.53392" xlink:href="#mf3839947e9" y="276.68925"/>
     <use style="fill:#348abd;stroke:#348abd;" x="891.897557" xlink:href="#mf3839947e9" y="285.268795"/>
     <use style="fill:#348abd;stroke:#348abd;" x="948.261193" xlink:href="#mf3839947e9" y="289.90175"/>
     <use style="fill:#348abd;stroke:#348abd;" x="1004.62483" xlink:href="#mf3839947e9" y="296.593795"/>
     <use style="fill:#348abd;stroke:#348abd;" x="1060.988466" xlink:href="#mf3839947e9" y="300.368795"/>
     <use style="fill:#348abd;stroke:#348abd;" x="1117.352102" xlink:href="#mf3839947e9" y="294.706295"/>
    </g>
   </g>
   <g id="line2d_59">
    <path clip-path="url(#p3ea2758802)" d="M 102.806648 41.438114 
L 159.170284 43.668795 
L 215.53392 56.709705 
L 271.897557 65.975614 
L 328.261193 74.898341 
L 384.62483 66.661977 
L 440.988466 71.294932 
L 497.352102 80.732432 
L 553.715739 65.975614 
L 610.079375 67.348341 
L 666.443011 75.927886 
L 722.806648 80.046068 
L 779.170284 80.046068 
L 835.53392 100.465386 
L 891.897557 111.275614 
L 948.261193 116.080159 
L 1004.62483 125.174477 
L 1060.988466 131.180159 
L 1117.352102 103.210841 
" style="fill:none;stroke:#988ed5;stroke-dasharray:5.55,2.4;stroke-dashoffset:0;stroke-width:1.5;"/>
    <defs>
     <path d="M 0 6 
C 1.591219 6 3.117479 5.367802 4.242641 4.242641 
C 5.367802 3.117479 6 1.591219 6 0 
C 6 -1.591219 5.367802 -3.117479 4.242641 -4.242641 
C 3.117479 -5.367802 1.591219 -6 0 -6 
C -1.591219 -6 -3.117479 -5.367802 -4.242641 -4.242641 
C -5.367802 -3.117479 -6 -1.591219 -6 0 
C -6 1.591219 -5.367802 3.117479 -4.242641 4.242641 
C -3.117479 5.367802 -1.591219 6 0 6 
z
" id="m80062d772b" style="stroke:#988ed5;"/>
    </defs>
    <g clip-path="url(#p3ea2758802)">
     <use style="fill:#988ed5;stroke:#988ed5;" x="102.806648" xlink:href="#m80062d772b" y="41.438114"/>
     <use style="fill:#988ed5;stroke:#988ed5;" x="159.170284" xlink:href="#m80062d772b" y="43.668795"/>
     <use style="fill:#988ed5;stroke:#988ed5;" x="215.53392" xlink:href="#m80062d772b" y="56.709705"/>
     <use style="fill:#988ed5;stroke:#988ed5;" x="271.897557" xlink:href="#m80062d772b" y="65.975614"/>
     <use style="fill:#988ed5;stroke:#988ed5;" x="328.261193" xlink:href="#m80062d772b" y="74.898341"/>
     <use style="fill:#988ed5;stroke:#988ed5;" x="384.62483" xlink:href="#m80062d772b" y="66.661977"/>
     <use style="fill:#988ed5;stroke:#988ed5;" x="440.988466" xlink:href="#m80062d772b" y="71.294932"/>
     <use style="fill:#988ed5;stroke:#988ed5;" x="497.352102" xlink:href="#m80062d772b" y="80.732432"/>
     <use style="fill:#988ed5;stroke:#988ed5;" x="553.715739" xlink:href="#m80062d772b" y="65.975614"/>
     <use style="fill:#988ed5;stroke:#988ed5;" x="610.079375" xlink:href="#m80062d772b" y="67.348341"/>
     <use style="fill:#988ed5;stroke:#988ed5;" x="666.443011" xlink:href="#m80062d772b" y="75.927886"/>
     <use style="fill:#988ed5;stroke:#988ed5;" x="722.806648" xlink:href="#m80062d772b" y="80.046068"/>
     <use style="fill:#988ed5;stroke:#988ed5;" x="779.170284" xlink:href="#m80062d772b" y="80.046068"/>
     <use style="fill:#988ed5;stroke:#988ed5;" x="835.53392" xlink:href="#m80062d772b" y="100.465386"/>
     <use style="fill:#988ed5;stroke:#988ed5;" x="891.897557" xlink:href="#m80062d772b" y="111.275614"/>
     <use style="fill:#988ed5;stroke:#988ed5;" x="948.261193" xlink:href="#m80062d772b" y="116.080159"/>
     <use style="fill:#988ed5;stroke:#988ed5;" x="1004.62483" xlink:href="#m80062d772b" y="125.174477"/>
     <use style="fill:#988ed5;stroke:#988ed5;" x="1060.988466" xlink:href="#m80062d772b" y="131.180159"/>
     <use style="fill:#988ed5;stroke:#988ed5;" x="1117.352102" xlink:href="#m80062d772b" y="103.210841"/>
    </g>
   </g>
   <g id="patch_3">
    <path d="M 52.079375 404.66175 
L 52.079375 24.14175 
" style="fill:none;stroke:#ffffff;stroke-linecap:square;stroke-linejoin:miter;"/>
   </g>
   <g id="patch_4">
    <path d="M 1168.079375 404.66175 
L 1168.079375 24.14175 
" style="fill:none;stroke:#ffffff;stroke-linecap:square;stroke-linejoin:miter;"/>
   </g>
   <g id="patch_5">
    <path d="M 52.079375 404.66175 
L 1168.079375 404.66175 
" style="fill:none;stroke:#ffffff;stroke-linecap:square;stroke-linejoin:miter;"/>
   </g>
   <g id="patch_6">
    <path d="M 52.079375 24.14175 
L 1168.079375 24.14175 
" style="fill:none;stroke:#ffffff;stroke-linecap:square;stroke-linejoin:miter;"/>
   </g>
   <g id="text_30">
    <!-- 11.05 -->
    <g transform="translate(102.806648 366.946068)scale(0.1 -0.1)">
     <use xlink:href="#DejaVuSans-49"/>
     <use x="63.623047" xlink:href="#DejaVuSans-49"/>
     <use x="127.246094" xlink:href="#DejaVuSans-46"/>
     <use x="159.033203" xlink:href="#DejaVuSans-48"/>
     <use x="222.65625" xlink:href="#DejaVuSans-53"/>
    </g>
   </g>
   <g id="text_31">
    <!-- 10.95 -->
    <g transform="translate(159.170284 368.661977)scale(0.1 -0.1)">
     <use xlink:href="#DejaVuSans-49"/>
     <use x="63.623047" xlink:href="#DejaVuSans-48"/>
     <use x="127.246094" xlink:href="#DejaVuSans-46"/>
     <use x="159.033203" xlink:href="#DejaVuSans-57"/>
     <use x="222.65625" xlink:href="#DejaVuSans-53"/>
    </g>
   </g>
   <g id="text_32">
    <!-- 10.65 -->
    <g transform="translate(215.53392 373.809705)scale(0.1 -0.1)">
     <use xlink:href="#DejaVuSans-49"/>
     <use x="63.623047" xlink:href="#DejaVuSans-48"/>
     <use x="127.246094" xlink:href="#DejaVuSans-46"/>
     <use x="159.033203" xlink:href="#DejaVuSans-54"/>
     <use x="222.65625" xlink:href="#DejaVuSans-53"/>
    </g>
   </g>
   <g id="text_33">
    <!-- 10.51 -->
    <g transform="translate(271.897557 376.211977)scale(0.1 -0.1)">
     <use xlink:href="#DejaVuSans-49"/>
     <use x="63.623047" xlink:href="#DejaVuSans-48"/>
     <use x="127.246094" xlink:href="#DejaVuSans-46"/>
     <use x="159.033203" xlink:href="#DejaVuSans-53"/>
     <use x="222.65625" xlink:href="#DejaVuSans-49"/>
    </g>
   </g>
   <g id="text_34">
    <!-- 10.33 -->
    <g transform="translate(328.261193 379.300614)scale(0.1 -0.1)">
     <use xlink:href="#DejaVuSans-49"/>
     <use x="63.623047" xlink:href="#DejaVuSans-48"/>
     <use x="127.246094" xlink:href="#DejaVuSans-46"/>
     <use x="159.033203" xlink:href="#DejaVuSans-51"/>
     <use x="222.65625" xlink:href="#DejaVuSans-51"/>
    </g>
   </g>
   <g id="text_35">
    <!-- 10.63 -->
    <g transform="translate(384.62483 374.152886)scale(0.1 -0.1)">
     <use xlink:href="#DejaVuSans-49"/>
     <use x="63.623047" xlink:href="#DejaVuSans-48"/>
     <use x="127.246094" xlink:href="#DejaVuSans-46"/>
     <use x="159.033203" xlink:href="#DejaVuSans-54"/>
     <use x="222.65625" xlink:href="#DejaVuSans-51"/>
    </g>
   </g>
   <g id="text_36">
    <!-- 10.51 -->
    <g transform="translate(440.988466 376.211977)scale(0.1 -0.1)">
     <use xlink:href="#DejaVuSans-49"/>
     <use x="63.623047" xlink:href="#DejaVuSans-48"/>
     <use x="127.246094" xlink:href="#DejaVuSans-46"/>
     <use x="159.033203" xlink:href="#DejaVuSans-53"/>
     <use x="222.65625" xlink:href="#DejaVuSans-49"/>
    </g>
   </g>
   <g id="text_37">
    <!-- 10.36 -->
    <g transform="translate(497.352102 378.785841)scale(0.1 -0.1)">
     <use xlink:href="#DejaVuSans-49"/>
     <use x="63.623047" xlink:href="#DejaVuSans-48"/>
     <use x="127.246094" xlink:href="#DejaVuSans-46"/>
     <use x="159.033203" xlink:href="#DejaVuSans-51"/>
     <use x="222.65625" xlink:href="#DejaVuSans-54"/>
    </g>
   </g>
   <g id="text_38">
    <!-- 10.65 -->
    <g transform="translate(553.715739 373.809705)scale(0.1 -0.1)">
     <use xlink:href="#DejaVuSans-49"/>
     <use x="63.623047" xlink:href="#DejaVuSans-48"/>
     <use x="127.246094" xlink:href="#DejaVuSans-46"/>
     <use x="159.033203" xlink:href="#DejaVuSans-54"/>
     <use x="222.65625" xlink:href="#DejaVuSans-53"/>
    </g>
   </g>
   <g id="text_39">
    <!-- 10.62 -->
    <g transform="translate(610.079375 374.324477)scale(0.1 -0.1)">
     <use xlink:href="#DejaVuSans-49"/>
     <use x="63.623047" xlink:href="#DejaVuSans-48"/>
     <use x="127.246094" xlink:href="#DejaVuSans-46"/>
     <use x="159.033203" xlink:href="#DejaVuSans-54"/>
     <use x="222.65625" xlink:href="#DejaVuSans-50"/>
    </g>
   </g>
   <g id="text_40">
    <!-- 10.34 -->
    <g transform="translate(666.443011 379.129023)scale(0.1 -0.1)">
     <use xlink:href="#DejaVuSans-49"/>
     <use x="63.623047" xlink:href="#DejaVuSans-48"/>
     <use x="127.246094" xlink:href="#DejaVuSans-46"/>
     <use x="159.033203" xlink:href="#DejaVuSans-51"/>
     <use x="222.65625" xlink:href="#DejaVuSans-52"/>
    </g>
   </g>
   <g id="text_41">
    <!-- 10.49 -->
    <g transform="translate(722.806648 376.555159)scale(0.1 -0.1)">
     <use xlink:href="#DejaVuSans-49"/>
     <use x="63.623047" xlink:href="#DejaVuSans-48"/>
     <use x="127.246094" xlink:href="#DejaVuSans-46"/>
     <use x="159.033203" xlink:href="#DejaVuSans-52"/>
     <use x="222.65625" xlink:href="#DejaVuSans-57"/>
    </g>
   </g>
   <g id="text_42">
    <!-- 10.67 -->
    <g transform="translate(779.170284 373.466523)scale(0.1 -0.1)">
     <use xlink:href="#DejaVuSans-49"/>
     <use x="63.623047" xlink:href="#DejaVuSans-48"/>
     <use x="127.246094" xlink:href="#DejaVuSans-46"/>
     <use x="159.033203" xlink:href="#DejaVuSans-54"/>
     <use x="222.65625" xlink:href="#DejaVuSans-55"/>
    </g>
   </g>
   <g id="text_43">
    <!-- 10.27 -->
    <g transform="translate(835.53392 380.330159)scale(0.1 -0.1)">
     <use xlink:href="#DejaVuSans-49"/>
     <use x="63.623047" xlink:href="#DejaVuSans-48"/>
     <use x="127.246094" xlink:href="#DejaVuSans-46"/>
     <use x="159.033203" xlink:href="#DejaVuSans-50"/>
     <use x="222.65625" xlink:href="#DejaVuSans-55"/>
    </g>
   </g>
   <g id="text_44">
    <!-- 10.14 -->
    <g transform="translate(891.897557 382.560841)scale(0.1 -0.1)">
     <use xlink:href="#DejaVuSans-49"/>
     <use x="63.623047" xlink:href="#DejaVuSans-48"/>
     <use x="127.246094" xlink:href="#DejaVuSans-46"/>
     <use x="159.033203" xlink:href="#DejaVuSans-49"/>
     <use x="222.65625" xlink:href="#DejaVuSans-52"/>
    </g>
   </g>
   <g id="text_45">
    <!-- 10.13 -->
    <g transform="translate(948.261193 382.732432)scale(0.1 -0.1)">
     <use xlink:href="#DejaVuSans-49"/>
     <use x="63.623047" xlink:href="#DejaVuSans-48"/>
     <use x="127.246094" xlink:href="#DejaVuSans-46"/>
     <use x="159.033203" xlink:href="#DejaVuSans-49"/>
     <use x="222.65625" xlink:href="#DejaVuSans-51"/>
    </g>
   </g>
   <g id="text_46">
    <!-- 9.99 -->
    <g transform="translate(1004.62483 385.134705)scale(0.1 -0.1)">
     <use xlink:href="#DejaVuSans-57"/>
     <use x="63.623047" xlink:href="#DejaVuSans-46"/>
     <use x="95.410156" xlink:href="#DejaVuSans-57"/>
     <use x="159.033203" xlink:href="#DejaVuSans-57"/>
    </g>
   </g>
   <g id="text_47">
    <!-- 9.86 -->
    <g transform="translate(1060.988466 387.365386)scale(0.1 -0.1)">
     <use xlink:href="#DejaVuSans-57"/>
     <use x="63.623047" xlink:href="#DejaVuSans-46"/>
     <use x="95.410156" xlink:href="#DejaVuSans-56"/>
     <use x="159.033203" xlink:href="#DejaVuSans-54"/>
    </g>
   </g>
   <g id="text_48">
    <!-- 11.16 -->
    <g transform="translate(1117.352102 365.058568)scale(0.1 -0.1)">
     <use xlink:href="#DejaVuSans-49"/>
     <use x="63.623047" xlink:href="#DejaVuSans-49"/>
     <use x="127.246094" xlink:href="#DejaVuSans-46"/>
     <use x="159.033203" xlink:href="#DejaVuSans-49"/>
     <use x="222.65625" xlink:href="#DejaVuSans-54"/>
    </g>
   </g>
   <g id="text_49">
    <!-- 18.97 -->
    <g transform="translate(102.806648 231.046068)scale(0.1 -0.1)">
     <use xlink:href="#DejaVuSans-49"/>
     <use x="63.623047" xlink:href="#DejaVuSans-56"/>
     <use x="127.246094" xlink:href="#DejaVuSans-46"/>
     <use x="159.033203" xlink:href="#DejaVuSans-57"/>
     <use x="222.65625" xlink:href="#DejaVuSans-55"/>
    </g>
   </g>
   <g id="text_50">
    <!-- 18.94 -->
    <g transform="translate(159.170284 231.560841)scale(0.1 -0.1)">
     <use xlink:href="#DejaVuSans-49"/>
     <use x="63.623047" xlink:href="#DejaVuSans-56"/>
     <use x="127.246094" xlink:href="#DejaVuSans-46"/>
     <use x="159.033203" xlink:href="#DejaVuSans-57"/>
     <use x="222.65625" xlink:href="#DejaVuSans-52"/>
    </g>
   </g>
   <g id="text_51">
    <!-- 18.49 -->
    <g transform="translate(215.53392 239.282432)scale(0.1 -0.1)">
     <use xlink:href="#DejaVuSans-49"/>
     <use x="63.623047" xlink:href="#DejaVuSans-56"/>
     <use x="127.246094" xlink:href="#DejaVuSans-46"/>
     <use x="159.033203" xlink:href="#DejaVuSans-52"/>
     <use x="222.65625" xlink:href="#DejaVuSans-57"/>
    </g>
   </g>
   <g id="text_52">
    <!-- 18.09 -->
    <g transform="translate(271.897557 246.146068)scale(0.1 -0.1)">
     <use xlink:href="#DejaVuSans-49"/>
     <use x="63.623047" xlink:href="#DejaVuSans-56"/>
     <use x="127.246094" xlink:href="#DejaVuSans-46"/>
     <use x="159.033203" xlink:href="#DejaVuSans-48"/>
     <use x="222.65625" xlink:href="#DejaVuSans-57"/>
    </g>
   </g>
   <g id="text_53">
    <!-- 17.74 -->
    <g transform="translate(328.261193 252.15175)scale(0.1 -0.1)">
     <use xlink:href="#DejaVuSans-49"/>
     <use x="63.623047" xlink:href="#DejaVuSans-55"/>
     <use x="127.246094" xlink:href="#DejaVuSans-46"/>
     <use x="159.033203" xlink:href="#DejaVuSans-55"/>
     <use x="222.65625" xlink:href="#DejaVuSans-52"/>
    </g>
   </g>
   <g id="text_54">
    <!-- 17.92 -->
    <g transform="translate(384.62483 249.063114)scale(0.1 -0.1)">
     <use xlink:href="#DejaVuSans-49"/>
     <use x="63.623047" xlink:href="#DejaVuSans-55"/>
     <use x="127.246094" xlink:href="#DejaVuSans-46"/>
     <use x="159.033203" xlink:href="#DejaVuSans-57"/>
     <use x="222.65625" xlink:href="#DejaVuSans-50"/>
    </g>
   </g>
   <g id="text_55">
    <!-- 17.77 -->
    <g transform="translate(440.988466 251.636977)scale(0.1 -0.1)">
     <use xlink:href="#DejaVuSans-49"/>
     <use x="63.623047" xlink:href="#DejaVuSans-55"/>
     <use x="127.246094" xlink:href="#DejaVuSans-46"/>
     <use x="159.033203" xlink:href="#DejaVuSans-55"/>
     <use x="222.65625" xlink:href="#DejaVuSans-55"/>
    </g>
   </g>
   <g id="text_56">
    <!-- 17.37 -->
    <g transform="translate(497.352102 258.500614)scale(0.1 -0.1)">
     <use xlink:href="#DejaVuSans-49"/>
     <use x="63.623047" xlink:href="#DejaVuSans-55"/>
     <use x="127.246094" xlink:href="#DejaVuSans-46"/>
     <use x="159.033203" xlink:href="#DejaVuSans-51"/>
     <use x="222.65625" xlink:href="#DejaVuSans-55"/>
    </g>
   </g>
   <g id="text_57">
    <!-- 17.94 -->
    <g transform="translate(553.715739 248.719932)scale(0.1 -0.1)">
     <use xlink:href="#DejaVuSans-49"/>
     <use x="63.623047" xlink:href="#DejaVuSans-55"/>
     <use x="127.246094" xlink:href="#DejaVuSans-46"/>
     <use x="159.033203" xlink:href="#DejaVuSans-57"/>
     <use x="222.65625" xlink:href="#DejaVuSans-52"/>
    </g>
   </g>
   <g id="text_58">
    <!-- 17.89 -->
    <g transform="translate(610.079375 249.577886)scale(0.1 -0.1)">
     <use xlink:href="#DejaVuSans-49"/>
     <use x="63.623047" xlink:href="#DejaVuSans-55"/>
     <use x="127.246094" xlink:href="#DejaVuSans-46"/>
     <use x="159.033203" xlink:href="#DejaVuSans-56"/>
     <use x="222.65625" xlink:href="#DejaVuSans-57"/>
    </g>
   </g>
   <g id="text_59">
    <!-- 17.67 -->
    <g transform="translate(666.443011 253.352886)scale(0.1 -0.1)">
     <use xlink:href="#DejaVuSans-49"/>
     <use x="63.623047" xlink:href="#DejaVuSans-55"/>
     <use x="127.246094" xlink:href="#DejaVuSans-46"/>
     <use x="159.033203" xlink:href="#DejaVuSans-54"/>
     <use x="222.65625" xlink:href="#DejaVuSans-55"/>
    </g>
   </g>
   <g id="text_60">
    <!-- 17.28 -->
    <g transform="translate(722.806648 260.044932)scale(0.1 -0.1)">
     <use xlink:href="#DejaVuSans-49"/>
     <use x="63.623047" xlink:href="#DejaVuSans-55"/>
     <use x="127.246094" xlink:href="#DejaVuSans-46"/>
     <use x="159.033203" xlink:href="#DejaVuSans-50"/>
     <use x="222.65625" xlink:href="#DejaVuSans-56"/>
    </g>
   </g>
   <g id="text_61">
    <!-- 17.10 -->
    <g transform="translate(779.170284 263.133568)scale(0.1 -0.1)">
     <use xlink:href="#DejaVuSans-49"/>
     <use x="63.623047" xlink:href="#DejaVuSans-55"/>
     <use x="127.246094" xlink:href="#DejaVuSans-46"/>
     <use x="159.033203" xlink:href="#DejaVuSans-49"/>
     <use x="222.65625" xlink:href="#DejaVuSans-48"/>
    </g>
   </g>
   <g id="text_62">
    <!-- 16.31 -->
    <g transform="translate(835.53392 276.68925)scale(0.1 -0.1)">
     <use xlink:href="#DejaVuSans-49"/>
     <use x="63.623047" xlink:href="#DejaVuSans-54"/>
     <use x="127.246094" xlink:href="#DejaVuSans-46"/>
     <use x="159.033203" xlink:href="#DejaVuSans-51"/>
     <use x="222.65625" xlink:href="#DejaVuSans-49"/>
    </g>
   </g>
   <g id="text_63">
    <!-- 15.81 -->
    <g transform="translate(891.897557 285.268795)scale(0.1 -0.1)">
     <use xlink:href="#DejaVuSans-49"/>
     <use x="63.623047" xlink:href="#DejaVuSans-53"/>
     <use x="127.246094" xlink:href="#DejaVuSans-46"/>
     <use x="159.033203" xlink:href="#DejaVuSans-56"/>
     <use x="222.65625" xlink:href="#DejaVuSans-49"/>
    </g>
   </g>
   <g id="text_64">
    <!-- 15.54 -->
    <g transform="translate(948.261193 289.90175)scale(0.1 -0.1)">
     <use xlink:href="#DejaVuSans-49"/>
     <use x="63.623047" xlink:href="#DejaVuSans-53"/>
     <use x="127.246094" xlink:href="#DejaVuSans-46"/>
     <use x="159.033203" xlink:href="#DejaVuSans-53"/>
     <use x="222.65625" xlink:href="#DejaVuSans-52"/>
    </g>
   </g>
   <g id="text_65">
    <!-- 15.15 -->
    <g transform="translate(1004.62483 296.593795)scale(0.1 -0.1)">
     <use xlink:href="#DejaVuSans-49"/>
     <use x="63.623047" xlink:href="#DejaVuSans-53"/>
     <use x="127.246094" xlink:href="#DejaVuSans-46"/>
     <use x="159.033203" xlink:href="#DejaVuSans-49"/>
     <use x="222.65625" xlink:href="#DejaVuSans-53"/>
    </g>
   </g>
   <g id="text_66">
    <!-- 14.93 -->
    <g transform="translate(1060.988466 300.368795)scale(0.1 -0.1)">
     <use xlink:href="#DejaVuSans-49"/>
     <use x="63.623047" xlink:href="#DejaVuSans-52"/>
     <use x="127.246094" xlink:href="#DejaVuSans-46"/>
     <use x="159.033203" xlink:href="#DejaVuSans-57"/>
     <use x="222.65625" xlink:href="#DejaVuSans-51"/>
    </g>
   </g>
   <g id="text_67">
    <!-- 15.26 -->
    <g transform="translate(1117.352102 294.706295)scale(0.1 -0.1)">
     <use xlink:href="#DejaVuSans-49"/>
     <use x="63.623047" xlink:href="#DejaVuSans-53"/>
     <use x="127.246094" xlink:href="#DejaVuSans-46"/>
     <use x="159.033203" xlink:href="#DejaVuSans-50"/>
     <use x="222.65625" xlink:href="#DejaVuSans-54"/>
    </g>
   </g>
   <g id="text_68">
    <!-- 30.02 -->
    <g transform="translate(102.806648 41.438114)scale(0.1 -0.1)">
     <use xlink:href="#DejaVuSans-51"/>
     <use x="63.623047" xlink:href="#DejaVuSans-48"/>
     <use x="127.246094" xlink:href="#DejaVuSans-46"/>
     <use x="159.033203" xlink:href="#DejaVuSans-48"/>
     <use x="222.65625" xlink:href="#DejaVuSans-50"/>
    </g>
   </g>
   <g id="text_69">
    <!-- 29.89 -->
    <g transform="translate(159.170284 43.668795)scale(0.1 -0.1)">
     <use xlink:href="#DejaVuSans-50"/>
     <use x="63.623047" xlink:href="#DejaVuSans-57"/>
     <use x="127.246094" xlink:href="#DejaVuSans-46"/>
     <use x="159.033203" xlink:href="#DejaVuSans-56"/>
     <use x="222.65625" xlink:href="#DejaVuSans-57"/>
    </g>
   </g>
   <g id="text_70">
    <!-- 29.13 -->
    <g transform="translate(215.53392 56.709705)scale(0.1 -0.1)">
     <use xlink:href="#DejaVuSans-50"/>
     <use x="63.623047" xlink:href="#DejaVuSans-57"/>
     <use x="127.246094" xlink:href="#DejaVuSans-46"/>
     <use x="159.033203" xlink:href="#DejaVuSans-49"/>
     <use x="222.65625" xlink:href="#DejaVuSans-51"/>
    </g>
   </g>
   <g id="text_71">
    <!-- 28.59 -->
    <g transform="translate(271.897557 65.975614)scale(0.1 -0.1)">
     <use xlink:href="#DejaVuSans-50"/>
     <use x="63.623047" xlink:href="#DejaVuSans-56"/>
     <use x="127.246094" xlink:href="#DejaVuSans-46"/>
     <use x="159.033203" xlink:href="#DejaVuSans-53"/>
     <use x="222.65625" xlink:href="#DejaVuSans-57"/>
    </g>
   </g>
   <g id="text_72">
    <!-- 28.07 -->
    <g transform="translate(328.261193 74.898341)scale(0.1 -0.1)">
     <use xlink:href="#DejaVuSans-50"/>
     <use x="63.623047" xlink:href="#DejaVuSans-56"/>
     <use x="127.246094" xlink:href="#DejaVuSans-46"/>
     <use x="159.033203" xlink:href="#DejaVuSans-48"/>
     <use x="222.65625" xlink:href="#DejaVuSans-55"/>
    </g>
   </g>
   <g id="text_73">
    <!-- 28.55 -->
    <g transform="translate(384.62483 66.661977)scale(0.1 -0.1)">
     <use xlink:href="#DejaVuSans-50"/>
     <use x="63.623047" xlink:href="#DejaVuSans-56"/>
     <use x="127.246094" xlink:href="#DejaVuSans-46"/>
     <use x="159.033203" xlink:href="#DejaVuSans-53"/>
     <use x="222.65625" xlink:href="#DejaVuSans-53"/>
    </g>
   </g>
   <g id="text_74">
    <!-- 28.28 -->
    <g transform="translate(440.988466 71.294932)scale(0.1 -0.1)">
     <use xlink:href="#DejaVuSans-50"/>
     <use x="63.623047" xlink:href="#DejaVuSans-56"/>
     <use x="127.246094" xlink:href="#DejaVuSans-46"/>
     <use x="159.033203" xlink:href="#DejaVuSans-50"/>
     <use x="222.65625" xlink:href="#DejaVuSans-56"/>
    </g>
   </g>
   <g id="text_75">
    <!-- 27.73 -->
    <g transform="translate(497.352102 80.732432)scale(0.1 -0.1)">
     <use xlink:href="#DejaVuSans-50"/>
     <use x="63.623047" xlink:href="#DejaVuSans-55"/>
     <use x="127.246094" xlink:href="#DejaVuSans-46"/>
     <use x="159.033203" xlink:href="#DejaVuSans-55"/>
     <use x="222.65625" xlink:href="#DejaVuSans-51"/>
    </g>
   </g>
   <g id="text_76">
    <!-- 28.59 -->
    <g transform="translate(553.715739 65.975614)scale(0.1 -0.1)">
     <use xlink:href="#DejaVuSans-50"/>
     <use x="63.623047" xlink:href="#DejaVuSans-56"/>
     <use x="127.246094" xlink:href="#DejaVuSans-46"/>
     <use x="159.033203" xlink:href="#DejaVuSans-53"/>
     <use x="222.65625" xlink:href="#DejaVuSans-57"/>
    </g>
   </g>
   <g id="text_77">
    <!-- 28.51 -->
    <g transform="translate(610.079375 67.348341)scale(0.1 -0.1)">
     <use xlink:href="#DejaVuSans-50"/>
     <use x="63.623047" xlink:href="#DejaVuSans-56"/>
     <use x="127.246094" xlink:href="#DejaVuSans-46"/>
     <use x="159.033203" xlink:href="#DejaVuSans-53"/>
     <use x="222.65625" xlink:href="#DejaVuSans-49"/>
    </g>
   </g>
   <g id="text_78">
    <!-- 28.01 -->
    <g transform="translate(666.443011 75.927886)scale(0.1 -0.1)">
     <use xlink:href="#DejaVuSans-50"/>
     <use x="63.623047" xlink:href="#DejaVuSans-56"/>
     <use x="127.246094" xlink:href="#DejaVuSans-46"/>
     <use x="159.033203" xlink:href="#DejaVuSans-48"/>
     <use x="222.65625" xlink:href="#DejaVuSans-49"/>
    </g>
   </g>
   <g id="text_79">
    <!-- 27.77 -->
    <g transform="translate(722.806648 80.046068)scale(0.1 -0.1)">
     <use xlink:href="#DejaVuSans-50"/>
     <use x="63.623047" xlink:href="#DejaVuSans-55"/>
     <use x="127.246094" xlink:href="#DejaVuSans-46"/>
     <use x="159.033203" xlink:href="#DejaVuSans-55"/>
     <use x="222.65625" xlink:href="#DejaVuSans-55"/>
    </g>
   </g>
   <g id="text_80">
    <!-- 27.77 -->
    <g transform="translate(779.170284 80.046068)scale(0.1 -0.1)">
     <use xlink:href="#DejaVuSans-50"/>
     <use x="63.623047" xlink:href="#DejaVuSans-55"/>
     <use x="127.246094" xlink:href="#DejaVuSans-46"/>
     <use x="159.033203" xlink:href="#DejaVuSans-55"/>
     <use x="222.65625" xlink:href="#DejaVuSans-55"/>
    </g>
   </g>
   <g id="text_81">
    <!-- 26.58 -->
    <g transform="translate(835.53392 100.465386)scale(0.1 -0.1)">
     <use xlink:href="#DejaVuSans-50"/>
     <use x="63.623047" xlink:href="#DejaVuSans-54"/>
     <use x="127.246094" xlink:href="#DejaVuSans-46"/>
     <use x="159.033203" xlink:href="#DejaVuSans-53"/>
     <use x="222.65625" xlink:href="#DejaVuSans-56"/>
    </g>
   </g>
   <g id="text_82">
    <!-- 25.95 -->
    <g transform="translate(891.897557 111.275614)scale(0.1 -0.1)">
     <use xlink:href="#DejaVuSans-50"/>
     <use x="63.623047" xlink:href="#DejaVuSans-53"/>
     <use x="127.246094" xlink:href="#DejaVuSans-46"/>
     <use x="159.033203" xlink:href="#DejaVuSans-57"/>
     <use x="222.65625" xlink:href="#DejaVuSans-53"/>
    </g>
   </g>
   <g id="text_83">
    <!-- 25.67 -->
    <g transform="translate(948.261193 116.080159)scale(0.1 -0.1)">
     <use xlink:href="#DejaVuSans-50"/>
     <use x="63.623047" xlink:href="#DejaVuSans-53"/>
     <use x="127.246094" xlink:href="#DejaVuSans-46"/>
     <use x="159.033203" xlink:href="#DejaVuSans-54"/>
     <use x="222.65625" xlink:href="#DejaVuSans-55"/>
    </g>
   </g>
   <g id="text_84">
    <!-- 25.14 -->
    <g transform="translate(1004.62483 125.174477)scale(0.1 -0.1)">
     <use xlink:href="#DejaVuSans-50"/>
     <use x="63.623047" xlink:href="#DejaVuSans-53"/>
     <use x="127.246094" xlink:href="#DejaVuSans-46"/>
     <use x="159.033203" xlink:href="#DejaVuSans-49"/>
     <use x="222.65625" xlink:href="#DejaVuSans-52"/>
    </g>
   </g>
   <g id="text_85">
    <!-- 24.79 -->
    <g transform="translate(1060.988466 131.180159)scale(0.1 -0.1)">
     <use xlink:href="#DejaVuSans-50"/>
     <use x="63.623047" xlink:href="#DejaVuSans-52"/>
     <use x="127.246094" xlink:href="#DejaVuSans-46"/>
     <use x="159.033203" xlink:href="#DejaVuSans-55"/>
     <use x="222.65625" xlink:href="#DejaVuSans-57"/>
    </g>
   </g>
   <g id="text_86">
    <!-- 26.42 -->
    <g transform="translate(1117.352102 103.210841)scale(0.1 -0.1)">
     <use xlink:href="#DejaVuSans-50"/>
     <use x="63.623047" xlink:href="#DejaVuSans-54"/>
     <use x="127.246094" xlink:href="#DejaVuSans-46"/>
     <use x="159.033203" xlink:href="#DejaVuSans-52"/>
     <use x="222.65625" xlink:href="#DejaVuSans-50"/>
    </g>
   </g>
   <g id="text_87">
    <!-- Comparison of Total Population Living under Poverty Line in Indonesia -->
    <g transform="translate(358.693625 18.14175)scale(0.144 -0.144)">
     <defs>
      <path d="M 64.40625 67.28125 
L 64.40625 56.890625 
Q 59.421875 61.53125 53.78125 63.8125 
Q 48.140625 66.109375 41.796875 66.109375 
Q 29.296875 66.109375 22.65625 58.46875 
Q 16.015625 50.828125 16.015625 36.375 
Q 16.015625 21.96875 22.65625 14.328125 
Q 29.296875 6.6875 41.796875 6.6875 
Q 48.140625 6.6875 53.78125 8.984375 
Q 59.421875 11.28125 64.40625 15.921875 
L 64.40625 5.609375 
Q 59.234375 2.09375 53.4375 0.328125 
Q 47.65625 -1.421875 41.21875 -1.421875 
Q 24.65625 -1.421875 15.125 8.703125 
Q 5.609375 18.84375 5.609375 36.375 
Q 5.609375 53.953125 15.125 64.078125 
Q 24.65625 74.21875 41.21875 74.21875 
Q 47.75 74.21875 53.53125 72.484375 
Q 59.328125 70.75 64.40625 67.28125 
z
" id="DejaVuSans-67"/>
      <path d="M 44.28125 53.078125 
L 44.28125 44.578125 
Q 40.484375 46.53125 36.375 47.5 
Q 32.28125 48.484375 27.875 48.484375 
Q 21.1875 48.484375 17.84375 46.4375 
Q 14.5 44.390625 14.5 40.28125 
Q 14.5 37.15625 16.890625 35.375 
Q 19.28125 33.59375 26.515625 31.984375 
L 29.59375 31.296875 
Q 39.15625 29.25 43.1875 25.515625 
Q 47.21875 21.78125 47.21875 15.09375 
Q 47.21875 7.46875 41.1875 3.015625 
Q 35.15625 -1.421875 24.609375 -1.421875 
Q 20.21875 -1.421875 15.453125 -0.5625 
Q 10.6875 0.296875 5.421875 2 
L 5.421875 11.28125 
Q 10.40625 8.6875 15.234375 7.390625 
Q 20.0625 6.109375 24.8125 6.109375 
Q 31.15625 6.109375 34.5625 8.28125 
Q 37.984375 10.453125 37.984375 14.40625 
Q 37.984375 18.0625 35.515625 20.015625 
Q 33.0625 21.96875 24.703125 23.78125 
L 21.578125 24.515625 
Q 13.234375 26.265625 9.515625 29.90625 
Q 5.8125 33.546875 5.8125 39.890625 
Q 5.8125 47.609375 11.28125 51.796875 
Q 16.75 56 26.8125 56 
Q 31.78125 56 36.171875 55.265625 
Q 40.578125 54.546875 44.28125 53.078125 
z
" id="DejaVuSans-115"/>
      <path d="M 37.109375 75.984375 
L 37.109375 68.5 
L 28.515625 68.5 
Q 23.6875 68.5 21.796875 66.546875 
Q 19.921875 64.59375 19.921875 59.515625 
L 19.921875 54.6875 
L 34.71875 54.6875 
L 34.71875 47.703125 
L 19.921875 47.703125 
L 19.921875 0 
L 10.890625 0 
L 10.890625 47.703125 
L 2.296875 47.703125 
L 2.296875 54.6875 
L 10.890625 54.6875 
L 10.890625 58.5 
Q 10.890625 67.625 15.140625 71.796875 
Q 19.390625 75.984375 28.609375 75.984375 
z
" id="DejaVuSans-102"/>
      <path d="M 45.40625 46.390625 
L 45.40625 75.984375 
L 54.390625 75.984375 
L 54.390625 0 
L 45.40625 0 
L 45.40625 8.203125 
Q 42.578125 3.328125 38.25 0.953125 
Q 33.9375 -1.421875 27.875 -1.421875 
Q 17.96875 -1.421875 11.734375 6.484375 
Q 5.515625 14.40625 5.515625 27.296875 
Q 5.515625 40.1875 11.734375 48.09375 
Q 17.96875 56 27.875 56 
Q 33.9375 56 38.25 53.625 
Q 42.578125 51.265625 45.40625 46.390625 
z
M 14.796875 27.296875 
Q 14.796875 17.390625 18.875 11.75 
Q 22.953125 6.109375 30.078125 6.109375 
Q 37.203125 6.109375 41.296875 11.75 
Q 45.40625 17.390625 45.40625 27.296875 
Q 45.40625 37.203125 41.296875 42.84375 
Q 37.203125 48.484375 30.078125 48.484375 
Q 22.953125 48.484375 18.875 42.84375 
Q 14.796875 37.203125 14.796875 27.296875 
z
" id="DejaVuSans-100"/>
      <path d="M 9.8125 72.90625 
L 19.671875 72.90625 
L 19.671875 0 
L 9.8125 0 
z
" id="DejaVuSans-73"/>
     </defs>
     <use xlink:href="#DejaVuSans-67"/>
     <use x="69.824219" xlink:href="#DejaVuSans-111"/>
     <use x="131.005859" xlink:href="#DejaVuSans-109"/>
     <use x="228.417969" xlink:href="#DejaVuSans-112"/>
     <use x="291.894531" xlink:href="#DejaVuSans-97"/>
     <use x="353.173828" xlink:href="#DejaVuSans-114"/>
     <use x="394.287109" xlink:href="#DejaVuSans-105"/>
     <use x="422.070312" xlink:href="#DejaVuSans-115"/>
     <use x="474.169922" xlink:href="#DejaVuSans-111"/>
     <use x="535.351562" xlink:href="#DejaVuSans-110"/>
     <use x="598.730469" xlink:href="#DejaVuSans-32"/>
     <use x="630.517578" xlink:href="#DejaVuSans-111"/>
     <use x="691.699219" xlink:href="#DejaVuSans-102"/>
     <use x="726.904297" xlink:href="#DejaVuSans-32"/>
     <use x="758.691406" xlink:href="#DejaVuSans-84"/>
     <use x="802.775391" xlink:href="#DejaVuSans-111"/>
     <use x="863.957031" xlink:href="#DejaVuSans-116"/>
     <use x="903.166016" xlink:href="#DejaVuSans-97"/>
     <use x="964.445312" xlink:href="#DejaVuSans-108"/>
     <use x="992.228516" xlink:href="#DejaVuSans-32"/>
     <use x="1024.015625" xlink:href="#DejaVuSans-80"/>
     <use x="1080.693359" xlink:href="#DejaVuSans-111"/>
     <use x="1141.875" xlink:href="#DejaVuSans-112"/>
     <use x="1205.351562" xlink:href="#DejaVuSans-117"/>
     <use x="1268.730469" xlink:href="#DejaVuSans-108"/>
     <use x="1296.513672" xlink:href="#DejaVuSans-97"/>
     <use x="1357.792969" xlink:href="#DejaVuSans-116"/>
     <use x="1397.001953" xlink:href="#DejaVuSans-105"/>
     <use x="1424.785156" xlink:href="#DejaVuSans-111"/>
     <use x="1485.966797" xlink:href="#DejaVuSans-110"/>
     <use x="1549.345703" xlink:href="#DejaVuSans-32"/>
     <use x="1581.132812" xlink:href="#DejaVuSans-76"/>
     <use x="1636.845703" xlink:href="#DejaVuSans-105"/>
     <use x="1664.628906" xlink:href="#DejaVuSans-118"/>
     <use x="1723.808594" xlink:href="#DejaVuSans-105"/>
     <use x="1751.591797" xlink:href="#DejaVuSans-110"/>
     <use x="1814.970703" xlink:href="#DejaVuSans-103"/>
     <use x="1878.447266" xlink:href="#DejaVuSans-32"/>
     <use x="1910.234375" xlink:href="#DejaVuSans-117"/>
     <use x="1973.613281" xlink:href="#DejaVuSans-110"/>
     <use x="2036.992188" xlink:href="#DejaVuSans-100"/>
     <use x="2100.46875" xlink:href="#DejaVuSans-101"/>
     <use x="2161.992188" xlink:href="#DejaVuSans-114"/>
     <use x="2203.105469" xlink:href="#DejaVuSans-32"/>
     <use x="2234.892578" xlink:href="#DejaVuSans-80"/>
     <use x="2291.570312" xlink:href="#DejaVuSans-111"/>
     <use x="2352.751953" xlink:href="#DejaVuSans-118"/>
     <use x="2411.931641" xlink:href="#DejaVuSans-101"/>
     <use x="2473.455078" xlink:href="#DejaVuSans-114"/>
     <use x="2514.568359" xlink:href="#DejaVuSans-116"/>
     <use x="2553.777344" xlink:href="#DejaVuSans-121"/>
     <use x="2612.957031" xlink:href="#DejaVuSans-32"/>
     <use x="2644.744141" xlink:href="#DejaVuSans-76"/>
     <use x="2700.457031" xlink:href="#DejaVuSans-105"/>
     <use x="2728.240234" xlink:href="#DejaVuSans-110"/>
     <use x="2791.619141" xlink:href="#DejaVuSans-101"/>
     <use x="2853.142578" xlink:href="#DejaVuSans-32"/>
     <use x="2884.929688" xlink:href="#DejaVuSans-105"/>
     <use x="2912.712891" xlink:href="#DejaVuSans-110"/>
     <use x="2976.091797" xlink:href="#DejaVuSans-32"/>
     <use x="3007.878906" xlink:href="#DejaVuSans-73"/>
     <use x="3037.371094" xlink:href="#DejaVuSans-110"/>
     <use x="3100.75" xlink:href="#DejaVuSans-100"/>
     <use x="3164.226562" xlink:href="#DejaVuSans-111"/>
     <use x="3225.408203" xlink:href="#DejaVuSans-110"/>
     <use x="3288.787109" xlink:href="#DejaVuSans-101"/>
     <use x="3350.310547" xlink:href="#DejaVuSans-115"/>
     <use x="3402.410156" xlink:href="#DejaVuSans-105"/>
     <use x="3430.193359" xlink:href="#DejaVuSans-97"/>
    </g>
   </g>
   <g id="legend_1">
    <g id="patch_7">
     <path d="M 924.9075 76.176125 
L 1161.079375 76.176125 
Q 1163.079375 76.176125 1163.079375 74.176125 
L 1163.079375 31.14175 
Q 1163.079375 29.14175 1161.079375 29.14175 
L 924.9075 29.14175 
Q 922.9075 29.14175 922.9075 31.14175 
L 922.9075 74.176125 
Q 922.9075 76.176125 924.9075 76.176125 
z
" style="fill:#e5e5e5;opacity:0.8;stroke:#cccccc;stroke-linejoin:miter;stroke-width:0.5;"/>
    </g>
    <g id="line2d_60">
     <path d="M 926.9075 37.240187 
L 946.9075 37.240187 
" style="fill:none;stroke:#e24a33;stroke-dasharray:5.55,2.4;stroke-dashoffset:0;stroke-width:1.5;"/>
    </g>
    <g id="line2d_61">
     <g>
      <use style="fill:#e24a33;stroke:#e24a33;" x="936.9075" xlink:href="#mb67b8bd11e" y="37.240187"/>
     </g>
    </g>
    <g id="text_88">
     <!-- Total Urban Population Living in Poverty -->
     <g transform="translate(954.9075 40.740187)scale(0.1 -0.1)">
      <defs>
       <path d="M 8.6875 72.90625 
L 18.609375 72.90625 
L 18.609375 28.609375 
Q 18.609375 16.890625 22.84375 11.734375 
Q 27.09375 6.59375 36.625 6.59375 
Q 46.09375 6.59375 50.34375 11.734375 
Q 54.59375 16.890625 54.59375 28.609375 
L 54.59375 72.90625 
L 64.5 72.90625 
L 64.5 27.390625 
Q 64.5 13.140625 57.4375 5.859375 
Q 50.390625 -1.421875 36.625 -1.421875 
Q 22.796875 -1.421875 15.734375 5.859375 
Q 8.6875 13.140625 8.6875 27.390625 
z
" id="DejaVuSans-85"/>
       <path d="M 48.6875 27.296875 
Q 48.6875 37.203125 44.609375 42.84375 
Q 40.53125 48.484375 33.40625 48.484375 
Q 26.265625 48.484375 22.1875 42.84375 
Q 18.109375 37.203125 18.109375 27.296875 
Q 18.109375 17.390625 22.1875 11.75 
Q 26.265625 6.109375 33.40625 6.109375 
Q 40.53125 6.109375 44.609375 11.75 
Q 48.6875 17.390625 48.6875 27.296875 
z
M 18.109375 46.390625 
Q 20.953125 51.265625 25.265625 53.625 
Q 29.59375 56 35.59375 56 
Q 45.5625 56 51.78125 48.09375 
Q 58.015625 40.1875 58.015625 27.296875 
Q 58.015625 14.40625 51.78125 6.484375 
Q 45.5625 -1.421875 35.59375 -1.421875 
Q 29.59375 -1.421875 25.265625 0.953125 
Q 20.953125 3.328125 18.109375 8.203125 
L 18.109375 0 
L 9.078125 0 
L 9.078125 75.984375 
L 18.109375 75.984375 
z
" id="DejaVuSans-98"/>
      </defs>
      <use xlink:href="#DejaVuSans-84"/>
      <use x="44.083984" xlink:href="#DejaVuSans-111"/>
      <use x="105.265625" xlink:href="#DejaVuSans-116"/>
      <use x="144.474609" xlink:href="#DejaVuSans-97"/>
      <use x="205.753906" xlink:href="#DejaVuSans-108"/>
      <use x="233.537109" xlink:href="#DejaVuSans-32"/>
      <use x="265.324219" xlink:href="#DejaVuSans-85"/>
      <use x="338.517578" xlink:href="#DejaVuSans-114"/>
      <use x="379.630859" xlink:href="#DejaVuSans-98"/>
      <use x="443.107422" xlink:href="#DejaVuSans-97"/>
      <use x="504.386719" xlink:href="#DejaVuSans-110"/>
      <use x="567.765625" xlink:href="#DejaVuSans-32"/>
      <use x="599.552734" xlink:href="#DejaVuSans-80"/>
      <use x="656.230469" xlink:href="#DejaVuSans-111"/>
      <use x="717.412109" xlink:href="#DejaVuSans-112"/>
      <use x="780.888672" xlink:href="#DejaVuSans-117"/>
      <use x="844.267578" xlink:href="#DejaVuSans-108"/>
      <use x="872.050781" xlink:href="#DejaVuSans-97"/>
      <use x="933.330078" xlink:href="#DejaVuSans-116"/>
      <use x="972.539062" xlink:href="#DejaVuSans-105"/>
      <use x="1000.322266" xlink:href="#DejaVuSans-111"/>
      <use x="1061.503906" xlink:href="#DejaVuSans-110"/>
      <use x="1124.882812" xlink:href="#DejaVuSans-32"/>
      <use x="1156.669922" xlink:href="#DejaVuSans-76"/>
      <use x="1212.382812" xlink:href="#DejaVuSans-105"/>
      <use x="1240.166016" xlink:href="#DejaVuSans-118"/>
      <use x="1299.345703" xlink:href="#DejaVuSans-105"/>
      <use x="1327.128906" xlink:href="#DejaVuSans-110"/>
      <use x="1390.507812" xlink:href="#DejaVuSans-103"/>
      <use x="1453.984375" xlink:href="#DejaVuSans-32"/>
      <use x="1485.771484" xlink:href="#DejaVuSans-105"/>
      <use x="1513.554688" xlink:href="#DejaVuSans-110"/>
      <use x="1576.933594" xlink:href="#DejaVuSans-32"/>
      <use x="1608.720703" xlink:href="#DejaVuSans-80"/>
      <use x="1665.398438" xlink:href="#DejaVuSans-111"/>
      <use x="1726.580078" xlink:href="#DejaVuSans-118"/>
      <use x="1785.759766" xlink:href="#DejaVuSans-101"/>
      <use x="1847.283203" xlink:href="#DejaVuSans-114"/>
      <use x="1888.396484" xlink:href="#DejaVuSans-116"/>
      <use x="1927.605469" xlink:href="#DejaVuSans-121"/>
     </g>
    </g>
    <g id="line2d_62">
     <path d="M 926.9075 51.918313 
L 946.9075 51.918313 
" style="fill:none;stroke:#348abd;stroke-dasharray:5.55,2.4;stroke-dashoffset:0;stroke-width:1.5;"/>
    </g>
    <g id="line2d_63">
     <g>
      <use style="fill:#348abd;stroke:#348abd;" x="936.9075" xlink:href="#mf3839947e9" y="51.918313"/>
     </g>
    </g>
    <g id="text_89">
     <!-- Total Village Population Living in Poverty -->
     <g transform="translate(954.9075 55.418313)scale(0.1 -0.1)">
      <defs>
       <path d="M 28.609375 0 
L 0.78125 72.90625 
L 11.078125 72.90625 
L 34.1875 11.53125 
L 57.328125 72.90625 
L 67.578125 72.90625 
L 39.796875 0 
z
" id="DejaVuSans-86"/>
      </defs>
      <use xlink:href="#DejaVuSans-84"/>
      <use x="44.083984" xlink:href="#DejaVuSans-111"/>
      <use x="105.265625" xlink:href="#DejaVuSans-116"/>
      <use x="144.474609" xlink:href="#DejaVuSans-97"/>
      <use x="205.753906" xlink:href="#DejaVuSans-108"/>
      <use x="233.537109" xlink:href="#DejaVuSans-32"/>
      <use x="265.324219" xlink:href="#DejaVuSans-86"/>
      <use x="331.482422" xlink:href="#DejaVuSans-105"/>
      <use x="359.265625" xlink:href="#DejaVuSans-108"/>
      <use x="387.048828" xlink:href="#DejaVuSans-108"/>
      <use x="414.832031" xlink:href="#DejaVuSans-97"/>
      <use x="476.111328" xlink:href="#DejaVuSans-103"/>
      <use x="539.587891" xlink:href="#DejaVuSans-101"/>
      <use x="601.111328" xlink:href="#DejaVuSans-32"/>
      <use x="632.898438" xlink:href="#DejaVuSans-80"/>
      <use x="689.576172" xlink:href="#DejaVuSans-111"/>
      <use x="750.757812" xlink:href="#DejaVuSans-112"/>
      <use x="814.234375" xlink:href="#DejaVuSans-117"/>
      <use x="877.613281" xlink:href="#DejaVuSans-108"/>
      <use x="905.396484" xlink:href="#DejaVuSans-97"/>
      <use x="966.675781" xlink:href="#DejaVuSans-116"/>
      <use x="1005.884766" xlink:href="#DejaVuSans-105"/>
      <use x="1033.667969" xlink:href="#DejaVuSans-111"/>
      <use x="1094.849609" xlink:href="#DejaVuSans-110"/>
      <use x="1158.228516" xlink:href="#DejaVuSans-32"/>
      <use x="1190.015625" xlink:href="#DejaVuSans-76"/>
      <use x="1245.728516" xlink:href="#DejaVuSans-105"/>
      <use x="1273.511719" xlink:href="#DejaVuSans-118"/>
      <use x="1332.691406" xlink:href="#DejaVuSans-105"/>
      <use x="1360.474609" xlink:href="#DejaVuSans-110"/>
      <use x="1423.853516" xlink:href="#DejaVuSans-103"/>
      <use x="1487.330078" xlink:href="#DejaVuSans-32"/>
      <use x="1519.117188" xlink:href="#DejaVuSans-105"/>
      <use x="1546.900391" xlink:href="#DejaVuSans-110"/>
      <use x="1610.279297" xlink:href="#DejaVuSans-32"/>
      <use x="1642.066406" xlink:href="#DejaVuSans-80"/>
      <use x="1698.744141" xlink:href="#DejaVuSans-111"/>
      <use x="1759.925781" xlink:href="#DejaVuSans-118"/>
      <use x="1819.105469" xlink:href="#DejaVuSans-101"/>
      <use x="1880.628906" xlink:href="#DejaVuSans-114"/>
      <use x="1921.742188" xlink:href="#DejaVuSans-116"/>
      <use x="1960.951172" xlink:href="#DejaVuSans-121"/>
     </g>
    </g>
    <g id="line2d_64">
     <path d="M 926.9075 66.596437 
L 946.9075 66.596437 
" style="fill:none;stroke:#988ed5;stroke-dasharray:5.55,2.4;stroke-dashoffset:0;stroke-width:1.5;"/>
    </g>
    <g id="line2d_65">
     <g>
      <use style="fill:#988ed5;stroke:#988ed5;" x="936.9075" xlink:href="#m80062d772b" y="66.596437"/>
     </g>
    </g>
    <g id="text_90">
     <!-- Overall Total Population Living in Poverty -->
     <g transform="translate(954.9075 70.096437)scale(0.1 -0.1)">
      <defs>
       <path d="M 39.40625 66.21875 
Q 28.65625 66.21875 22.328125 58.203125 
Q 16.015625 50.203125 16.015625 36.375 
Q 16.015625 22.609375 22.328125 14.59375 
Q 28.65625 6.59375 39.40625 6.59375 
Q 50.140625 6.59375 56.421875 14.59375 
Q 62.703125 22.609375 62.703125 36.375 
Q 62.703125 50.203125 56.421875 58.203125 
Q 50.140625 66.21875 39.40625 66.21875 
z
M 39.40625 74.21875 
Q 54.734375 74.21875 63.90625 63.9375 
Q 73.09375 53.65625 73.09375 36.375 
Q 73.09375 19.140625 63.90625 8.859375 
Q 54.734375 -1.421875 39.40625 -1.421875 
Q 24.03125 -1.421875 14.8125 8.828125 
Q 5.609375 19.09375 5.609375 36.375 
Q 5.609375 53.65625 14.8125 63.9375 
Q 24.03125 74.21875 39.40625 74.21875 
z
" id="DejaVuSans-79"/>
      </defs>
      <use xlink:href="#DejaVuSans-79"/>
      <use x="78.710938" xlink:href="#DejaVuSans-118"/>
      <use x="137.890625" xlink:href="#DejaVuSans-101"/>
      <use x="199.414062" xlink:href="#DejaVuSans-114"/>
      <use x="240.527344" xlink:href="#DejaVuSans-97"/>
      <use x="301.806641" xlink:href="#DejaVuSans-108"/>
      <use x="329.589844" xlink:href="#DejaVuSans-108"/>
      <use x="357.373047" xlink:href="#DejaVuSans-32"/>
      <use x="389.160156" xlink:href="#DejaVuSans-84"/>
      <use x="433.244141" xlink:href="#DejaVuSans-111"/>
      <use x="494.425781" xlink:href="#DejaVuSans-116"/>
      <use x="533.634766" xlink:href="#DejaVuSans-97"/>
      <use x="594.914062" xlink:href="#DejaVuSans-108"/>
      <use x="622.697266" xlink:href="#DejaVuSans-32"/>
      <use x="654.484375" xlink:href="#DejaVuSans-80"/>
      <use x="711.162109" xlink:href="#DejaVuSans-111"/>
      <use x="772.34375" xlink:href="#DejaVuSans-112"/>
      <use x="835.820312" xlink:href="#DejaVuSans-117"/>
      <use x="899.199219" xlink:href="#DejaVuSans-108"/>
      <use x="926.982422" xlink:href="#DejaVuSans-97"/>
      <use x="988.261719" xlink:href="#DejaVuSans-116"/>
      <use x="1027.470703" xlink:href="#DejaVuSans-105"/>
      <use x="1055.253906" xlink:href="#DejaVuSans-111"/>
      <use x="1116.435547" xlink:href="#DejaVuSans-110"/>
      <use x="1179.814453" xlink:href="#DejaVuSans-32"/>
      <use x="1211.601562" xlink:href="#DejaVuSans-76"/>
      <use x="1267.314453" xlink:href="#DejaVuSans-105"/>
      <use x="1295.097656" xlink:href="#DejaVuSans-118"/>
      <use x="1354.277344" xlink:href="#DejaVuSans-105"/>
      <use x="1382.060547" xlink:href="#DejaVuSans-110"/>
      <use x="1445.439453" xlink:href="#DejaVuSans-103"/>
      <use x="1508.916016" xlink:href="#DejaVuSans-32"/>
      <use x="1540.703125" xlink:href="#DejaVuSans-105"/>
      <use x="1568.486328" xlink:href="#DejaVuSans-110"/>
      <use x="1631.865234" xlink:href="#DejaVuSans-32"/>
      <use x="1663.652344" xlink:href="#DejaVuSans-80"/>
      <use x="1720.330078" xlink:href="#DejaVuSans-111"/>
      <use x="1781.511719" xlink:href="#DejaVuSans-118"/>
      <use x="1840.691406" xlink:href="#DejaVuSans-101"/>
      <use x="1902.214844" xlink:href="#DejaVuSans-114"/>
      <use x="1943.328125" xlink:href="#DejaVuSans-116"/>
      <use x="1982.537109" xlink:href="#DejaVuSans-121"/>
     </g>
    </g>
   </g>
  </g>
 </g>
 <defs>
  <clipPath id="p3ea2758802">
   <rect height="380.52" width="1116" x="52.079375" y="24.14175"/>
  </clipPath>
 </defs>
</svg>
