<?xml version="1.0" encoding="utf-8" standalone="no"?>
<!DOCTYPE svg PUBLIC "-//W3C//DTD SVG 1.1//EN"
  "http://www.w3.org/Graphics/SVG/1.1/DTD/svg11.dtd">
<!-- Created with matplotlib (https://matplotlib.org/) -->
<svg height="715.953625pt" version="1.1" viewBox="0 0 634.594431 715.953625" width="634.594431pt" xmlns="http://www.w3.org/2000/svg" xmlns:xlink="http://www.w3.org/1999/xlink">
 <metadata>
  <rdf:RDF xmlns:cc="http://creativecommons.org/ns#" xmlns:dc="http://purl.org/dc/elements/1.1/" xmlns:rdf="http://www.w3.org/1999/02/22-rdf-syntax-ns#">
   <cc:Work>
    <dc:type rdf:resource="http://purl.org/dc/dcmitype/StillImage"/>
    <dc:date>2020-11-24T20:34:01.659336</dc:date>
    <dc:format>image/svg+xml</dc:format>
    <dc:creator>
     <cc:Agent>
      <dc:title>Matplotlib v3.3.3, https://matplotlib.org/</dc:title>
     </cc:Agent>
    </dc:creator>
   </cc:Work>
  </rdf:RDF>
 </metadata>
 <defs>
  <style type="text/css">*{stroke-linecap:butt;stroke-linejoin:round;}</style>
 </defs>
 <g id="figure_1">
  <g id="patch_1">
   <path d="M 0 715.953625 
L 634.594431 715.953625 
L 634.594431 0 
L 0 0 
z
" style="fill:#ffffff;"/>
  </g>
  <g id="axes_1">
   <g id="patch_2">
    <path d="M 57.0625 676.46175 
L 615.0625 676.46175 
L 615.0625 24.14175 
L 57.0625 24.14175 
z
" style="fill:#e5e5e5;"/>
   </g>
   <g id="matplotlib.axis_1">
    <g id="xtick_1">
     <g id="line2d_1">
      <path clip-path="url(#p0628ea0300)" d="M 57.0625 676.46175 
L 57.0625 24.14175 
" style="fill:none;stroke:#ffffff;stroke-linecap:square;stroke-width:0.8;"/>
     </g>
     <g id="line2d_2">
      <defs>
       <path d="M 0 0 
L 0 3.5 
" id="mc35b3f53a1" style="stroke:#555555;stroke-width:0.8;"/>
      </defs>
      <g>
       <use style="fill:#555555;stroke:#555555;stroke-width:0.8;" x="57.0625" xlink:href="#mc35b3f53a1" y="676.46175"/>
      </g>
     </g>
     <g id="text_1">
      <!-- 0 -->
      <g style="fill:#555555;" transform="translate(53.88125 691.060187)scale(0.1 -0.1)">
       <defs>
        <path d="M 31.78125 66.40625 
Q 24.171875 66.40625 20.328125 58.90625 
Q 16.5 51.421875 16.5 36.375 
Q 16.5 21.390625 20.328125 13.890625 
Q 24.171875 6.390625 31.78125 6.390625 
Q 39.453125 6.390625 43.28125 13.890625 
Q 47.125 21.390625 47.125 36.375 
Q 47.125 51.421875 43.28125 58.90625 
Q 39.453125 66.40625 31.78125 66.40625 
z
M 31.78125 74.21875 
Q 44.046875 74.21875 50.515625 64.515625 
Q 56.984375 54.828125 56.984375 36.375 
Q 56.984375 17.96875 50.515625 8.265625 
Q 44.046875 -1.421875 31.78125 -1.421875 
Q 19.53125 -1.421875 13.0625 8.265625 
Q 6.59375 17.96875 6.59375 36.375 
Q 6.59375 54.828125 13.0625 64.515625 
Q 19.53125 74.21875 31.78125 74.21875 
z
" id="DejaVuSans-48"/>
       </defs>
       <use xlink:href="#DejaVuSans-48"/>
      </g>
     </g>
    </g>
    <g id="xtick_2">
     <g id="line2d_3">
      <path clip-path="url(#p0628ea0300)" d="M 125.968054 676.46175 
L 125.968054 24.14175 
" style="fill:none;stroke:#ffffff;stroke-linecap:square;stroke-width:0.8;"/>
     </g>
     <g id="line2d_4">
      <g>
       <use style="fill:#555555;stroke:#555555;stroke-width:0.8;" x="125.968054" xlink:href="#mc35b3f53a1" y="676.46175"/>
      </g>
     </g>
     <g id="text_2">
      <!-- 50000 -->
      <g style="fill:#555555;" transform="translate(110.061804 691.060187)scale(0.1 -0.1)">
       <defs>
        <path d="M 10.796875 72.90625 
L 49.515625 72.90625 
L 49.515625 64.59375 
L 19.828125 64.59375 
L 19.828125 46.734375 
Q 21.96875 47.46875 24.109375 47.828125 
Q 26.265625 48.1875 28.421875 48.1875 
Q 40.625 48.1875 47.75 41.5 
Q 54.890625 34.8125 54.890625 23.390625 
Q 54.890625 11.625 47.5625 5.09375 
Q 40.234375 -1.421875 26.90625 -1.421875 
Q 22.3125 -1.421875 17.546875 -0.640625 
Q 12.796875 0.140625 7.71875 1.703125 
L 7.71875 11.625 
Q 12.109375 9.234375 16.796875 8.0625 
Q 21.484375 6.890625 26.703125 6.890625 
Q 35.15625 6.890625 40.078125 11.328125 
Q 45.015625 15.765625 45.015625 23.390625 
Q 45.015625 31 40.078125 35.4375 
Q 35.15625 39.890625 26.703125 39.890625 
Q 22.75 39.890625 18.8125 39.015625 
Q 14.890625 38.140625 10.796875 36.28125 
z
" id="DejaVuSans-53"/>
       </defs>
       <use xlink:href="#DejaVuSans-53"/>
       <use x="63.623047" xlink:href="#DejaVuSans-48"/>
       <use x="127.246094" xlink:href="#DejaVuSans-48"/>
       <use x="190.869141" xlink:href="#DejaVuSans-48"/>
       <use x="254.492188" xlink:href="#DejaVuSans-48"/>
      </g>
     </g>
    </g>
    <g id="xtick_3">
     <g id="line2d_5">
      <path clip-path="url(#p0628ea0300)" d="M 194.873608 676.46175 
L 194.873608 24.14175 
" style="fill:none;stroke:#ffffff;stroke-linecap:square;stroke-width:0.8;"/>
     </g>
     <g id="line2d_6">
      <g>
       <use style="fill:#555555;stroke:#555555;stroke-width:0.8;" x="194.873608" xlink:href="#mc35b3f53a1" y="676.46175"/>
      </g>
     </g>
     <g id="text_3">
      <!-- 100000 -->
      <g style="fill:#555555;" transform="translate(175.786108 691.060187)scale(0.1 -0.1)">
       <defs>
        <path d="M 12.40625 8.296875 
L 28.515625 8.296875 
L 28.515625 63.921875 
L 10.984375 60.40625 
L 10.984375 69.390625 
L 28.421875 72.90625 
L 38.28125 72.90625 
L 38.28125 8.296875 
L 54.390625 8.296875 
L 54.390625 0 
L 12.40625 0 
z
" id="DejaVuSans-49"/>
       </defs>
       <use xlink:href="#DejaVuSans-49"/>
       <use x="63.623047" xlink:href="#DejaVuSans-48"/>
       <use x="127.246094" xlink:href="#DejaVuSans-48"/>
       <use x="190.869141" xlink:href="#DejaVuSans-48"/>
       <use x="254.492188" xlink:href="#DejaVuSans-48"/>
       <use x="318.115234" xlink:href="#DejaVuSans-48"/>
      </g>
     </g>
    </g>
    <g id="xtick_4">
     <g id="line2d_7">
      <path clip-path="url(#p0628ea0300)" d="M 263.779161 676.46175 
L 263.779161 24.14175 
" style="fill:none;stroke:#ffffff;stroke-linecap:square;stroke-width:0.8;"/>
     </g>
     <g id="line2d_8">
      <g>
       <use style="fill:#555555;stroke:#555555;stroke-width:0.8;" x="263.779161" xlink:href="#mc35b3f53a1" y="676.46175"/>
      </g>
     </g>
     <g id="text_4">
      <!-- 150000 -->
      <g style="fill:#555555;" transform="translate(244.691661 691.060187)scale(0.1 -0.1)">
       <use xlink:href="#DejaVuSans-49"/>
       <use x="63.623047" xlink:href="#DejaVuSans-53"/>
       <use x="127.246094" xlink:href="#DejaVuSans-48"/>
       <use x="190.869141" xlink:href="#DejaVuSans-48"/>
       <use x="254.492188" xlink:href="#DejaVuSans-48"/>
       <use x="318.115234" xlink:href="#DejaVuSans-48"/>
      </g>
     </g>
    </g>
    <g id="xtick_5">
     <g id="line2d_9">
      <path clip-path="url(#p0628ea0300)" d="M 332.684715 676.46175 
L 332.684715 24.14175 
" style="fill:none;stroke:#ffffff;stroke-linecap:square;stroke-width:0.8;"/>
     </g>
     <g id="line2d_10">
      <g>
       <use style="fill:#555555;stroke:#555555;stroke-width:0.8;" x="332.684715" xlink:href="#mc35b3f53a1" y="676.46175"/>
      </g>
     </g>
     <g id="text_5">
      <!-- 200000 -->
      <g style="fill:#555555;" transform="translate(313.597215 691.060187)scale(0.1 -0.1)">
       <defs>
        <path d="M 19.1875 8.296875 
L 53.609375 8.296875 
L 53.609375 0 
L 7.328125 0 
L 7.328125 8.296875 
Q 12.9375 14.109375 22.625 23.890625 
Q 32.328125 33.6875 34.8125 36.53125 
Q 39.546875 41.84375 41.421875 45.53125 
Q 43.3125 49.21875 43.3125 52.78125 
Q 43.3125 58.59375 39.234375 62.25 
Q 35.15625 65.921875 28.609375 65.921875 
Q 23.96875 65.921875 18.8125 64.3125 
Q 13.671875 62.703125 7.8125 59.421875 
L 7.8125 69.390625 
Q 13.765625 71.78125 18.9375 73 
Q 24.125 74.21875 28.421875 74.21875 
Q 39.75 74.21875 46.484375 68.546875 
Q 53.21875 62.890625 53.21875 53.421875 
Q 53.21875 48.921875 51.53125 44.890625 
Q 49.859375 40.875 45.40625 35.40625 
Q 44.1875 33.984375 37.640625 27.21875 
Q 31.109375 20.453125 19.1875 8.296875 
z
" id="DejaVuSans-50"/>
       </defs>
       <use xlink:href="#DejaVuSans-50"/>
       <use x="63.623047" xlink:href="#DejaVuSans-48"/>
       <use x="127.246094" xlink:href="#DejaVuSans-48"/>
       <use x="190.869141" xlink:href="#DejaVuSans-48"/>
       <use x="254.492188" xlink:href="#DejaVuSans-48"/>
       <use x="318.115234" xlink:href="#DejaVuSans-48"/>
      </g>
     </g>
    </g>
    <g id="xtick_6">
     <g id="line2d_11">
      <path clip-path="url(#p0628ea0300)" d="M 401.590269 676.46175 
L 401.590269 24.14175 
" style="fill:none;stroke:#ffffff;stroke-linecap:square;stroke-width:0.8;"/>
     </g>
     <g id="line2d_12">
      <g>
       <use style="fill:#555555;stroke:#555555;stroke-width:0.8;" x="401.590269" xlink:href="#mc35b3f53a1" y="676.46175"/>
      </g>
     </g>
     <g id="text_6">
      <!-- 250000 -->
      <g style="fill:#555555;" transform="translate(382.502769 691.060187)scale(0.1 -0.1)">
       <use xlink:href="#DejaVuSans-50"/>
       <use x="63.623047" xlink:href="#DejaVuSans-53"/>
       <use x="127.246094" xlink:href="#DejaVuSans-48"/>
       <use x="190.869141" xlink:href="#DejaVuSans-48"/>
       <use x="254.492188" xlink:href="#DejaVuSans-48"/>
       <use x="318.115234" xlink:href="#DejaVuSans-48"/>
      </g>
     </g>
    </g>
    <g id="xtick_7">
     <g id="line2d_13">
      <path clip-path="url(#p0628ea0300)" d="M 470.495823 676.46175 
L 470.495823 24.14175 
" style="fill:none;stroke:#ffffff;stroke-linecap:square;stroke-width:0.8;"/>
     </g>
     <g id="line2d_14">
      <g>
       <use style="fill:#555555;stroke:#555555;stroke-width:0.8;" x="470.495823" xlink:href="#mc35b3f53a1" y="676.46175"/>
      </g>
     </g>
     <g id="text_7">
      <!-- 300000 -->
      <g style="fill:#555555;" transform="translate(451.408323 691.060187)scale(0.1 -0.1)">
       <defs>
        <path d="M 40.578125 39.3125 
Q 47.65625 37.796875 51.625 33 
Q 55.609375 28.21875 55.609375 21.1875 
Q 55.609375 10.40625 48.1875 4.484375 
Q 40.765625 -1.421875 27.09375 -1.421875 
Q 22.515625 -1.421875 17.65625 -0.515625 
Q 12.796875 0.390625 7.625 2.203125 
L 7.625 11.71875 
Q 11.71875 9.328125 16.59375 8.109375 
Q 21.484375 6.890625 26.8125 6.890625 
Q 36.078125 6.890625 40.9375 10.546875 
Q 45.796875 14.203125 45.796875 21.1875 
Q 45.796875 27.640625 41.28125 31.265625 
Q 36.765625 34.90625 28.71875 34.90625 
L 20.21875 34.90625 
L 20.21875 43.015625 
L 29.109375 43.015625 
Q 36.375 43.015625 40.234375 45.921875 
Q 44.09375 48.828125 44.09375 54.296875 
Q 44.09375 59.90625 40.109375 62.90625 
Q 36.140625 65.921875 28.71875 65.921875 
Q 24.65625 65.921875 20.015625 65.03125 
Q 15.375 64.15625 9.8125 62.3125 
L 9.8125 71.09375 
Q 15.4375 72.65625 20.34375 73.4375 
Q 25.25 74.21875 29.59375 74.21875 
Q 40.828125 74.21875 47.359375 69.109375 
Q 53.90625 64.015625 53.90625 55.328125 
Q 53.90625 49.265625 50.4375 45.09375 
Q 46.96875 40.921875 40.578125 39.3125 
z
" id="DejaVuSans-51"/>
       </defs>
       <use xlink:href="#DejaVuSans-51"/>
       <use x="63.623047" xlink:href="#DejaVuSans-48"/>
       <use x="127.246094" xlink:href="#DejaVuSans-48"/>
       <use x="190.869141" xlink:href="#DejaVuSans-48"/>
       <use x="254.492188" xlink:href="#DejaVuSans-48"/>
       <use x="318.115234" xlink:href="#DejaVuSans-48"/>
      </g>
     </g>
    </g>
    <g id="xtick_8">
     <g id="line2d_15">
      <path clip-path="url(#p0628ea0300)" d="M 539.401377 676.46175 
L 539.401377 24.14175 
" style="fill:none;stroke:#ffffff;stroke-linecap:square;stroke-width:0.8;"/>
     </g>
     <g id="line2d_16">
      <g>
       <use style="fill:#555555;stroke:#555555;stroke-width:0.8;" x="539.401377" xlink:href="#mc35b3f53a1" y="676.46175"/>
      </g>
     </g>
     <g id="text_8">
      <!-- 350000 -->
      <g style="fill:#555555;" transform="translate(520.313877 691.060187)scale(0.1 -0.1)">
       <use xlink:href="#DejaVuSans-51"/>
       <use x="63.623047" xlink:href="#DejaVuSans-53"/>
       <use x="127.246094" xlink:href="#DejaVuSans-48"/>
       <use x="190.869141" xlink:href="#DejaVuSans-48"/>
       <use x="254.492188" xlink:href="#DejaVuSans-48"/>
       <use x="318.115234" xlink:href="#DejaVuSans-48"/>
      </g>
     </g>
    </g>
    <g id="xtick_9">
     <g id="line2d_17">
      <path clip-path="url(#p0628ea0300)" d="M 608.306931 676.46175 
L 608.306931 24.14175 
" style="fill:none;stroke:#ffffff;stroke-linecap:square;stroke-width:0.8;"/>
     </g>
     <g id="line2d_18">
      <g>
       <use style="fill:#555555;stroke:#555555;stroke-width:0.8;" x="608.306931" xlink:href="#mc35b3f53a1" y="676.46175"/>
      </g>
     </g>
     <g id="text_9">
      <!-- 400000 -->
      <g style="fill:#555555;" transform="translate(589.219431 691.060187)scale(0.1 -0.1)">
       <defs>
        <path d="M 37.796875 64.3125 
L 12.890625 25.390625 
L 37.796875 25.390625 
z
M 35.203125 72.90625 
L 47.609375 72.90625 
L 47.609375 25.390625 
L 58.015625 25.390625 
L 58.015625 17.1875 
L 47.609375 17.1875 
L 47.609375 0 
L 37.796875 0 
L 37.796875 17.1875 
L 4.890625 17.1875 
L 4.890625 26.703125 
z
" id="DejaVuSans-52"/>
       </defs>
       <use xlink:href="#DejaVuSans-52"/>
       <use x="63.623047" xlink:href="#DejaVuSans-48"/>
       <use x="127.246094" xlink:href="#DejaVuSans-48"/>
       <use x="190.869141" xlink:href="#DejaVuSans-48"/>
       <use x="254.492188" xlink:href="#DejaVuSans-48"/>
       <use x="318.115234" xlink:href="#DejaVuSans-48"/>
      </g>
     </g>
    </g>
    <g id="text_10">
     <!-- Poverty Line (Rp) -->
     <g style="fill:#555555;" transform="translate(284.399688 706.258)scale(0.12 -0.12)">
      <defs>
       <path d="M 19.671875 64.796875 
L 19.671875 37.40625 
L 32.078125 37.40625 
Q 38.96875 37.40625 42.71875 40.96875 
Q 46.484375 44.53125 46.484375 51.125 
Q 46.484375 57.671875 42.71875 61.234375 
Q 38.96875 64.796875 32.078125 64.796875 
z
M 9.8125 72.90625 
L 32.078125 72.90625 
Q 44.34375 72.90625 50.609375 67.359375 
Q 56.890625 61.8125 56.890625 51.125 
Q 56.890625 40.328125 50.609375 34.8125 
Q 44.34375 29.296875 32.078125 29.296875 
L 19.671875 29.296875 
L 19.671875 0 
L 9.8125 0 
z
" id="DejaVuSans-80"/>
       <path d="M 30.609375 48.390625 
Q 23.390625 48.390625 19.1875 42.75 
Q 14.984375 37.109375 14.984375 27.296875 
Q 14.984375 17.484375 19.15625 11.84375 
Q 23.34375 6.203125 30.609375 6.203125 
Q 37.796875 6.203125 41.984375 11.859375 
Q 46.1875 17.53125 46.1875 27.296875 
Q 46.1875 37.015625 41.984375 42.703125 
Q 37.796875 48.390625 30.609375 48.390625 
z
M 30.609375 56 
Q 42.328125 56 49.015625 48.375 
Q 55.71875 40.765625 55.71875 27.296875 
Q 55.71875 13.875 49.015625 6.21875 
Q 42.328125 -1.421875 30.609375 -1.421875 
Q 18.84375 -1.421875 12.171875 6.21875 
Q 5.515625 13.875 5.515625 27.296875 
Q 5.515625 40.765625 12.171875 48.375 
Q 18.84375 56 30.609375 56 
z
" id="DejaVuSans-111"/>
       <path d="M 2.984375 54.6875 
L 12.5 54.6875 
L 29.59375 8.796875 
L 46.6875 54.6875 
L 56.203125 54.6875 
L 35.6875 0 
L 23.484375 0 
z
" id="DejaVuSans-118"/>
       <path d="M 56.203125 29.59375 
L 56.203125 25.203125 
L 14.890625 25.203125 
Q 15.484375 15.921875 20.484375 11.0625 
Q 25.484375 6.203125 34.421875 6.203125 
Q 39.59375 6.203125 44.453125 7.46875 
Q 49.3125 8.734375 54.109375 11.28125 
L 54.109375 2.78125 
Q 49.265625 0.734375 44.1875 -0.34375 
Q 39.109375 -1.421875 33.890625 -1.421875 
Q 20.796875 -1.421875 13.15625 6.1875 
Q 5.515625 13.8125 5.515625 26.8125 
Q 5.515625 40.234375 12.765625 48.109375 
Q 20.015625 56 32.328125 56 
Q 43.359375 56 49.78125 48.890625 
Q 56.203125 41.796875 56.203125 29.59375 
z
M 47.21875 32.234375 
Q 47.125 39.59375 43.09375 43.984375 
Q 39.0625 48.390625 32.421875 48.390625 
Q 24.90625 48.390625 20.390625 44.140625 
Q 15.875 39.890625 15.1875 32.171875 
z
" id="DejaVuSans-101"/>
       <path d="M 41.109375 46.296875 
Q 39.59375 47.171875 37.8125 47.578125 
Q 36.03125 48 33.890625 48 
Q 26.265625 48 22.1875 43.046875 
Q 18.109375 38.09375 18.109375 28.8125 
L 18.109375 0 
L 9.078125 0 
L 9.078125 54.6875 
L 18.109375 54.6875 
L 18.109375 46.1875 
Q 20.953125 51.171875 25.484375 53.578125 
Q 30.03125 56 36.53125 56 
Q 37.453125 56 38.578125 55.875 
Q 39.703125 55.765625 41.0625 55.515625 
z
" id="DejaVuSans-114"/>
       <path d="M 18.3125 70.21875 
L 18.3125 54.6875 
L 36.8125 54.6875 
L 36.8125 47.703125 
L 18.3125 47.703125 
L 18.3125 18.015625 
Q 18.3125 11.328125 20.140625 9.421875 
Q 21.96875 7.515625 27.59375 7.515625 
L 36.8125 7.515625 
L 36.8125 0 
L 27.59375 0 
Q 17.1875 0 13.234375 3.875 
Q 9.28125 7.765625 9.28125 18.015625 
L 9.28125 47.703125 
L 2.6875 47.703125 
L 2.6875 54.6875 
L 9.28125 54.6875 
L 9.28125 70.21875 
z
" id="DejaVuSans-116"/>
       <path d="M 32.171875 -5.078125 
Q 28.375 -14.84375 24.75 -17.8125 
Q 21.140625 -20.796875 15.09375 -20.796875 
L 7.90625 -20.796875 
L 7.90625 -13.28125 
L 13.1875 -13.28125 
Q 16.890625 -13.28125 18.9375 -11.515625 
Q 21 -9.765625 23.484375 -3.21875 
L 25.09375 0.875 
L 2.984375 54.6875 
L 12.5 54.6875 
L 29.59375 11.921875 
L 46.6875 54.6875 
L 56.203125 54.6875 
z
" id="DejaVuSans-121"/>
       <path id="DejaVuSans-32"/>
       <path d="M 9.8125 72.90625 
L 19.671875 72.90625 
L 19.671875 8.296875 
L 55.171875 8.296875 
L 55.171875 0 
L 9.8125 0 
z
" id="DejaVuSans-76"/>
       <path d="M 9.421875 54.6875 
L 18.40625 54.6875 
L 18.40625 0 
L 9.421875 0 
z
M 9.421875 75.984375 
L 18.40625 75.984375 
L 18.40625 64.59375 
L 9.421875 64.59375 
z
" id="DejaVuSans-105"/>
       <path d="M 54.890625 33.015625 
L 54.890625 0 
L 45.90625 0 
L 45.90625 32.71875 
Q 45.90625 40.484375 42.875 44.328125 
Q 39.84375 48.1875 33.796875 48.1875 
Q 26.515625 48.1875 22.3125 43.546875 
Q 18.109375 38.921875 18.109375 30.90625 
L 18.109375 0 
L 9.078125 0 
L 9.078125 54.6875 
L 18.109375 54.6875 
L 18.109375 46.1875 
Q 21.34375 51.125 25.703125 53.5625 
Q 30.078125 56 35.796875 56 
Q 45.21875 56 50.046875 50.171875 
Q 54.890625 44.34375 54.890625 33.015625 
z
" id="DejaVuSans-110"/>
       <path d="M 31 75.875 
Q 24.46875 64.65625 21.28125 53.65625 
Q 18.109375 42.671875 18.109375 31.390625 
Q 18.109375 20.125 21.3125 9.0625 
Q 24.515625 -2 31 -13.1875 
L 23.1875 -13.1875 
Q 15.875 -1.703125 12.234375 9.375 
Q 8.59375 20.453125 8.59375 31.390625 
Q 8.59375 42.28125 12.203125 53.3125 
Q 15.828125 64.359375 23.1875 75.875 
z
" id="DejaVuSans-40"/>
       <path d="M 44.390625 34.1875 
Q 47.5625 33.109375 50.5625 29.59375 
Q 53.5625 26.078125 56.59375 19.921875 
L 66.609375 0 
L 56 0 
L 46.6875 18.703125 
Q 43.0625 26.03125 39.671875 28.421875 
Q 36.28125 30.8125 30.421875 30.8125 
L 19.671875 30.8125 
L 19.671875 0 
L 9.8125 0 
L 9.8125 72.90625 
L 32.078125 72.90625 
Q 44.578125 72.90625 50.734375 67.671875 
Q 56.890625 62.453125 56.890625 51.90625 
Q 56.890625 45.015625 53.6875 40.46875 
Q 50.484375 35.9375 44.390625 34.1875 
z
M 19.671875 64.796875 
L 19.671875 38.921875 
L 32.078125 38.921875 
Q 39.203125 38.921875 42.84375 42.21875 
Q 46.484375 45.515625 46.484375 51.90625 
Q 46.484375 58.296875 42.84375 61.546875 
Q 39.203125 64.796875 32.078125 64.796875 
z
" id="DejaVuSans-82"/>
       <path d="M 18.109375 8.203125 
L 18.109375 -20.796875 
L 9.078125 -20.796875 
L 9.078125 54.6875 
L 18.109375 54.6875 
L 18.109375 46.390625 
Q 20.953125 51.265625 25.265625 53.625 
Q 29.59375 56 35.59375 56 
Q 45.5625 56 51.78125 48.09375 
Q 58.015625 40.1875 58.015625 27.296875 
Q 58.015625 14.40625 51.78125 6.484375 
Q 45.5625 -1.421875 35.59375 -1.421875 
Q 29.59375 -1.421875 25.265625 0.953125 
Q 20.953125 3.328125 18.109375 8.203125 
z
M 48.6875 27.296875 
Q 48.6875 37.203125 44.609375 42.84375 
Q 40.53125 48.484375 33.40625 48.484375 
Q 26.265625 48.484375 22.1875 42.84375 
Q 18.109375 37.203125 18.109375 27.296875 
Q 18.109375 17.390625 22.1875 11.75 
Q 26.265625 6.109375 33.40625 6.109375 
Q 40.53125 6.109375 44.609375 11.75 
Q 48.6875 17.390625 48.6875 27.296875 
z
" id="DejaVuSans-112"/>
       <path d="M 8.015625 75.875 
L 15.828125 75.875 
Q 23.140625 64.359375 26.78125 53.3125 
Q 30.421875 42.28125 30.421875 31.390625 
Q 30.421875 20.453125 26.78125 9.375 
Q 23.140625 -1.703125 15.828125 -13.1875 
L 8.015625 -13.1875 
Q 14.5 -2 17.703125 9.0625 
Q 20.90625 20.125 20.90625 31.390625 
Q 20.90625 42.671875 17.703125 53.65625 
Q 14.5 64.65625 8.015625 75.875 
z
" id="DejaVuSans-41"/>
      </defs>
      <use xlink:href="#DejaVuSans-80"/>
      <use x="56.677734" xlink:href="#DejaVuSans-111"/>
      <use x="117.859375" xlink:href="#DejaVuSans-118"/>
      <use x="177.039062" xlink:href="#DejaVuSans-101"/>
      <use x="238.5625" xlink:href="#DejaVuSans-114"/>
      <use x="279.675781" xlink:href="#DejaVuSans-116"/>
      <use x="318.884766" xlink:href="#DejaVuSans-121"/>
      <use x="378.064453" xlink:href="#DejaVuSans-32"/>
      <use x="409.851562" xlink:href="#DejaVuSans-76"/>
      <use x="465.564453" xlink:href="#DejaVuSans-105"/>
      <use x="493.347656" xlink:href="#DejaVuSans-110"/>
      <use x="556.726562" xlink:href="#DejaVuSans-101"/>
      <use x="618.25" xlink:href="#DejaVuSans-32"/>
      <use x="650.037109" xlink:href="#DejaVuSans-40"/>
      <use x="689.050781" xlink:href="#DejaVuSans-82"/>
      <use x="758.533203" xlink:href="#DejaVuSans-112"/>
      <use x="822.009766" xlink:href="#DejaVuSans-41"/>
     </g>
    </g>
   </g>
   <g id="matplotlib.axis_2">
    <g id="ytick_1">
     <g id="line2d_19">
      <path clip-path="url(#p0628ea0300)" d="M 57.0625 632.69136 
L 615.0625 632.69136 
" style="fill:none;stroke:#ffffff;stroke-linecap:square;stroke-width:0.8;"/>
     </g>
     <g id="line2d_20">
      <defs>
       <path d="M 0 0 
L -3.5 0 
" id="m278a53c1e2" style="stroke:#555555;stroke-width:0.8;"/>
      </defs>
      <g>
       <use style="fill:#555555;stroke:#555555;stroke-width:0.8;" x="57.0625" xlink:href="#m278a53c1e2" y="632.69136"/>
      </g>
     </g>
     <g id="text_11">
      <!-- Q1 2011 -->
      <g style="fill:#555555;" transform="translate(7.2 636.490579)scale(0.1 -0.1)">
       <defs>
        <path d="M 39.40625 66.21875 
Q 28.65625 66.21875 22.328125 58.203125 
Q 16.015625 50.203125 16.015625 36.375 
Q 16.015625 22.609375 22.328125 14.59375 
Q 28.65625 6.59375 39.40625 6.59375 
Q 50.140625 6.59375 56.421875 14.59375 
Q 62.703125 22.609375 62.703125 36.375 
Q 62.703125 50.203125 56.421875 58.203125 
Q 50.140625 66.21875 39.40625 66.21875 
z
M 53.21875 1.3125 
L 66.21875 -12.890625 
L 54.296875 -12.890625 
L 43.5 -1.21875 
Q 41.890625 -1.3125 41.03125 -1.359375 
Q 40.1875 -1.421875 39.40625 -1.421875 
Q 24.03125 -1.421875 14.8125 8.859375 
Q 5.609375 19.140625 5.609375 36.375 
Q 5.609375 53.65625 14.8125 63.9375 
Q 24.03125 74.21875 39.40625 74.21875 
Q 54.734375 74.21875 63.90625 63.9375 
Q 73.09375 53.65625 73.09375 36.375 
Q 73.09375 23.6875 67.984375 14.640625 
Q 62.890625 5.609375 53.21875 1.3125 
z
" id="DejaVuSans-81"/>
       </defs>
       <use xlink:href="#DejaVuSans-81"/>
       <use x="78.710938" xlink:href="#DejaVuSans-49"/>
       <use x="142.333984" xlink:href="#DejaVuSans-32"/>
       <use x="174.121094" xlink:href="#DejaVuSans-50"/>
       <use x="237.744141" xlink:href="#DejaVuSans-48"/>
       <use x="301.367188" xlink:href="#DejaVuSans-49"/>
       <use x="364.990234" xlink:href="#DejaVuSans-49"/>
      </g>
     </g>
    </g>
    <g id="ytick_2">
     <g id="line2d_21">
      <path clip-path="url(#p0628ea0300)" d="M 57.0625 585.626425 
L 615.0625 585.626425 
" style="fill:none;stroke:#ffffff;stroke-linecap:square;stroke-width:0.8;"/>
     </g>
     <g id="line2d_22">
      <g>
       <use style="fill:#555555;stroke:#555555;stroke-width:0.8;" x="57.0625" xlink:href="#m278a53c1e2" y="585.626425"/>
      </g>
     </g>
     <g id="text_12">
      <!-- Q3 2011 -->
      <g style="fill:#555555;" transform="translate(7.2 589.425644)scale(0.1 -0.1)">
       <use xlink:href="#DejaVuSans-81"/>
       <use x="78.710938" xlink:href="#DejaVuSans-51"/>
       <use x="142.333984" xlink:href="#DejaVuSans-32"/>
       <use x="174.121094" xlink:href="#DejaVuSans-50"/>
       <use x="237.744141" xlink:href="#DejaVuSans-48"/>
       <use x="301.367188" xlink:href="#DejaVuSans-49"/>
       <use x="364.990234" xlink:href="#DejaVuSans-49"/>
      </g>
     </g>
    </g>
    <g id="ytick_3">
     <g id="line2d_23">
      <path clip-path="url(#p0628ea0300)" d="M 57.0625 538.56149 
L 615.0625 538.56149 
" style="fill:none;stroke:#ffffff;stroke-linecap:square;stroke-width:0.8;"/>
     </g>
     <g id="line2d_24">
      <g>
       <use style="fill:#555555;stroke:#555555;stroke-width:0.8;" x="57.0625" xlink:href="#m278a53c1e2" y="538.56149"/>
      </g>
     </g>
     <g id="text_13">
      <!-- Q1 2012 -->
      <g style="fill:#555555;" transform="translate(7.2 542.360709)scale(0.1 -0.1)">
       <use xlink:href="#DejaVuSans-81"/>
       <use x="78.710938" xlink:href="#DejaVuSans-49"/>
       <use x="142.333984" xlink:href="#DejaVuSans-32"/>
       <use x="174.121094" xlink:href="#DejaVuSans-50"/>
       <use x="237.744141" xlink:href="#DejaVuSans-48"/>
       <use x="301.367188" xlink:href="#DejaVuSans-49"/>
       <use x="364.990234" xlink:href="#DejaVuSans-50"/>
      </g>
     </g>
    </g>
    <g id="ytick_4">
     <g id="line2d_25">
      <path clip-path="url(#p0628ea0300)" d="M 57.0625 491.496555 
L 615.0625 491.496555 
" style="fill:none;stroke:#ffffff;stroke-linecap:square;stroke-width:0.8;"/>
     </g>
     <g id="line2d_26">
      <g>
       <use style="fill:#555555;stroke:#555555;stroke-width:0.8;" x="57.0625" xlink:href="#m278a53c1e2" y="491.496555"/>
      </g>
     </g>
     <g id="text_14">
      <!-- Q3 2012 -->
      <g style="fill:#555555;" transform="translate(7.2 495.295774)scale(0.1 -0.1)">
       <use xlink:href="#DejaVuSans-81"/>
       <use x="78.710938" xlink:href="#DejaVuSans-51"/>
       <use x="142.333984" xlink:href="#DejaVuSans-32"/>
       <use x="174.121094" xlink:href="#DejaVuSans-50"/>
       <use x="237.744141" xlink:href="#DejaVuSans-48"/>
       <use x="301.367188" xlink:href="#DejaVuSans-49"/>
       <use x="364.990234" xlink:href="#DejaVuSans-50"/>
      </g>
     </g>
    </g>
    <g id="ytick_5">
     <g id="line2d_27">
      <path clip-path="url(#p0628ea0300)" d="M 57.0625 444.43162 
L 615.0625 444.43162 
" style="fill:none;stroke:#ffffff;stroke-linecap:square;stroke-width:0.8;"/>
     </g>
     <g id="line2d_28">
      <g>
       <use style="fill:#555555;stroke:#555555;stroke-width:0.8;" x="57.0625" xlink:href="#m278a53c1e2" y="444.43162"/>
      </g>
     </g>
     <g id="text_15">
      <!-- Q1 2013 -->
      <g style="fill:#555555;" transform="translate(7.2 448.230839)scale(0.1 -0.1)">
       <use xlink:href="#DejaVuSans-81"/>
       <use x="78.710938" xlink:href="#DejaVuSans-49"/>
       <use x="142.333984" xlink:href="#DejaVuSans-32"/>
       <use x="174.121094" xlink:href="#DejaVuSans-50"/>
       <use x="237.744141" xlink:href="#DejaVuSans-48"/>
       <use x="301.367188" xlink:href="#DejaVuSans-49"/>
       <use x="364.990234" xlink:href="#DejaVuSans-51"/>
      </g>
     </g>
    </g>
    <g id="ytick_6">
     <g id="line2d_29">
      <path clip-path="url(#p0628ea0300)" d="M 57.0625 397.366685 
L 615.0625 397.366685 
" style="fill:none;stroke:#ffffff;stroke-linecap:square;stroke-width:0.8;"/>
     </g>
     <g id="line2d_30">
      <g>
       <use style="fill:#555555;stroke:#555555;stroke-width:0.8;" x="57.0625" xlink:href="#m278a53c1e2" y="397.366685"/>
      </g>
     </g>
     <g id="text_16">
      <!-- Q3 2013 -->
      <g style="fill:#555555;" transform="translate(7.2 401.165904)scale(0.1 -0.1)">
       <use xlink:href="#DejaVuSans-81"/>
       <use x="78.710938" xlink:href="#DejaVuSans-51"/>
       <use x="142.333984" xlink:href="#DejaVuSans-32"/>
       <use x="174.121094" xlink:href="#DejaVuSans-50"/>
       <use x="237.744141" xlink:href="#DejaVuSans-48"/>
       <use x="301.367188" xlink:href="#DejaVuSans-49"/>
       <use x="364.990234" xlink:href="#DejaVuSans-51"/>
      </g>
     </g>
    </g>
    <g id="ytick_7">
     <g id="line2d_31">
      <path clip-path="url(#p0628ea0300)" d="M 57.0625 350.30175 
L 615.0625 350.30175 
" style="fill:none;stroke:#ffffff;stroke-linecap:square;stroke-width:0.8;"/>
     </g>
     <g id="line2d_32">
      <g>
       <use style="fill:#555555;stroke:#555555;stroke-width:0.8;" x="57.0625" xlink:href="#m278a53c1e2" y="350.30175"/>
      </g>
     </g>
     <g id="text_17">
      <!-- Q1 2014 -->
      <g style="fill:#555555;" transform="translate(7.2 354.100969)scale(0.1 -0.1)">
       <use xlink:href="#DejaVuSans-81"/>
       <use x="78.710938" xlink:href="#DejaVuSans-49"/>
       <use x="142.333984" xlink:href="#DejaVuSans-32"/>
       <use x="174.121094" xlink:href="#DejaVuSans-50"/>
       <use x="237.744141" xlink:href="#DejaVuSans-48"/>
       <use x="301.367188" xlink:href="#DejaVuSans-49"/>
       <use x="364.990234" xlink:href="#DejaVuSans-52"/>
      </g>
     </g>
    </g>
    <g id="ytick_8">
     <g id="line2d_33">
      <path clip-path="url(#p0628ea0300)" d="M 57.0625 303.236815 
L 615.0625 303.236815 
" style="fill:none;stroke:#ffffff;stroke-linecap:square;stroke-width:0.8;"/>
     </g>
     <g id="line2d_34">
      <g>
       <use style="fill:#555555;stroke:#555555;stroke-width:0.8;" x="57.0625" xlink:href="#m278a53c1e2" y="303.236815"/>
      </g>
     </g>
     <g id="text_18">
      <!-- Q3 2014 -->
      <g style="fill:#555555;" transform="translate(7.2 307.036034)scale(0.1 -0.1)">
       <use xlink:href="#DejaVuSans-81"/>
       <use x="78.710938" xlink:href="#DejaVuSans-51"/>
       <use x="142.333984" xlink:href="#DejaVuSans-32"/>
       <use x="174.121094" xlink:href="#DejaVuSans-50"/>
       <use x="237.744141" xlink:href="#DejaVuSans-48"/>
       <use x="301.367188" xlink:href="#DejaVuSans-49"/>
       <use x="364.990234" xlink:href="#DejaVuSans-52"/>
      </g>
     </g>
    </g>
    <g id="ytick_9">
     <g id="line2d_35">
      <path clip-path="url(#p0628ea0300)" d="M 57.0625 256.17188 
L 615.0625 256.17188 
" style="fill:none;stroke:#ffffff;stroke-linecap:square;stroke-width:0.8;"/>
     </g>
     <g id="line2d_36">
      <g>
       <use style="fill:#555555;stroke:#555555;stroke-width:0.8;" x="57.0625" xlink:href="#m278a53c1e2" y="256.17188"/>
      </g>
     </g>
     <g id="text_19">
      <!-- Q1 2015 -->
      <g style="fill:#555555;" transform="translate(7.2 259.971099)scale(0.1 -0.1)">
       <use xlink:href="#DejaVuSans-81"/>
       <use x="78.710938" xlink:href="#DejaVuSans-49"/>
       <use x="142.333984" xlink:href="#DejaVuSans-32"/>
       <use x="174.121094" xlink:href="#DejaVuSans-50"/>
       <use x="237.744141" xlink:href="#DejaVuSans-48"/>
       <use x="301.367188" xlink:href="#DejaVuSans-49"/>
       <use x="364.990234" xlink:href="#DejaVuSans-53"/>
      </g>
     </g>
    </g>
    <g id="ytick_10">
     <g id="line2d_37">
      <path clip-path="url(#p0628ea0300)" d="M 57.0625 209.106945 
L 615.0625 209.106945 
" style="fill:none;stroke:#ffffff;stroke-linecap:square;stroke-width:0.8;"/>
     </g>
     <g id="line2d_38">
      <g>
       <use style="fill:#555555;stroke:#555555;stroke-width:0.8;" x="57.0625" xlink:href="#m278a53c1e2" y="209.106945"/>
      </g>
     </g>
     <g id="text_20">
      <!-- Q3 2015 -->
      <g style="fill:#555555;" transform="translate(7.2 212.906164)scale(0.1 -0.1)">
       <use xlink:href="#DejaVuSans-81"/>
       <use x="78.710938" xlink:href="#DejaVuSans-51"/>
       <use x="142.333984" xlink:href="#DejaVuSans-32"/>
       <use x="174.121094" xlink:href="#DejaVuSans-50"/>
       <use x="237.744141" xlink:href="#DejaVuSans-48"/>
       <use x="301.367188" xlink:href="#DejaVuSans-49"/>
       <use x="364.990234" xlink:href="#DejaVuSans-53"/>
      </g>
     </g>
    </g>
    <g id="ytick_11">
     <g id="line2d_39">
      <path clip-path="url(#p0628ea0300)" d="M 57.0625 162.04201 
L 615.0625 162.04201 
" style="fill:none;stroke:#ffffff;stroke-linecap:square;stroke-width:0.8;"/>
     </g>
     <g id="line2d_40">
      <g>
       <use style="fill:#555555;stroke:#555555;stroke-width:0.8;" x="57.0625" xlink:href="#m278a53c1e2" y="162.04201"/>
      </g>
     </g>
     <g id="text_21">
      <!-- Q1 2016 -->
      <g style="fill:#555555;" transform="translate(7.2 165.841228)scale(0.1 -0.1)">
       <defs>
        <path d="M 33.015625 40.375 
Q 26.375 40.375 22.484375 35.828125 
Q 18.609375 31.296875 18.609375 23.390625 
Q 18.609375 15.53125 22.484375 10.953125 
Q 26.375 6.390625 33.015625 6.390625 
Q 39.65625 6.390625 43.53125 10.953125 
Q 47.40625 15.53125 47.40625 23.390625 
Q 47.40625 31.296875 43.53125 35.828125 
Q 39.65625 40.375 33.015625 40.375 
z
M 52.59375 71.296875 
L 52.59375 62.3125 
Q 48.875 64.0625 45.09375 64.984375 
Q 41.3125 65.921875 37.59375 65.921875 
Q 27.828125 65.921875 22.671875 59.328125 
Q 17.53125 52.734375 16.796875 39.40625 
Q 19.671875 43.65625 24.015625 45.921875 
Q 28.375 48.1875 33.59375 48.1875 
Q 44.578125 48.1875 50.953125 41.515625 
Q 57.328125 34.859375 57.328125 23.390625 
Q 57.328125 12.15625 50.6875 5.359375 
Q 44.046875 -1.421875 33.015625 -1.421875 
Q 20.359375 -1.421875 13.671875 8.265625 
Q 6.984375 17.96875 6.984375 36.375 
Q 6.984375 53.65625 15.1875 63.9375 
Q 23.390625 74.21875 37.203125 74.21875 
Q 40.921875 74.21875 44.703125 73.484375 
Q 48.484375 72.75 52.59375 71.296875 
z
" id="DejaVuSans-54"/>
       </defs>
       <use xlink:href="#DejaVuSans-81"/>
       <use x="78.710938" xlink:href="#DejaVuSans-49"/>
       <use x="142.333984" xlink:href="#DejaVuSans-32"/>
       <use x="174.121094" xlink:href="#DejaVuSans-50"/>
       <use x="237.744141" xlink:href="#DejaVuSans-48"/>
       <use x="301.367188" xlink:href="#DejaVuSans-49"/>
       <use x="364.990234" xlink:href="#DejaVuSans-54"/>
      </g>
     </g>
    </g>
    <g id="ytick_12">
     <g id="line2d_41">
      <path clip-path="url(#p0628ea0300)" d="M 57.0625 114.977075 
L 615.0625 114.977075 
" style="fill:none;stroke:#ffffff;stroke-linecap:square;stroke-width:0.8;"/>
     </g>
     <g id="line2d_42">
      <g>
       <use style="fill:#555555;stroke:#555555;stroke-width:0.8;" x="57.0625" xlink:href="#m278a53c1e2" y="114.977075"/>
      </g>
     </g>
     <g id="text_22">
      <!-- Q3 2016 -->
      <g style="fill:#555555;" transform="translate(7.2 118.776293)scale(0.1 -0.1)">
       <use xlink:href="#DejaVuSans-81"/>
       <use x="78.710938" xlink:href="#DejaVuSans-51"/>
       <use x="142.333984" xlink:href="#DejaVuSans-32"/>
       <use x="174.121094" xlink:href="#DejaVuSans-50"/>
       <use x="237.744141" xlink:href="#DejaVuSans-48"/>
       <use x="301.367188" xlink:href="#DejaVuSans-49"/>
       <use x="364.990234" xlink:href="#DejaVuSans-54"/>
      </g>
     </g>
    </g>
    <g id="ytick_13">
     <g id="line2d_43">
      <path clip-path="url(#p0628ea0300)" d="M 57.0625 67.91214 
L 615.0625 67.91214 
" style="fill:none;stroke:#ffffff;stroke-linecap:square;stroke-width:0.8;"/>
     </g>
     <g id="line2d_44">
      <g>
       <use style="fill:#555555;stroke:#555555;stroke-width:0.8;" x="57.0625" xlink:href="#m278a53c1e2" y="67.91214"/>
      </g>
     </g>
     <g id="text_23">
      <!-- Q1 2017 -->
      <g style="fill:#555555;" transform="translate(7.2 71.711358)scale(0.1 -0.1)">
       <defs>
        <path d="M 8.203125 72.90625 
L 55.078125 72.90625 
L 55.078125 68.703125 
L 28.609375 0 
L 18.3125 0 
L 43.21875 64.59375 
L 8.203125 64.59375 
z
" id="DejaVuSans-55"/>
       </defs>
       <use xlink:href="#DejaVuSans-81"/>
       <use x="78.710938" xlink:href="#DejaVuSans-49"/>
       <use x="142.333984" xlink:href="#DejaVuSans-32"/>
       <use x="174.121094" xlink:href="#DejaVuSans-50"/>
       <use x="237.744141" xlink:href="#DejaVuSans-48"/>
       <use x="301.367188" xlink:href="#DejaVuSans-49"/>
       <use x="364.990234" xlink:href="#DejaVuSans-55"/>
      </g>
     </g>
    </g>
   </g>
   <g id="patch_3">
    <path clip-path="url(#p0628ea0300)" d="M 57.0625 646.810841 
L 351.143838 646.810841 
L 351.143838 632.69136 
L 57.0625 632.69136 
z
" style="fill:#e24a33;"/>
   </g>
   <g id="patch_4">
    <path clip-path="url(#p0628ea0300)" d="M 57.0625 599.745906 
L 364.630281 599.745906 
L 364.630281 585.626425 
L 57.0625 585.626425 
z
" style="fill:#e24a33;"/>
   </g>
   <g id="patch_5">
    <path clip-path="url(#p0628ea0300)" d="M 57.0625 552.680971 
L 372.961086 552.680971 
L 372.961086 538.56149 
L 57.0625 538.56149 
z
" style="fill:#e24a33;"/>
   </g>
   <g id="patch_6">
    <path clip-path="url(#p0628ea0300)" d="M 57.0625 505.616036 
L 388.417388 505.616036 
L 388.417388 491.496555 
L 57.0625 491.496555 
z
" style="fill:#e24a33;"/>
   </g>
   <g id="patch_7">
    <path clip-path="url(#p0628ea0300)" d="M 57.0625 458.551101 
L 406.101254 458.551101 
L 406.101254 444.43162 
L 57.0625 444.43162 
z
" style="fill:#e24a33;"/>
   </g>
   <g id="patch_8">
    <path clip-path="url(#p0628ea0300)" d="M 57.0625 411.486166 
L 437.116595 411.486166 
L 437.116595 397.366685 
L 57.0625 397.366685 
z
" style="fill:#e24a33;"/>
   </g>
   <g id="patch_9">
    <path clip-path="url(#p0628ea0300)" d="M 57.0625 364.421231 
L 451.335945 364.421231 
L 451.335945 350.30175 
L 57.0625 350.30175 
z
" style="fill:#e24a33;"/>
   </g>
   <g id="patch_10">
    <path clip-path="url(#p0628ea0300)" d="M 57.0625 317.356295 
L 465.921872 317.356295 
L 465.921872 303.236815 
L 57.0625 303.236815 
z
" style="fill:#e24a33;"/>
   </g>
   <g id="patch_11">
    <path clip-path="url(#p0628ea0300)" d="M 57.0625 270.29136 
L 495.137827 270.29136 
L 495.137827 256.17188 
L 57.0625 256.17188 
z
" style="fill:#e24a33;"/>
   </g>
   <g id="patch_12">
    <path clip-path="url(#p0628ea0300)" d="M 57.0625 223.226425 
L 516.020344 223.226425 
L 516.020344 209.106945 
L 57.0625 209.106945 
z
" style="fill:#e24a33;"/>
   </g>
   <g id="patch_13">
    <path clip-path="url(#p0628ea0300)" d="M 57.0625 176.16149 
L 530.645923 176.16149 
L 530.645923 162.04201 
L 57.0625 162.04201 
z
" style="fill:#e24a33;"/>
   </g>
   <g id="patch_14">
    <path clip-path="url(#p0628ea0300)" d="M 57.0625 129.096555 
L 539.980183 129.096555 
L 539.980183 114.977075 
L 57.0625 114.977075 
z
" style="fill:#e24a33;"/>
   </g>
   <g id="patch_15">
    <path clip-path="url(#p0628ea0300)" d="M 57.0625 82.03162 
L 555.244142 82.03162 
L 555.244142 67.91214 
L 57.0625 67.91214 
z
" style="fill:#e24a33;"/>
   </g>
   <g id="patch_16">
    <path clip-path="url(#p0628ea0300)" d="M 57.0625 632.69136 
L 405.745977 632.69136 
L 405.745977 618.57188 
L 57.0625 618.57188 
z
" style="fill:#348abd;"/>
   </g>
   <g id="patch_17">
    <path clip-path="url(#p0628ea0300)" d="M 57.0625 585.626425 
L 420.324091 585.626425 
L 420.324091 571.506945 
L 57.0625 571.506945 
z
" style="fill:#348abd;"/>
   </g>
   <g id="patch_18">
    <path clip-path="url(#p0628ea0300)" d="M 57.0625 538.56149 
L 425.579779 538.56149 
L 425.579779 524.44201 
L 57.0625 524.44201 
z
" style="fill:#348abd;"/>
   </g>
   <g id="patch_19">
    <path clip-path="url(#p0628ea0300)" d="M 57.0625 491.496555 
L 439.325693 491.496555 
L 439.325693 477.377075 
L 57.0625 477.377075 
z
" style="fill:#348abd;"/>
   </g>
   <g id="patch_20">
    <path clip-path="url(#p0628ea0300)" d="M 57.0625 444.43162 
L 455.394358 444.43162 
L 455.394358 430.31214 
L 57.0625 430.31214 
z
" style="fill:#348abd;"/>
   </g>
   <g id="patch_21">
    <path clip-path="url(#p0628ea0300)" d="M 57.0625 397.366685 
L 482.659031 397.366685 
L 482.659031 383.247205 
L 57.0625 383.247205 
z
" style="fill:#348abd;"/>
   </g>
   <g id="patch_22">
    <path clip-path="url(#p0628ea0300)" d="M 57.0625 350.30175 
L 496.010171 350.30175 
L 496.010171 336.182269 
L 57.0625 336.182269 
z
" style="fill:#348abd;"/>
   </g>
   <g id="patch_23">
    <path clip-path="url(#p0628ea0300)" d="M 57.0625 303.236815 
L 507.50224 303.236815 
L 507.50224 289.117334 
L 57.0625 289.117334 
z
" style="fill:#348abd;"/>
   </g>
   <g id="patch_24">
    <path clip-path="url(#p0628ea0300)" d="M 57.0625 256.17188 
L 529.122046 256.17188 
L 529.122046 242.052399 
L 57.0625 242.052399 
z
" style="fill:#348abd;"/>
   </g>
   <g id="patch_25">
    <path clip-path="url(#p0628ea0300)" d="M 57.0625 209.106945 
L 548.190969 209.106945 
L 548.190969 194.987464 
L 57.0625 194.987464 
z
" style="fill:#348abd;"/>
   </g>
   <g id="patch_26">
    <path clip-path="url(#p0628ea0300)" d="M 57.0625 162.04201 
L 559.420604 162.04201 
L 559.420604 147.922529 
L 57.0625 147.922529 
z
" style="fill:#348abd;"/>
   </g>
   <g id="patch_27">
    <path clip-path="url(#p0628ea0300)" d="M 57.0625 114.977075 
L 569.876925 114.977075 
L 569.876925 100.857594 
L 57.0625 100.857594 
z
" style="fill:#348abd;"/>
   </g>
   <g id="patch_28">
    <path clip-path="url(#p0628ea0300)" d="M 57.0625 67.91214 
L 588.491071 67.91214 
L 588.491071 53.792659 
L 57.0625 53.792659 
z
" style="fill:#348abd;"/>
   </g>
   <g id="patch_29">
    <path d="M 57.0625 676.46175 
L 57.0625 24.14175 
" style="fill:none;stroke:#ffffff;stroke-linecap:square;stroke-linejoin:miter;"/>
   </g>
   <g id="patch_30">
    <path d="M 615.0625 676.46175 
L 615.0625 24.14175 
" style="fill:none;stroke:#ffffff;stroke-linecap:square;stroke-linejoin:miter;"/>
   </g>
   <g id="patch_31">
    <path d="M 57.0625 676.46175 
L 615.0625 676.46175 
" style="fill:none;stroke:#ffffff;stroke-linecap:square;stroke-linejoin:miter;"/>
   </g>
   <g id="patch_32">
    <path d="M 57.0625 24.14175 
L 615.0625 24.14175 
" style="fill:none;stroke:#ffffff;stroke-linecap:square;stroke-linejoin:miter;"/>
   </g>
   <g id="text_24">
    <!-- Poverty Line Comparison in Urban and Village Area -->
    <g transform="translate(152.081125 18.14175)scale(0.144 -0.144)">
     <defs>
      <path d="M 64.40625 67.28125 
L 64.40625 56.890625 
Q 59.421875 61.53125 53.78125 63.8125 
Q 48.140625 66.109375 41.796875 66.109375 
Q 29.296875 66.109375 22.65625 58.46875 
Q 16.015625 50.828125 16.015625 36.375 
Q 16.015625 21.96875 22.65625 14.328125 
Q 29.296875 6.6875 41.796875 6.6875 
Q 48.140625 6.6875 53.78125 8.984375 
Q 59.421875 11.28125 64.40625 15.921875 
L 64.40625 5.609375 
Q 59.234375 2.09375 53.4375 0.328125 
Q 47.65625 -1.421875 41.21875 -1.421875 
Q 24.65625 -1.421875 15.125 8.703125 
Q 5.609375 18.84375 5.609375 36.375 
Q 5.609375 53.953125 15.125 64.078125 
Q 24.65625 74.21875 41.21875 74.21875 
Q 47.75 74.21875 53.53125 72.484375 
Q 59.328125 70.75 64.40625 67.28125 
z
" id="DejaVuSans-67"/>
      <path d="M 52 44.1875 
Q 55.375 50.25 60.0625 53.125 
Q 64.75 56 71.09375 56 
Q 79.640625 56 84.28125 50.015625 
Q 88.921875 44.046875 88.921875 33.015625 
L 88.921875 0 
L 79.890625 0 
L 79.890625 32.71875 
Q 79.890625 40.578125 77.09375 44.375 
Q 74.3125 48.1875 68.609375 48.1875 
Q 61.625 48.1875 57.5625 43.546875 
Q 53.515625 38.921875 53.515625 30.90625 
L 53.515625 0 
L 44.484375 0 
L 44.484375 32.71875 
Q 44.484375 40.625 41.703125 44.40625 
Q 38.921875 48.1875 33.109375 48.1875 
Q 26.21875 48.1875 22.15625 43.53125 
Q 18.109375 38.875 18.109375 30.90625 
L 18.109375 0 
L 9.078125 0 
L 9.078125 54.6875 
L 18.109375 54.6875 
L 18.109375 46.1875 
Q 21.1875 51.21875 25.484375 53.609375 
Q 29.78125 56 35.6875 56 
Q 41.65625 56 45.828125 52.96875 
Q 50 49.953125 52 44.1875 
z
" id="DejaVuSans-109"/>
      <path d="M 34.28125 27.484375 
Q 23.390625 27.484375 19.1875 25 
Q 14.984375 22.515625 14.984375 16.5 
Q 14.984375 11.71875 18.140625 8.90625 
Q 21.296875 6.109375 26.703125 6.109375 
Q 34.1875 6.109375 38.703125 11.40625 
Q 43.21875 16.703125 43.21875 25.484375 
L 43.21875 27.484375 
z
M 52.203125 31.203125 
L 52.203125 0 
L 43.21875 0 
L 43.21875 8.296875 
Q 40.140625 3.328125 35.546875 0.953125 
Q 30.953125 -1.421875 24.3125 -1.421875 
Q 15.921875 -1.421875 10.953125 3.296875 
Q 6 8.015625 6 15.921875 
Q 6 25.140625 12.171875 29.828125 
Q 18.359375 34.515625 30.609375 34.515625 
L 43.21875 34.515625 
L 43.21875 35.40625 
Q 43.21875 41.609375 39.140625 45 
Q 35.0625 48.390625 27.6875 48.390625 
Q 23 48.390625 18.546875 47.265625 
Q 14.109375 46.140625 10.015625 43.890625 
L 10.015625 52.203125 
Q 14.9375 54.109375 19.578125 55.046875 
Q 24.21875 56 28.609375 56 
Q 40.484375 56 46.34375 49.84375 
Q 52.203125 43.703125 52.203125 31.203125 
z
" id="DejaVuSans-97"/>
      <path d="M 44.28125 53.078125 
L 44.28125 44.578125 
Q 40.484375 46.53125 36.375 47.5 
Q 32.28125 48.484375 27.875 48.484375 
Q 21.1875 48.484375 17.84375 46.4375 
Q 14.5 44.390625 14.5 40.28125 
Q 14.5 37.15625 16.890625 35.375 
Q 19.28125 33.59375 26.515625 31.984375 
L 29.59375 31.296875 
Q 39.15625 29.25 43.1875 25.515625 
Q 47.21875 21.78125 47.21875 15.09375 
Q 47.21875 7.46875 41.1875 3.015625 
Q 35.15625 -1.421875 24.609375 -1.421875 
Q 20.21875 -1.421875 15.453125 -0.5625 
Q 10.6875 0.296875 5.421875 2 
L 5.421875 11.28125 
Q 10.40625 8.6875 15.234375 7.390625 
Q 20.0625 6.109375 24.8125 6.109375 
Q 31.15625 6.109375 34.5625 8.28125 
Q 37.984375 10.453125 37.984375 14.40625 
Q 37.984375 18.0625 35.515625 20.015625 
Q 33.0625 21.96875 24.703125 23.78125 
L 21.578125 24.515625 
Q 13.234375 26.265625 9.515625 29.90625 
Q 5.8125 33.546875 5.8125 39.890625 
Q 5.8125 47.609375 11.28125 51.796875 
Q 16.75 56 26.8125 56 
Q 31.78125 56 36.171875 55.265625 
Q 40.578125 54.546875 44.28125 53.078125 
z
" id="DejaVuSans-115"/>
      <path d="M 8.6875 72.90625 
L 18.609375 72.90625 
L 18.609375 28.609375 
Q 18.609375 16.890625 22.84375 11.734375 
Q 27.09375 6.59375 36.625 6.59375 
Q 46.09375 6.59375 50.34375 11.734375 
Q 54.59375 16.890625 54.59375 28.609375 
L 54.59375 72.90625 
L 64.5 72.90625 
L 64.5 27.390625 
Q 64.5 13.140625 57.4375 5.859375 
Q 50.390625 -1.421875 36.625 -1.421875 
Q 22.796875 -1.421875 15.734375 5.859375 
Q 8.6875 13.140625 8.6875 27.390625 
z
" id="DejaVuSans-85"/>
      <path d="M 48.6875 27.296875 
Q 48.6875 37.203125 44.609375 42.84375 
Q 40.53125 48.484375 33.40625 48.484375 
Q 26.265625 48.484375 22.1875 42.84375 
Q 18.109375 37.203125 18.109375 27.296875 
Q 18.109375 17.390625 22.1875 11.75 
Q 26.265625 6.109375 33.40625 6.109375 
Q 40.53125 6.109375 44.609375 11.75 
Q 48.6875 17.390625 48.6875 27.296875 
z
M 18.109375 46.390625 
Q 20.953125 51.265625 25.265625 53.625 
Q 29.59375 56 35.59375 56 
Q 45.5625 56 51.78125 48.09375 
Q 58.015625 40.1875 58.015625 27.296875 
Q 58.015625 14.40625 51.78125 6.484375 
Q 45.5625 -1.421875 35.59375 -1.421875 
Q 29.59375 -1.421875 25.265625 0.953125 
Q 20.953125 3.328125 18.109375 8.203125 
L 18.109375 0 
L 9.078125 0 
L 9.078125 75.984375 
L 18.109375 75.984375 
z
" id="DejaVuSans-98"/>
      <path d="M 45.40625 46.390625 
L 45.40625 75.984375 
L 54.390625 75.984375 
L 54.390625 0 
L 45.40625 0 
L 45.40625 8.203125 
Q 42.578125 3.328125 38.25 0.953125 
Q 33.9375 -1.421875 27.875 -1.421875 
Q 17.96875 -1.421875 11.734375 6.484375 
Q 5.515625 14.40625 5.515625 27.296875 
Q 5.515625 40.1875 11.734375 48.09375 
Q 17.96875 56 27.875 56 
Q 33.9375 56 38.25 53.625 
Q 42.578125 51.265625 45.40625 46.390625 
z
M 14.796875 27.296875 
Q 14.796875 17.390625 18.875 11.75 
Q 22.953125 6.109375 30.078125 6.109375 
Q 37.203125 6.109375 41.296875 11.75 
Q 45.40625 17.390625 45.40625 27.296875 
Q 45.40625 37.203125 41.296875 42.84375 
Q 37.203125 48.484375 30.078125 48.484375 
Q 22.953125 48.484375 18.875 42.84375 
Q 14.796875 37.203125 14.796875 27.296875 
z
" id="DejaVuSans-100"/>
      <path d="M 28.609375 0 
L 0.78125 72.90625 
L 11.078125 72.90625 
L 34.1875 11.53125 
L 57.328125 72.90625 
L 67.578125 72.90625 
L 39.796875 0 
z
" id="DejaVuSans-86"/>
      <path d="M 9.421875 75.984375 
L 18.40625 75.984375 
L 18.40625 0 
L 9.421875 0 
z
" id="DejaVuSans-108"/>
      <path d="M 45.40625 27.984375 
Q 45.40625 37.75 41.375 43.109375 
Q 37.359375 48.484375 30.078125 48.484375 
Q 22.859375 48.484375 18.828125 43.109375 
Q 14.796875 37.75 14.796875 27.984375 
Q 14.796875 18.265625 18.828125 12.890625 
Q 22.859375 7.515625 30.078125 7.515625 
Q 37.359375 7.515625 41.375 12.890625 
Q 45.40625 18.265625 45.40625 27.984375 
z
M 54.390625 6.78125 
Q 54.390625 -7.171875 48.1875 -13.984375 
Q 42 -20.796875 29.203125 -20.796875 
Q 24.46875 -20.796875 20.265625 -20.09375 
Q 16.0625 -19.390625 12.109375 -17.921875 
L 12.109375 -9.1875 
Q 16.0625 -11.328125 19.921875 -12.34375 
Q 23.78125 -13.375 27.78125 -13.375 
Q 36.625 -13.375 41.015625 -8.765625 
Q 45.40625 -4.15625 45.40625 5.171875 
L 45.40625 9.625 
Q 42.625 4.78125 38.28125 2.390625 
Q 33.9375 0 27.875 0 
Q 17.828125 0 11.671875 7.65625 
Q 5.515625 15.328125 5.515625 27.984375 
Q 5.515625 40.671875 11.671875 48.328125 
Q 17.828125 56 27.875 56 
Q 33.9375 56 38.28125 53.609375 
Q 42.625 51.21875 45.40625 46.390625 
L 45.40625 54.6875 
L 54.390625 54.6875 
z
" id="DejaVuSans-103"/>
      <path d="M 34.1875 63.1875 
L 20.796875 26.90625 
L 47.609375 26.90625 
z
M 28.609375 72.90625 
L 39.796875 72.90625 
L 67.578125 0 
L 57.328125 0 
L 50.6875 18.703125 
L 17.828125 18.703125 
L 11.1875 0 
L 0.78125 0 
z
" id="DejaVuSans-65"/>
     </defs>
     <use xlink:href="#DejaVuSans-80"/>
     <use x="56.677734" xlink:href="#DejaVuSans-111"/>
     <use x="117.859375" xlink:href="#DejaVuSans-118"/>
     <use x="177.039062" xlink:href="#DejaVuSans-101"/>
     <use x="238.5625" xlink:href="#DejaVuSans-114"/>
     <use x="279.675781" xlink:href="#DejaVuSans-116"/>
     <use x="318.884766" xlink:href="#DejaVuSans-121"/>
     <use x="378.064453" xlink:href="#DejaVuSans-32"/>
     <use x="409.851562" xlink:href="#DejaVuSans-76"/>
     <use x="465.564453" xlink:href="#DejaVuSans-105"/>
     <use x="493.347656" xlink:href="#DejaVuSans-110"/>
     <use x="556.726562" xlink:href="#DejaVuSans-101"/>
     <use x="618.25" xlink:href="#DejaVuSans-32"/>
     <use x="650.037109" xlink:href="#DejaVuSans-67"/>
     <use x="719.861328" xlink:href="#DejaVuSans-111"/>
     <use x="781.042969" xlink:href="#DejaVuSans-109"/>
     <use x="878.455078" xlink:href="#DejaVuSans-112"/>
     <use x="941.931641" xlink:href="#DejaVuSans-97"/>
     <use x="1003.210938" xlink:href="#DejaVuSans-114"/>
     <use x="1044.324219" xlink:href="#DejaVuSans-105"/>
     <use x="1072.107422" xlink:href="#DejaVuSans-115"/>
     <use x="1124.207031" xlink:href="#DejaVuSans-111"/>
     <use x="1185.388672" xlink:href="#DejaVuSans-110"/>
     <use x="1248.767578" xlink:href="#DejaVuSans-32"/>
     <use x="1280.554688" xlink:href="#DejaVuSans-105"/>
     <use x="1308.337891" xlink:href="#DejaVuSans-110"/>
     <use x="1371.716797" xlink:href="#DejaVuSans-32"/>
     <use x="1403.503906" xlink:href="#DejaVuSans-85"/>
     <use x="1476.697266" xlink:href="#DejaVuSans-114"/>
     <use x="1517.810547" xlink:href="#DejaVuSans-98"/>
     <use x="1581.287109" xlink:href="#DejaVuSans-97"/>
     <use x="1642.566406" xlink:href="#DejaVuSans-110"/>
     <use x="1705.945312" xlink:href="#DejaVuSans-32"/>
     <use x="1737.732422" xlink:href="#DejaVuSans-97"/>
     <use x="1799.011719" xlink:href="#DejaVuSans-110"/>
     <use x="1862.390625" xlink:href="#DejaVuSans-100"/>
     <use x="1925.867188" xlink:href="#DejaVuSans-32"/>
     <use x="1957.654297" xlink:href="#DejaVuSans-86"/>
     <use x="2023.8125" xlink:href="#DejaVuSans-105"/>
     <use x="2051.595703" xlink:href="#DejaVuSans-108"/>
     <use x="2079.378906" xlink:href="#DejaVuSans-108"/>
     <use x="2107.162109" xlink:href="#DejaVuSans-97"/>
     <use x="2168.441406" xlink:href="#DejaVuSans-103"/>
     <use x="2231.917969" xlink:href="#DejaVuSans-101"/>
     <use x="2293.441406" xlink:href="#DejaVuSans-32"/>
     <use x="2325.228516" xlink:href="#DejaVuSans-65"/>
     <use x="2393.636719" xlink:href="#DejaVuSans-114"/>
     <use x="2432.5" xlink:href="#DejaVuSans-101"/>
     <use x="2494.023438" xlink:href="#DejaVuSans-97"/>
    </g>
   </g>
   <g id="legend_1">
    <g id="patch_33">
     <path d="M 477.478125 671.46175 
L 608.0625 671.46175 
Q 610.0625 671.46175 610.0625 669.46175 
L 610.0625 641.1055 
Q 610.0625 639.1055 608.0625 639.1055 
L 477.478125 639.1055 
Q 475.478125 639.1055 475.478125 641.1055 
L 475.478125 669.46175 
Q 475.478125 671.46175 477.478125 671.46175 
z
" style="fill:#e5e5e5;opacity:0.8;stroke:#cccccc;stroke-linejoin:miter;stroke-width:0.5;"/>
    </g>
    <g id="patch_34">
     <path d="M 479.478125 650.703937 
L 499.478125 650.703937 
L 499.478125 643.703937 
L 479.478125 643.703937 
z
" style="fill:#e24a33;"/>
    </g>
    <g id="text_25">
     <!-- Village Poverty Line -->
     <g transform="translate(507.478125 650.703937)scale(0.1 -0.1)">
      <use xlink:href="#DejaVuSans-86"/>
      <use x="66.158203" xlink:href="#DejaVuSans-105"/>
      <use x="93.941406" xlink:href="#DejaVuSans-108"/>
      <use x="121.724609" xlink:href="#DejaVuSans-108"/>
      <use x="149.507812" xlink:href="#DejaVuSans-97"/>
      <use x="210.787109" xlink:href="#DejaVuSans-103"/>
      <use x="274.263672" xlink:href="#DejaVuSans-101"/>
      <use x="335.787109" xlink:href="#DejaVuSans-32"/>
      <use x="367.574219" xlink:href="#DejaVuSans-80"/>
      <use x="424.251953" xlink:href="#DejaVuSans-111"/>
      <use x="485.433594" xlink:href="#DejaVuSans-118"/>
      <use x="544.613281" xlink:href="#DejaVuSans-101"/>
      <use x="606.136719" xlink:href="#DejaVuSans-114"/>
      <use x="647.25" xlink:href="#DejaVuSans-116"/>
      <use x="686.458984" xlink:href="#DejaVuSans-121"/>
      <use x="745.638672" xlink:href="#DejaVuSans-32"/>
      <use x="777.425781" xlink:href="#DejaVuSans-76"/>
      <use x="833.138672" xlink:href="#DejaVuSans-105"/>
      <use x="860.921875" xlink:href="#DejaVuSans-110"/>
      <use x="924.300781" xlink:href="#DejaVuSans-101"/>
     </g>
    </g>
    <g id="patch_35">
     <path d="M 479.478125 665.382062 
L 499.478125 665.382062 
L 499.478125 658.382062 
L 479.478125 658.382062 
z
" style="fill:#348abd;"/>
    </g>
    <g id="text_26">
     <!-- Urban Poverty Line -->
     <g transform="translate(507.478125 665.382062)scale(0.1 -0.1)">
      <use xlink:href="#DejaVuSans-85"/>
      <use x="73.193359" xlink:href="#DejaVuSans-114"/>
      <use x="114.306641" xlink:href="#DejaVuSans-98"/>
      <use x="177.783203" xlink:href="#DejaVuSans-97"/>
      <use x="239.0625" xlink:href="#DejaVuSans-110"/>
      <use x="302.441406" xlink:href="#DejaVuSans-32"/>
      <use x="334.228516" xlink:href="#DejaVuSans-80"/>
      <use x="390.90625" xlink:href="#DejaVuSans-111"/>
      <use x="452.087891" xlink:href="#DejaVuSans-118"/>
      <use x="511.267578" xlink:href="#DejaVuSans-101"/>
      <use x="572.791016" xlink:href="#DejaVuSans-114"/>
      <use x="613.904297" xlink:href="#DejaVuSans-116"/>
      <use x="653.113281" xlink:href="#DejaVuSans-121"/>
      <use x="712.292969" xlink:href="#DejaVuSans-32"/>
      <use x="744.080078" xlink:href="#DejaVuSans-76"/>
      <use x="799.792969" xlink:href="#DejaVuSans-105"/>
      <use x="827.576172" xlink:href="#DejaVuSans-110"/>
      <use x="890.955078" xlink:href="#DejaVuSans-101"/>
     </g>
    </g>
   </g>
  </g>
 </g>
 <defs>
  <clipPath id="p0628ea0300">
   <rect height="652.32" width="558" x="57.0625" y="24.14175"/>
  </clipPath>
 </defs>
</svg>
